<svg width="47" height="54" viewBox="0 0 47 54" fill="none" xmlns="http://www.w3.org/2000/svg">
<path d="M5.91895 16.8888L23.7885 6.55513L41.6581 16.8888V37.5588L23.7885 47.8925L5.91895 37.5588V16.8888Z" fill="#0794FF" fill-opacity="0.2" stroke="url(#paint0_angular_10257_160)" stroke-width="2"/>
<path d="M1.25 14.0757L23.5 1.15635L45.75 14.0757V39.9243L23.5 52.8437L1.25 39.9243V14.0757Z" stroke="#0794FF" stroke-opacity="0.24" stroke-width="2"/>
<g filter="url(#filter0_i_10257_160)">
<path d="M30.66 19.8375C29.0029 18.1792 26.822 17.1469 24.489 16.9164C22.156 16.6859 19.8153 17.2716 17.8657 18.5735C15.9161 19.8755 14.4783 21.8131 13.7973 24.0564C13.1163 26.2997 13.2342 28.7096 14.131 30.8757C15.0277 33.0418 16.6478 34.8298 18.7152 35.9352C20.7826 37.0406 23.1693 37.395 25.4686 36.9378C27.768 36.4807 29.8377 35.2404 31.325 33.4283C32.8124 31.6161 33.6253 29.3443 33.6254 27C33.6253 24.3138 32.5587 21.7376 30.66 19.8375ZM28.0004 33.4687C27.5318 33.7962 27.0288 34.0713 26.5004 34.2891V25.5937L28.0004 24.0937V33.4687ZM17.9316 21.4294C19.2714 20.0917 21.0479 19.2809 22.9363 19.1453C24.8246 19.0096 26.6988 19.5582 28.216 20.6906L17.1929 31.7184C16.0591 30.2008 15.5098 28.3257 15.6455 26.4363C15.7811 24.5468 16.5927 22.7694 17.9316 21.4294ZM20.5004 31.5937V34.2834C19.8897 34.0323 19.3133 33.705 18.7847 33.3094L20.5004 31.5937ZM22.7504 34.8394V29.3437L24.2504 27.8437V34.8412C23.7514 34.888 23.2492 34.8873 22.7504 34.8394ZM30.2504 31.0641V22.9359C30.9871 24.1635 31.3763 25.5683 31.3763 27C31.3763 28.4317 30.9871 29.8365 30.2504 31.0641Z" fill="#0794FF"/>
</g>
<defs>
<filter id="filter0_i_10257_160" x="13.3604" y="16.8673" width="20.2646" height="21.265" filterUnits="userSpaceOnUse" color-interpolation-filters="sRGB">
<feFlood flood-opacity="0" result="BackgroundImageFix"/>
<feBlend mode="normal" in="SourceGraphic" in2="BackgroundImageFix" result="shape"/>
<feColorMatrix in="SourceAlpha" type="matrix" values="0 0 0 0 0 0 0 0 0 0 0 0 0 0 0 0 0 0 127 0" result="hardAlpha"/>
<feOffset dy="1"/>
<feGaussianBlur stdDeviation="1"/>
<feComposite in2="hardAlpha" operator="arithmetic" k2="-1" k3="1"/>
<feColorMatrix type="matrix" values="0 0 0 0 1 0 0 0 0 1 0 0 0 0 1 0 0 0 1 0"/>
<feBlend mode="normal" in2="shape" result="effect1_innerShadow_10257_160"/>
</filter>
<radialGradient id="paint0_angular_10257_160" cx="0" cy="0" r="1" gradientUnits="userSpaceOnUse" gradientTransform="translate(23.7885 27.2238) rotate(90) scale(21.8238 18.8696)">
<stop offset="0.00215649" stop-color="#1FC6FF"/>
<stop offset="0.181909" stop-color="#1FC6FF"/>
<stop offset="0.330608" stop-color="#C2EFFF"/>
<stop offset="0.50149" stop-color="#1FC6FF"/>
<stop offset="0.68215" stop-color="#ADEAFF"/>
<stop offset="0.822644" stop-color="#1FC6FF"/>
<stop offset="0.90625" stop-color="#1FC6FF"/>
</radialGradient>
</defs>
</svg>
