<svg width="47" height="54" viewBox="0 0 47 54" fill="none" xmlns="http://www.w3.org/2000/svg">
<path d="M5.91895 16.8888L23.7885 6.55513L41.6581 16.8888V37.5588L23.7885 47.8925L5.91895 37.5588V16.8888Z" fill="#0794FF" fill-opacity="0.2" stroke="url(#paint0_angular_10257_227)" stroke-width="2"/>
<path d="M1.25 14.0757L23.5 1.15635L45.75 14.0757V39.9243L23.5 52.8437L1.25 39.9243V14.0757Z" stroke="#0794FF" stroke-opacity="0.24" stroke-width="2"/>
<g filter="url(#filter0_i_10257_227)">
<path d="M30.3606 20.5903C29.7733 19.2605 28.8122 18.1301 27.5942 17.3365C26.3761 16.5429 24.9537 16.1205 23.5 16.1205C22.0463 16.1205 20.6239 16.5429 19.4059 17.3365C18.1879 18.1301 17.2267 19.2605 16.6394 20.5903C15.4411 21.1753 14.4302 22.0836 13.7209 23.2128C13.0115 24.3419 12.632 25.6469 12.625 26.9803C12.6147 30.8241 15.7282 34.0256 19.5625 34.1231C20.524 34.1491 21.4809 33.9798 22.375 33.6253V36.75C22.375 37.0484 22.4936 37.3345 22.7045 37.5455C22.9155 37.7565 23.2017 37.875 23.5 37.875C23.7984 37.875 24.0845 37.7565 24.2955 37.5455C24.5065 37.3345 24.625 37.0484 24.625 36.75V33.6253C25.4605 33.9564 26.3513 34.1259 27.25 34.125H27.4375C31.2757 34.0312 34.3891 30.8231 34.375 26.9822C34.3684 25.6484 33.989 24.3431 33.2797 23.2136C32.5703 22.0841 31.5592 21.1754 30.3606 20.5903ZM27.3766 31.875C26.4029 31.9021 25.4437 31.6341 24.625 31.1062V27.6956L28.5035 25.7559C28.6378 25.6911 28.7578 25.6003 28.8567 25.4887C28.9556 25.3771 29.0313 25.2469 29.0794 25.1058C29.1275 24.9646 29.1471 24.8154 29.137 24.6666C29.1269 24.5178 29.0874 24.3725 29.0206 24.2392C28.9539 24.1059 28.8613 23.9871 28.7483 23.8899C28.6353 23.7926 28.504 23.7188 28.3622 23.6727C28.2204 23.6267 28.0708 23.6093 27.9222 23.6215C27.7736 23.6337 27.629 23.6754 27.4966 23.7441L24.625 25.1794V23.25C24.625 22.9516 24.5065 22.6655 24.2955 22.4545C24.0845 22.2435 23.7984 22.125 23.5 22.125C23.2017 22.125 22.9155 22.2435 22.7045 22.4545C22.4936 22.6655 22.375 22.9516 22.375 23.25V27.4294L19.5035 25.9941C19.2373 25.8656 18.9312 25.8471 18.6515 25.9425C18.3718 26.0379 18.1408 26.2395 18.0086 26.5038C17.8763 26.7681 17.8533 27.0738 17.9446 27.3549C18.036 27.636 18.2342 27.8698 18.4966 28.0059L22.375 29.9456V31.1062C21.5566 31.6346 20.5973 31.9026 19.6235 31.875C18.5223 31.8471 17.4631 31.4471 16.6184 30.7402C15.7737 30.0333 15.1933 29.0612 14.9717 27.9822C14.7501 26.9033 14.9005 25.7811 15.3982 24.7985C15.896 23.8159 16.7118 23.0308 17.7128 22.5712C18.1386 22.3751 18.4754 22.0265 18.6569 21.5944C19.0565 20.6394 19.7294 19.824 20.5911 19.2504C21.4528 18.6769 22.4649 18.3708 23.5 18.3708C24.5352 18.3708 25.5472 18.6769 26.4089 19.2504C27.2707 19.824 27.9436 20.6394 28.3432 21.5944C28.5247 22.0265 28.8615 22.3751 29.2872 22.5712C30.2882 23.0308 31.1041 23.8159 31.6018 24.7985C32.0996 25.7811 32.2499 26.9033 32.0284 27.9822C31.8068 29.0612 31.2264 30.0333 30.3816 30.7402C29.5369 31.4471 28.4777 31.8471 27.3766 31.875Z" fill="#0794FF"/>
</g>
<defs>
<filter id="filter0_i_10257_227" x="12.625" y="16.1205" width="21.75" height="22.7545" filterUnits="userSpaceOnUse" color-interpolation-filters="sRGB">
<feFlood flood-opacity="0" result="BackgroundImageFix"/>
<feBlend mode="normal" in="SourceGraphic" in2="BackgroundImageFix" result="shape"/>
<feColorMatrix in="SourceAlpha" type="matrix" values="0 0 0 0 0 0 0 0 0 0 0 0 0 0 0 0 0 0 127 0" result="hardAlpha"/>
<feOffset dy="1"/>
<feGaussianBlur stdDeviation="1"/>
<feComposite in2="hardAlpha" operator="arithmetic" k2="-1" k3="1"/>
<feColorMatrix type="matrix" values="0 0 0 0 1 0 0 0 0 1 0 0 0 0 1 0 0 0 1 0"/>
<feBlend mode="normal" in2="shape" result="effect1_innerShadow_10257_227"/>
</filter>
<radialGradient id="paint0_angular_10257_227" cx="0" cy="0" r="1" gradientUnits="userSpaceOnUse" gradientTransform="translate(23.7885 27.2238) rotate(90) scale(21.8238 18.8696)">
<stop offset="0.00215649" stop-color="#1FC6FF"/>
<stop offset="0.181909" stop-color="#1FC6FF"/>
<stop offset="0.330608" stop-color="#C2EFFF"/>
<stop offset="0.50149" stop-color="#1FC6FF"/>
<stop offset="0.68215" stop-color="#ADEAFF"/>
<stop offset="0.822644" stop-color="#1FC6FF"/>
<stop offset="0.90625" stop-color="#1FC6FF"/>
</radialGradient>
</defs>
</svg>
