<svg width="47" height="54" viewBox="0 0 47 54" fill="none" xmlns="http://www.w3.org/2000/svg">
<path d="M5.91895 16.8888L23.7885 6.55513L41.6581 16.8888V37.5588L23.7885 47.8925L5.91895 37.5588V16.8888Z" fill="#0794FF" fill-opacity="0.2" stroke="url(#paint0_angular_10257_193)" stroke-width="2"/>
<path d="M1.25 14.0757L23.5 1.15635L45.75 14.0757V39.9243L23.5 52.8437L1.25 39.9243V14.0757Z" stroke="#0794FF" stroke-opacity="0.24" stroke-width="2"/>
<g filter="url(#filter0_i_10257_193)">
<path d="M26.4998 18.375C24.9429 18.3758 23.4151 18.7975 22.0783 19.5957C20.7415 20.3938 19.6454 21.5385 18.9061 22.9088C18.0459 22.8199 17.1767 22.907 16.3512 23.1646C15.5257 23.4223 14.7613 23.8453 14.1045 24.4077C13.4477 24.9702 12.9121 25.6604 12.5305 26.4364C12.1488 27.2123 11.929 28.0578 11.8844 28.9214C11.8399 29.785 11.9715 30.6487 12.2712 31.4598C12.571 32.2709 13.0326 33.0126 13.6281 33.6397C14.2235 34.2668 14.9403 34.7662 15.7349 35.1075C16.5294 35.4488 17.3851 35.6248 18.2498 35.625H26.4998C28.7873 35.625 30.9811 34.7163 32.5986 33.0988C34.2161 31.4813 35.1248 29.2875 35.1248 27C35.1248 24.7125 34.2161 22.5187 32.5986 20.9012C30.9811 19.2837 28.7873 18.375 26.4998 18.375ZM26.4998 33.375H18.2498C17.1558 33.3976 16.0976 32.9847 15.308 32.2271C14.5184 31.4696 14.0622 30.4293 14.0395 29.3353C14.0169 28.2413 14.4298 27.1831 15.1874 26.3935C15.945 25.6039 16.9852 25.1476 18.0792 25.125C17.9426 25.7406 17.8741 26.3694 17.8748 27C17.8748 27.2984 17.9934 27.5845 18.2043 27.7955C18.4153 28.0065 18.7015 28.125 18.9998 28.125C19.2982 28.125 19.5844 28.0065 19.7953 27.7955C20.0063 27.5845 20.1248 27.2984 20.1248 27C20.1248 25.7391 20.4987 24.5066 21.1992 23.4582C21.8997 22.4099 22.8954 21.5928 24.0602 21.1103C25.2251 20.6278 26.5069 20.5015 27.7435 20.7475C28.9802 20.9935 30.1161 21.6006 31.0076 22.4922C31.8992 23.3838 32.5064 24.5197 32.7523 25.7563C32.9983 26.9929 32.8721 28.2747 32.3896 29.4396C31.9071 30.6045 31.09 31.6001 30.0416 32.3006C28.9932 33.0011 27.7607 33.375 26.4998 33.375Z" fill="#0794FF"/>
</g>
<defs>
<filter id="filter0_i_10257_193" x="11.876" y="18.375" width="23.249" height="18.25" filterUnits="userSpaceOnUse" color-interpolation-filters="sRGB">
<feFlood flood-opacity="0" result="BackgroundImageFix"/>
<feBlend mode="normal" in="SourceGraphic" in2="BackgroundImageFix" result="shape"/>
<feColorMatrix in="SourceAlpha" type="matrix" values="0 0 0 0 0 0 0 0 0 0 0 0 0 0 0 0 0 0 127 0" result="hardAlpha"/>
<feOffset dy="1"/>
<feGaussianBlur stdDeviation="1"/>
<feComposite in2="hardAlpha" operator="arithmetic" k2="-1" k3="1"/>
<feColorMatrix type="matrix" values="0 0 0 0 1 0 0 0 0 1 0 0 0 0 1 0 0 0 1 0"/>
<feBlend mode="normal" in2="shape" result="effect1_innerShadow_10257_193"/>
</filter>
<radialGradient id="paint0_angular_10257_193" cx="0" cy="0" r="1" gradientUnits="userSpaceOnUse" gradientTransform="translate(23.7885 27.2238) rotate(90) scale(21.8238 18.8696)">
<stop offset="0.00215649" stop-color="#1FC6FF"/>
<stop offset="0.181909" stop-color="#1FC6FF"/>
<stop offset="0.330608" stop-color="#C2EFFF"/>
<stop offset="0.50149" stop-color="#1FC6FF"/>
<stop offset="0.68215" stop-color="#ADEAFF"/>
<stop offset="0.822644" stop-color="#1FC6FF"/>
<stop offset="0.90625" stop-color="#1FC6FF"/>
</radialGradient>
</defs>
</svg>
