<svg width="47" height="54" viewBox="0 0 47 54" fill="none" xmlns="http://www.w3.org/2000/svg">
<path d="M5.91895 16.8887L23.7885 6.55507L41.6581 16.8887V37.5588L23.7885 47.8924L5.91895 37.5588V16.8887Z" fill="#0794FF" fill-opacity="0.2" stroke="url(#paint0_angular_10379_33)" stroke-width="2"/>
<path d="M1.25 14.0757L23.5 1.15635L45.75 14.0757V39.9243L23.5 52.8437L1.25 39.9243V14.0757Z" stroke="#0794FF" stroke-opacity="0.24" stroke-width="2"/>
<g filter="url(#filter0_i_10379_33)">
<path d="M31.75 19.125H15.25C14.7527 19.125 14.2758 19.3225 13.9242 19.6742C13.5725 20.0258 13.375 20.5027 13.375 21V33C13.375 33.4973 13.5725 33.9742 13.9242 34.3258C14.2758 34.6775 14.7527 34.875 15.25 34.875H31.75C32.2473 34.875 32.7242 34.6775 33.0758 34.3258C33.4275 33.9742 33.625 33.4973 33.625 33V21C33.625 20.5027 33.4275 20.0258 33.0758 19.6742C32.7242 19.3225 32.2473 19.125 31.75 19.125ZM21.625 28.125V25.875H25.375V28.125H21.625ZM25.375 30.375V32.625H21.625V30.375H25.375ZM15.625 25.875H19.375V28.125H15.625V25.875ZM21.625 23.625V21.375H25.375V23.625H21.625ZM27.625 25.875H31.375V28.125H27.625V25.875ZM31.375 23.625H27.625V21.375H31.375V23.625ZM19.375 21.375V23.625H15.625V21.375H19.375ZM15.625 30.375H19.375V32.625H15.625V30.375ZM27.625 32.625V30.375H31.375V32.625H27.625Z" fill="#0794FF"/>
</g>
<defs>
<filter id="filter0_i_10379_33" x="13.375" y="19.125" width="20.25" height="16.75" filterUnits="userSpaceOnUse" color-interpolation-filters="sRGB">
<feFlood flood-opacity="0" result="BackgroundImageFix"/>
<feBlend mode="normal" in="SourceGraphic" in2="BackgroundImageFix" result="shape"/>
<feColorMatrix in="SourceAlpha" type="matrix" values="0 0 0 0 0 0 0 0 0 0 0 0 0 0 0 0 0 0 127 0" result="hardAlpha"/>
<feOffset dy="1"/>
<feGaussianBlur stdDeviation="1"/>
<feComposite in2="hardAlpha" operator="arithmetic" k2="-1" k3="1"/>
<feColorMatrix type="matrix" values="0 0 0 0 1 0 0 0 0 1 0 0 0 0 1 0 0 0 1 0"/>
<feBlend mode="normal" in2="shape" result="effect1_innerShadow_10379_33"/>
</filter>
<radialGradient id="paint0_angular_10379_33" cx="0" cy="0" r="1" gradientUnits="userSpaceOnUse" gradientTransform="translate(23.7885 27.2237) rotate(90) scale(21.8238 18.8696)">
<stop offset="0.00215649" stop-color="#1FC6FF"/>
<stop offset="0.181909" stop-color="#1FC6FF"/>
<stop offset="0.330608" stop-color="#C2EFFF"/>
<stop offset="0.50149" stop-color="#1FC6FF"/>
<stop offset="0.68215" stop-color="#ADEAFF"/>
<stop offset="0.822644" stop-color="#1FC6FF"/>
<stop offset="0.90625" stop-color="#1FC6FF"/>
</radialGradient>
</defs>
</svg>
