<svg width="47" height="54" viewBox="0 0 47 54" fill="none" xmlns="http://www.w3.org/2000/svg">
<path d="M5.91895 16.8887L23.7885 6.55507L41.6581 16.8887V37.5588L23.7885 47.8924L5.91895 37.5588V16.8887Z" fill="#0794FF" fill-opacity="0.2" stroke="url(#paint0_angular_10379_79)" stroke-width="2"/>
<path d="M1.25 14.0757L23.5 1.15635L45.75 14.0757V39.9243L23.5 52.8437L1.25 39.9243V14.0757Z" stroke="#0794FF" stroke-opacity="0.24" stroke-width="2"/>
<g filter="url(#filter0_i_10379_79)">
<path d="M33.7047 27.5625C33.4814 26.7281 33.0806 25.9517 32.5296 25.2865C31.9786 24.6212 31.2905 24.0828 30.5122 23.7079C29.734 23.3331 28.884 23.1307 28.0204 23.1146C27.1567 23.0986 26.2998 23.2691 25.5081 23.6147L26.8413 18.2925C26.8981 18.0642 26.8818 17.8239 26.7949 17.6052C26.708 17.3866 26.5547 17.2008 26.3566 17.0738C25.0453 16.2427 23.463 15.9522 21.9421 16.2633C20.4212 16.5745 19.08 17.463 18.2005 18.7422C17.3209 20.0214 16.9714 21.5918 17.2254 23.1233C17.4794 24.6548 18.3171 26.0282 19.5625 26.955L14.2863 28.4616C14.0595 28.5264 13.8589 28.6609 13.7127 28.8459C13.5665 29.031 13.4821 29.2573 13.4716 29.4929C13.3924 31.0535 13.9253 32.5835 14.9568 33.7573C15.9883 34.9312 17.4371 35.6563 18.9949 35.7784C20.5528 35.9005 22.0969 35.41 23.2987 34.4113C24.5005 33.4125 25.2653 31.9843 25.4303 30.4304L29.3678 34.246C29.5375 34.4093 29.7542 34.5153 29.9873 34.5489C30.2204 34.5826 30.4582 34.5422 30.6672 34.4335C31.88 33.805 32.8421 32.7816 33.3944 31.5322C33.9467 30.2829 34.0561 28.8825 33.7047 27.5625ZM22.375 27C22.375 26.7775 22.441 26.56 22.5646 26.375C22.6882 26.19 22.8639 26.0458 23.0695 25.9607C23.2751 25.8755 23.5013 25.8533 23.7195 25.8967C23.9377 25.9401 24.1382 26.0472 24.2955 26.2046C24.4528 26.3619 24.56 26.5623 24.6034 26.7806C24.6468 26.9988 24.6245 27.225 24.5394 27.4306C24.4542 27.6361 24.31 27.8118 24.125 27.9355C23.94 28.0591 23.7225 28.125 23.5 28.125C23.2016 28.125 22.9155 28.0065 22.7045 27.7955C22.4935 27.5846 22.375 27.2984 22.375 27ZM23.125 18.375C23.5732 18.375 24.0177 18.4554 24.4375 18.6122L23.1813 23.641C22.7011 23.6868 22.2363 23.8351 21.8183 24.0757C21.4002 24.3163 21.0386 24.6438 20.7578 25.036C20.1563 24.5474 19.7208 23.8845 19.5114 23.1384C19.302 22.3922 19.3289 21.5995 19.5884 20.8693C19.8479 20.1391 20.3273 19.5072 20.9606 19.0605C21.5939 18.6139 22.35 18.3744 23.125 18.375ZM21.3438 33.0094C20.8187 33.3133 20.2279 33.4852 19.6218 33.5105C19.0157 33.5358 18.4126 33.4136 17.8641 33.1546C17.3156 32.8956 16.8381 32.5073 16.4726 32.0232C16.1071 31.5391 15.8645 30.9735 15.7656 30.375L20.7513 28.951C21.0304 29.3447 21.3908 29.674 21.8081 29.9166C22.2253 30.1591 22.6897 30.3094 23.17 30.3572C23.0827 30.9075 22.8734 31.4313 22.5574 31.8902C22.2414 32.3492 21.8267 32.7316 21.3438 33.0094ZM31.1594 30.9882C30.9352 31.3776 30.6427 31.7234 30.2959 32.0091L26.5684 28.4063C26.7696 27.9677 26.8742 27.491 26.875 27.0085C26.8758 26.526 26.7729 26.049 26.5731 25.6097C27.297 25.3334 28.0888 25.288 28.8395 25.48C29.5902 25.6719 30.263 26.0916 30.7655 26.6815C31.2679 27.2714 31.5753 28.0025 31.6453 28.7742C31.7153 29.5458 31.5446 30.3203 31.1566 30.991L31.1594 30.9882Z" fill="#0794FF"/>
</g>
<defs>
<filter id="filter0_i_10379_79" x="13.4639" y="16.1416" width="20.4429" height="20.6552" filterUnits="userSpaceOnUse" color-interpolation-filters="sRGB">
<feFlood flood-opacity="0" result="BackgroundImageFix"/>
<feBlend mode="normal" in="SourceGraphic" in2="BackgroundImageFix" result="shape"/>
<feColorMatrix in="SourceAlpha" type="matrix" values="0 0 0 0 0 0 0 0 0 0 0 0 0 0 0 0 0 0 127 0" result="hardAlpha"/>
<feOffset dy="1"/>
<feGaussianBlur stdDeviation="1"/>
<feComposite in2="hardAlpha" operator="arithmetic" k2="-1" k3="1"/>
<feColorMatrix type="matrix" values="0 0 0 0 1 0 0 0 0 1 0 0 0 0 1 0 0 0 1 0"/>
<feBlend mode="normal" in2="shape" result="effect1_innerShadow_10379_79"/>
</filter>
<radialGradient id="paint0_angular_10379_79" cx="0" cy="0" r="1" gradientUnits="userSpaceOnUse" gradientTransform="translate(23.7885 27.2237) rotate(90) scale(21.8238 18.8696)">
<stop offset="0.00215649" stop-color="#1FC6FF"/>
<stop offset="0.181909" stop-color="#1FC6FF"/>
<stop offset="0.330608" stop-color="#C2EFFF"/>
<stop offset="0.50149" stop-color="#1FC6FF"/>
<stop offset="0.68215" stop-color="#ADEAFF"/>
<stop offset="0.822644" stop-color="#1FC6FF"/>
<stop offset="0.90625" stop-color="#1FC6FF"/>
</radialGradient>
</defs>
</svg>
