<svg width="49" height="36" viewBox="0 0 49 36" fill="none" xmlns="http://www.w3.org/2000/svg">
<ellipse cx="24.5928" cy="18.0008" rx="24" ry="18.0008" fill="#42F0DB" fill-opacity="0.1"/>
<path d="M48.0928 18.0008C48.0928 22.7789 45.5118 27.1428 41.2633 30.3293C37.0147 33.5159 31.1225 35.5016 24.5928 35.5016C18.0631 35.5016 12.1708 33.5159 7.92222 30.3293C3.67379 27.1428 1.09277 22.7789 1.09277 18.0008C1.09277 13.2227 3.67379 8.85877 7.92222 5.67231C12.1708 2.48573 18.0631 0.5 24.5928 0.5C31.1225 0.5 37.0147 2.48573 41.2633 5.67231C45.5118 8.85877 48.0928 13.2227 48.0928 18.0008Z" stroke="#42F0DB" stroke-opacity="0.1"/>
<path d="M40.0928 18.0016C40.0928 21.1226 38.4072 23.9863 35.6065 26.0869C32.8056 28.1875 28.9133 29.5016 24.5928 29.5016C20.2722 29.5016 16.3799 28.1875 13.5791 26.0869C10.7783 23.9863 9.09277 21.1226 9.09277 18.0016C9.09277 14.8805 10.7783 12.0168 13.5791 9.91631C16.3799 7.81565 20.2722 6.50159 24.5928 6.50159C28.9133 6.50159 32.8056 7.81565 35.6065 9.91631C38.4072 12.0168 40.0928 14.8805 40.0928 18.0016Z" fill="url(#paint0_radial_9947_266)" stroke="#42F0DB"/>
<defs>
<radialGradient id="paint0_radial_9947_266" cx="0" cy="0" r="1" gradientUnits="userSpaceOnUse" gradientTransform="translate(24.5928 18.0016) rotate(90) scale(12 16)">
<stop stop-color="#42F0DB"/>
<stop offset="1" stop-color="#42F0DB" stop-opacity="0"/>
</radialGradient>
</defs>
</svg>
