<svg width="120" height="120" viewBox="0 0 120 120" fill="none" xmlns="http://www.w3.org/2000/svg">
<rect width="120" height="120" rx="60" fill="#007EF5"/>
<g clip-path="url(#clip0_20873_148)">
<path d="M107.531 55.584L73.5469 50.5059C72.7012 50.3692 71.8379 50.6133 71.1836 51.1699C70.5313 51.7266 70.1562 52.541 70.1562 53.3985V63.2734H73.0156C77.8613 63.2734 81.8047 67.2168 81.8047 72.0625V120H107.07C108.687 120 110 118.688 110 117.07V58.4766C110 57.0371 108.953 55.8106 107.531 55.584ZM93.5938 99.4922C93.5938 101.109 92.2812 102.422 90.6641 102.422C89.0469 102.422 87.7344 101.109 87.7344 99.4922V67.461C87.7344 65.8438 89.0469 64.5313 90.6641 64.5313C92.2812 64.5313 93.5938 65.8438 93.5938 67.461V99.4922Z" fill="white"/>
<path d="M57.2656 108.281H63.125V120H57.2656V108.281Z" fill="white"/>
<path d="M73.0156 69.1328H44.4453V120H51.4062V105.352C51.4062 103.734 52.7187 102.422 54.3359 102.422H66.0547C67.6719 102.422 68.9844 103.734 68.9844 105.352V120H75.9453V72.0625C75.9453 70.4434 74.6328 69.1328 73.0156 69.1328ZM66.0547 96.5625H54.3359C52.7187 96.5625 51.4062 95.25 51.4062 93.6328C51.4062 92.0156 52.7187 90.7031 54.3359 90.7031H66.0547C67.6719 90.7031 68.9844 92.0156 68.9844 93.6328C68.9844 95.25 67.6719 96.5625 66.0547 96.5625ZM66.0547 84.8438H54.3359C52.7187 84.8438 51.4062 83.5313 51.4062 81.9141C51.4062 80.2969 52.7187 78.9844 54.3359 78.9844H66.0547C67.6719 78.9844 68.9844 80.2969 68.9844 81.9141C68.9844 83.5313 67.6719 84.8438 66.0547 84.8438Z" fill="white"/>
<path d="M33.082 50.6641C33.082 49.0469 31.7695 47.7344 30.1523 47.7344H27.2227V39.7266C27.2227 38.1094 25.9102 36.7969 24.293 36.7969C22.6758 36.7969 21.3633 38.1094 21.3633 39.7266V47.7344H18.4336C16.8164 47.7344 15.5039 49.0469 15.5039 50.6641V54.7949H33.082V50.6641Z" fill="white"/>
<path d="M35.6562 60.6543H12.9297C11.3117 60.6543 10 61.966 10 63.584V71.1719H25.9322C27.5092 71.1719 28.8666 72.383 28.942 73.958C29.0223 75.6404 27.6805 77.0313 26.0156 77.0313H10V82.8906H25.9322C27.5092 82.8906 28.8666 84.1018 28.942 85.6768C29.0223 87.3592 27.6805 88.75 26.0156 88.75H10V94.6094H25.9322C27.5092 94.6094 28.8666 95.8205 28.942 97.3955C29.0223 99.0779 27.6805 100.469 26.0156 100.469H10V117.07C10 118.688 11.3117 120 12.9297 120H38.5859V63.584C38.5859 61.9668 37.2754 60.6543 35.6562 60.6543Z" fill="white"/>
<path d="M59.8047 25.8594C65.2832 25.8594 70.4336 27.9922 74.3047 31.8652C74.877 32.4375 75.627 32.7246 76.377 32.7246C77.127 32.7246 77.877 32.4395 78.4473 31.8672C79.5918 30.7227 79.5937 28.8672 78.4492 27.7246C73.4707 22.7422 66.8496 20 59.8047 20C52.7598 20 46.1387 22.7422 41.1602 27.7246C40.0156 28.8672 40.0176 30.7227 41.1621 31.8672C42.3047 33.0117 44.1602 33.0098 45.3047 31.8652C49.1758 27.9922 54.3262 25.8594 59.8047 25.8594Z" fill="white"/>
<path d="M59.8047 49.2973C61.4227 49.2973 62.7344 47.9856 62.7344 46.3676C62.7344 44.7496 61.4227 43.4379 59.8047 43.4379C58.1867 43.4379 56.875 44.7496 56.875 46.3676C56.875 47.9856 58.1867 49.2973 59.8047 49.2973Z" fill="white"/>
<path d="M68.0918 41.0098C68.8418 41.0098 69.5918 40.7227 70.1641 40.1523C71.3066 39.0078 71.3066 37.1523 70.1641 36.0078C67.3965 33.2422 63.7188 31.7188 59.8047 31.7188C55.8906 31.7188 52.2129 33.2422 49.4453 36.0078C48.3027 37.1523 48.3027 39.0078 49.4453 40.1523C50.5898 41.2949 52.4453 41.2949 53.5898 40.1523C55.248 38.4922 57.457 37.5781 59.8047 37.5781C62.1523 37.5781 64.3613 38.4922 66.0195 40.1523C66.5918 40.7246 67.3418 41.0098 68.0918 41.0098Z" fill="white"/>
</g>
<defs>
<clipPath id="clip0_20873_148">
<rect width="100" height="100" fill="white" transform="translate(10 20)"/>
</clipPath>
</defs>
</svg>
