<svg width="70" height="32" viewBox="0 0 70 32" fill="none" xmlns="http://www.w3.org/2000/svg">
<g clip-path="url(#clip0_9812_1669)">
<path d="M26.0981 12.0828C26.5788 10.7186 27.0595 9.36741 27.5272 8.00322C28.2678 5.91147 28.9953 3.80672 29.7229 1.71496C29.8009 1.49409 29.9178 1.36417 30.1257 1.27322C30.9572 0.883453 31.8017 0.480692 32.6202 0.0649387C32.8411 -0.0389996 32.919 -0.013015 32.958 0.220846C33.5297 3.41695 34.1013 6.60006 34.673 9.79616C35.1537 12.4466 35.6214 15.084 36.1151 17.7344C36.1671 17.9943 36.1281 18.1372 35.8683 18.2541C35.0108 18.6439 34.1663 19.0467 33.3218 19.4624C33.1009 19.5664 32.997 19.5404 32.945 19.2805C32.2304 15.6427 31.5029 11.9919 30.7753 8.32803C30.6324 8.44496 30.6194 8.61386 30.5804 8.74379C29.593 11.758 28.6056 14.7722 27.6312 17.7864C27.5662 17.9943 27.4623 18.1502 27.2804 18.2931C26.8516 18.6309 26.4359 18.9817 26.0331 19.3455C25.8252 19.5404 25.7343 19.5404 25.6174 19.2416C24.7988 17.2018 23.9803 15.162 23.1488 13.1352C22.4992 11.5371 21.8496 9.92608 21.2 8.32803C21.161 8.22409 21.148 8.10716 21.0181 8.02921C20.5893 9.96506 20.1606 11.9009 19.7318 13.8238C19.3551 15.4998 18.9913 17.1758 18.6275 18.8518C18.5625 19.1376 18.4976 19.1896 18.2247 19.0467C17.4842 18.6699 16.7436 18.3061 15.9901 17.9683C15.7302 17.8514 15.6653 17.7215 15.7172 17.4356C16.2499 14.7462 16.7826 12.0698 17.3023 9.38041C17.809 6.80793 18.3287 4.22247 18.8224 1.65C18.8744 1.41614 18.9523 1.28621 19.1862 1.20826C19.9267 0.948414 20.6803 0.675576 21.4079 0.389746C21.6547 0.285807 21.7197 0.389746 21.7976 0.58463C22.6551 2.96222 23.5256 5.33981 24.3961 7.71739C24.9288 9.17253 25.4614 10.6277 25.9941 12.0958C26.0461 12.0958 26.0721 12.0958 26.0981 12.0828Z" fill="#2A9AD6"/>
<path d="M58.5526 17.4487C60.3585 19.4625 61.0991 21.8271 60.7223 24.4905C60.2026 28.0634 58.1888 30.4929 54.7459 31.6103C50.6143 32.9485 46.08 30.6748 44.469 26.5693C43.9883 25.348 43.8194 24.1007 43.8713 22.8015C43.9493 22.6846 44.0792 22.6716 44.1831 22.6196C44.378 22.5416 44.5729 22.4637 44.7418 22.3208C44.8977 22.1909 45.0536 22.0479 45.0147 21.8271C44.9757 21.6062 44.7808 21.5672 44.5989 21.5023C44.0662 21.3204 44.0402 21.2424 44.3131 20.7357C44.456 20.5668 44.6379 20.6188 44.7938 20.6837C45.7682 21.0475 46.6127 21.6192 47.2363 22.4767C47.4052 22.7105 47.4832 22.9834 47.4702 23.2822C47.4572 23.7239 47.5092 24.1527 47.6131 24.5684C47.795 25.361 48.1718 25.4779 48.7564 24.9192C49.0033 24.6854 49.2501 24.4255 49.445 24.1527C49.5879 23.9578 49.7309 23.7499 49.9127 23.581C50.3935 23.1393 50.9261 23.1913 51.3159 23.711C51.7187 24.2566 51.9915 24.8673 52.2643 25.4779C52.5372 26.1015 53.0569 26.2444 53.6415 26.3094C53.8754 26.3354 54.0183 26.2055 53.9923 25.9456C53.9533 25.5039 53.8624 25.0621 53.6155 24.6854C53.4077 24.3476 53.4337 24.2436 53.8104 24.1267C54.2522 23.9708 54.6939 23.8279 55.1226 23.607C55.4734 23.4251 55.6813 23.1393 55.7463 22.7365C55.8372 22.2038 55.8502 21.6842 55.7723 21.1515C55.7333 20.9306 55.7463 20.7097 55.7593 20.4889C55.7723 20.3589 55.7593 20.203 55.9282 20.1641C56.0971 20.1251 56.162 20.268 56.24 20.3719C56.3569 20.5408 56.4479 20.7357 56.5388 20.9306C56.6168 21.0865 56.6947 21.2424 56.7987 21.3723C56.8766 21.4763 56.9676 21.5672 57.1105 21.5282C57.2404 21.4893 57.2924 21.3723 57.3313 21.2554C57.3703 21.1255 57.3313 21.0086 57.3183 20.8916C57.2404 20.307 57.4743 19.7223 58.0589 19.5664C58.3058 19.5015 58.3317 19.3455 58.2148 19.1377C58.0199 18.7609 57.7731 18.4231 57.5392 18.0723C57.4223 17.8904 57.2924 17.6955 57.2144 17.4876C57.1494 17.3187 57.1235 17.1498 57.2534 16.9939C57.3833 16.838 57.5522 16.812 57.7211 16.89C57.929 16.9809 57.7601 16.7991 57.8121 16.7731C58.0199 16.825 58.1369 16.9809 58.2538 17.1498C58.2798 17.3317 58.3967 17.4227 58.5526 17.4487Z" fill="#9A9B9E"/>
<path d="M57.8118 16.786C57.8508 16.8509 57.9287 16.9289 57.9157 16.9679C57.8898 17.0588 57.7858 17.0068 57.7209 16.9809C57.552 16.9289 57.396 16.9159 57.2791 17.0588C57.1492 17.2277 57.2401 17.4096 57.3181 17.5395C57.6039 18.0332 57.9287 18.501 58.2146 18.9817C58.4874 19.4364 58.4744 19.4884 57.9677 19.6703C57.5909 19.8132 57.3701 20.138 57.3571 20.5927C57.3571 20.7616 57.409 20.9305 57.409 21.0994C57.409 21.3333 57.3571 21.5671 57.1102 21.6451C56.8764 21.723 56.7464 21.5541 56.6425 21.3723C56.4866 21.0864 56.3307 20.7746 56.1618 20.4888C56.0968 20.3718 56.0449 20.164 55.876 20.2029C55.733 20.2419 55.785 20.4368 55.798 20.5667C55.811 20.9305 55.837 21.3073 55.863 21.6711C55.8889 22.0479 55.85 22.4116 55.798 22.7754C55.746 23.1522 55.5511 23.425 55.2004 23.6199C54.7196 23.8928 54.2129 24.0617 53.6932 24.2176C53.4984 24.2825 53.4464 24.3475 53.5893 24.5164C53.9401 24.9321 54.0051 25.4518 54.07 25.9715C54.096 26.2314 53.9661 26.3613 53.7192 26.3873C53.1216 26.4522 52.433 26.0755 52.1732 25.5298C51.8873 24.9581 51.6535 24.3605 51.2767 23.8278C50.8349 23.1912 50.3282 23.1652 49.8345 23.7628C49.4708 24.2046 49.1589 24.6723 48.7302 25.0491C48.1326 25.5688 47.6908 25.4518 47.5089 24.6723C47.431 24.3085 47.34 23.9317 47.366 23.5809C47.431 22.8534 47.1062 22.3467 46.6125 21.9049C46.0538 21.3982 45.4431 20.9565 44.7026 20.7356C44.5727 20.6967 44.4427 20.6577 44.3128 20.7486C44.2868 20.7746 44.2608 20.7746 44.2349 20.7486C44.2998 20.3459 44.4557 19.9821 44.6766 19.6443C44.7416 19.4624 44.8455 19.3065 44.8975 19.1246C45.3002 18.371 45.8069 17.6954 46.4306 17.0848C47.2361 16.2793 48.1845 15.6946 49.2109 15.2399C50.2373 14.8371 51.3157 14.6293 52.42 14.6033C54.4988 14.6682 56.2787 15.4218 57.8118 16.786Z" fill="#FFF1A4"/>
<path d="M11.0007 11.0824C11.0007 13.3561 11.0007 15.6297 11.0136 17.9034C11.0136 18.2022 10.9227 18.2802 10.6369 18.2672C9.70142 18.2542 8.75299 18.2412 7.81754 18.2672C7.50573 18.2802 7.45376 18.1632 7.45376 17.8904C7.46675 13.3821 7.45376 8.86077 7.45376 4.35244C7.45376 3.76779 7.53171 3.83275 6.90808 3.83275C5.50491 3.83275 4.11474 3.81976 2.71157 3.84574C2.3348 3.84574 2.34779 3.74181 2.46472 3.45598C2.8415 2.59848 3.20528 1.75399 3.55607 0.896495C3.63403 0.701611 3.73796 0.623657 3.95883 0.623657C7.96046 0.63665 11.9751 0.63665 15.9767 0.623657C16.2365 0.623657 16.3015 0.675626 16.1846 0.935472C15.8078 1.80596 15.431 2.67644 15.0802 3.55991C14.9893 3.78078 14.8594 3.84574 14.6385 3.83275C13.5341 3.81976 12.4428 3.83275 11.3385 3.81976C11.0656 3.81976 10.9877 3.89771 10.9877 4.17055C11.0007 6.48318 11.0007 8.78281 11.0007 11.0824Z" fill="#2A9AD6"/>
<path d="M15.7038 27.5436C15.6908 30.0252 13.69 32 11.2085 31.987C8.76591 31.974 6.77809 29.9472 6.79108 27.4917C6.80407 25.0491 8.79189 23.0743 11.2344 23.0743C13.716 23.0613 15.7168 25.0621 15.7038 27.5436Z" fill="#E9262A"/>
<path d="M39.7528 27.5176C39.7528 29.9862 37.778 31.987 35.3224 31.987C32.9578 31.987 30.8661 30.1681 30.8531 27.5176C30.8401 25.0491 32.8669 23.0613 35.3224 23.0743C37.778 23.0873 39.7398 25.0491 39.7528 27.5176Z" fill="#63A745"/>
<path d="M27.7219 27.5047C27.7348 29.9732 25.76 31.974 23.3045 31.987C20.8359 32 18.7962 29.9732 18.8091 27.5306C18.8221 25.0621 20.797 23.0873 23.2655 23.0743C25.734 23.0613 27.7089 25.0361 27.7219 27.5047Z" fill="#2A9AD6"/>
<path d="M44.2482 20.8007C44.2742 20.8007 44.3002 20.8007 44.3262 20.8007C44.1313 21.2814 44.1313 21.2684 44.612 21.4243C44.8329 21.4892 45.0927 21.5412 45.1317 21.827C45.1837 22.1129 44.9888 22.2818 44.7809 22.4377C44.5081 22.6326 44.2093 22.7625 43.8715 22.8145C43.7026 22.5806 43.8585 22.3337 43.8844 22.0999C43.9234 21.6452 44.0274 21.2034 44.2482 20.8007Z" fill="#FFF1A4"/>
<path d="M68.0293 26.1145C68.0878 26.0495 68.0501 25.9456 68.0631 25.8417C68.154 26.0366 68.115 26.2574 68.0761 26.4783C68.0501 26.3484 68.0501 26.1795 68.0293 26.1145Z" fill="#2A9AD6"/>
<path d="M58.5527 17.4487C58.2929 17.5266 58.2539 17.3577 58.2539 17.1628C58.3578 17.2668 58.4488 17.3577 58.5527 17.4487Z" fill="#FFF1A4"/>
<path d="M44.9105 19.1636C44.9235 19.3715 44.8196 19.5274 44.6897 19.6833C44.6507 19.4624 44.7936 19.3325 44.9105 19.1636Z" fill="#9A9B9E"/>
<path fill-rule="evenodd" clip-rule="evenodd" d="M49.224 15.2788L49.2241 15.2789C49.325 15.3462 49.4259 15.3167 49.5436 15.2823C49.5622 15.2768 49.5813 15.2713 49.6008 15.2659C50.2894 15.0191 51.004 14.8762 51.7186 14.7852C51.7851 14.7782 51.8534 14.7778 51.9222 14.7774C52.1086 14.7763 52.2978 14.7752 52.4591 14.6423L52.4571 14.6378C52.133 13.9118 51.8088 13.1856 51.4717 12.4336C51.5152 12.4257 51.5574 12.4166 51.5984 12.4078C51.6924 12.3875 51.7801 12.3687 51.8615 12.3687C53.1867 12.3037 54.5119 12.2777 55.7982 12.6285C60.7092 13.9667 64.3861 16.786 66.4648 21.5282C67.1274 23.0353 67.6341 24.5684 68.0369 26.1535C68.0759 26.1794 68.1748 26.1952 68.1408 26.0495C68.1068 25.9038 68.1019 25.8546 68.1019 25.8546C68.1019 25.8546 67.9849 24.5034 67.881 23.8278C67.2833 19.9172 65.6853 16.5392 62.5931 13.9407C60.8781 12.4986 59.0072 11.3682 56.8375 10.7576C54.8627 10.2119 52.8489 10.069 50.8221 10.147C50.4194 10.16 50.2764 10.017 50.1335 9.67925C49.3967 7.82893 48.6443 5.98378 47.8928 4.14053C47.4517 3.05873 47.0109 1.9776 46.5736 0.896465C46.4827 0.675596 46.4047 0.58465 46.1449 0.688588C45.6252 0.896465 45.1055 1.06536 44.5728 1.23426C44.3649 1.29923 44.261 1.42915 44.1701 1.62403C41.7795 7.13276 39.3759 12.6415 36.9723 18.1502C36.8034 18.54 36.7515 18.9168 36.7515 19.3325C36.7515 19.6054 36.8684 19.6573 37.1153 19.5924C38.1286 19.3325 39.142 19.0987 40.1684 18.8648C40.3633 18.8258 40.4932 18.7479 40.5322 18.527C40.6881 17.7085 41.1039 16.9939 41.6496 16.3833C43.3645 14.4604 45.6122 13.512 48.0288 12.8364C48.1847 12.7974 48.2496 12.8494 48.3016 12.9793C48.6004 13.7458 48.9122 14.5123 49.224 15.2788ZM46.7685 8.97766C46.3788 8.14616 45.989 7.31465 45.5602 6.3922C45.1186 7.44434 44.7159 8.39259 44.3133 9.34081L44.313 9.34145C43.9102 10.3029 43.5075 11.2643 43.0657 12.2907C43.7803 11.862 44.4689 11.5761 45.1575 11.3033C45.8461 11.0175 46.5477 10.7446 47.2752 10.5497C47.4831 10.4978 47.4311 10.3808 47.3662 10.2509C47.2687 10.0365 47.168 9.82541 47.0673 9.61429C46.9667 9.40316 46.866 9.19204 46.7685 8.97766Z" fill="#2A9AD6"/>
<path d="M54.3692 29.1807C54.0704 29.2066 53.7586 29.1807 53.4988 28.8948C53.161 28.518 53.2259 28.1413 53.7326 28.0633C54.3173 27.9724 54.824 27.7125 55.3697 27.5566C55.7724 27.4397 55.9153 27.5566 55.9023 27.9854C55.8634 28.648 55.4346 29.2326 54.3692 29.1807Z" fill="#FFF1A4"/>
<path d="M58.8514 20.1381C59.0722 20.6967 59.1372 21.1774 59.0463 21.6712C59.0203 21.8141 58.9423 21.931 58.7604 21.905C58.4616 21.879 58.0848 22.0479 57.9159 21.7101C57.747 21.3593 58.1108 21.2164 58.3317 21.0345C58.5785 20.8267 58.7085 20.5408 58.8514 20.1381Z" fill="#FFF1A4"/>
<path d="M51.186 27.0499C51.6018 27.1798 51.7187 27.5047 51.9396 27.7255C52.2774 28.0503 52.6412 28.3621 52.7191 28.8688C52.7321 28.9598 52.7711 29.0377 52.7581 29.1287C52.7451 29.2456 52.849 29.4405 52.6412 29.4535C52.4853 29.4665 52.3034 29.4405 52.2254 29.2196C52.0955 28.8429 51.9396 28.4531 51.7577 28.0893C51.6278 27.7385 51.3939 27.4527 51.186 27.0499Z" fill="#FFF1A4"/>
<path d="M51.8746 26.2444C51.9135 26.0885 51.8096 25.8676 51.9525 25.8156C52.1344 25.7637 52.1994 25.9845 52.2643 26.1145C52.5112 26.5822 52.7321 27.0629 52.7061 27.6086C52.7061 27.6865 52.7321 27.7905 52.6151 27.8294C52.5242 27.8554 52.4722 27.7775 52.4462 27.7125C52.2383 27.2318 51.8616 26.7901 51.8746 26.2444Z" fill="#FFF1A4"/>
<path d="M53.5247 29.5704C53.7066 29.6354 53.9275 29.6874 54.1223 29.8043C54.3822 29.9732 54.2782 30.1681 54.1613 30.324C54.0184 30.5319 53.9145 30.311 53.8105 30.233C53.6546 30.1291 53.5117 30.0122 53.3688 29.9082C53.2908 29.8433 53.1999 29.7783 53.2648 29.6614C53.3038 29.5704 53.3948 29.5574 53.5247 29.5704Z" fill="#FFF1A4"/>
</g>
<defs>
<clipPath id="clip0_9812_1669">
<rect width="65.715" height="32" fill="white" transform="translate(2.3999)"/>
</clipPath>
</defs>
</svg>
