<svg width="400" height="401" viewBox="0 0 400 401" fill="none" xmlns="http://www.w3.org/2000/svg">
<path d="M400 306.42H0V306.62H400V306.42Z" fill="#EBEBEB" style="fill:#EBEBEB;fill:color(display-p3 0.9216 0.9216 0.9216);fill-opacity:1;"/>
<path d="M89.328 313.132H62.832V313.332H89.328V313.132Z" fill="#EBEBEB" style="fill:#EBEBEB;fill:color(display-p3 0.9216 0.9216 0.9216);fill-opacity:1;"/>
<path d="M130.8 318.9H106.664V319.1H130.8V318.9Z" fill="#EBEBEB" style="fill:#EBEBEB;fill:color(display-p3 0.9216 0.9216 0.9216);fill-opacity:1;"/>
<path d="M76.0805 320.556H45.4805V320.756H76.0805V320.556Z" fill="#EBEBEB" style="fill:#EBEBEB;fill:color(display-p3 0.9216 0.9216 0.9216);fill-opacity:1;"/>
<path d="M359.919 320.124H347.199V320.324H359.919V320.124Z" fill="#EBEBEB" style="fill:#EBEBEB;fill:color(display-p3 0.9216 0.9216 0.9216);fill-opacity:1;"/>
<path d="M344.632 320.124H313.176V320.324H344.632V320.124Z" fill="#EBEBEB" style="fill:#EBEBEB;fill:color(display-p3 0.9216 0.9216 0.9216);fill-opacity:1;"/>
<path d="M224.264 313.028H200V313.228H224.264V313.028Z" fill="#EBEBEB" style="fill:#EBEBEB;fill:color(display-p3 0.9216 0.9216 0.9216);fill-opacity:1;"/>
<path d="M285.416 313.028H227.736V313.228H285.416V313.028Z" fill="#EBEBEB" style="fill:#EBEBEB;fill:color(display-p3 0.9216 0.9216 0.9216);fill-opacity:1;"/>
<path d="M189.6 270.74H35.1284C33.9182 270.738 32.7584 270.256 31.9035 269.399C31.0485 268.543 30.5684 267.382 30.5684 266.172V49.028C30.5789 47.8248 31.0637 46.6744 31.9175 45.8266C32.7713 44.9788 33.9251 44.5021 35.1284 44.5H189.6C190.812 44.5 191.974 44.9813 192.83 45.8379C193.687 46.6946 194.168 47.8565 194.168 49.068V266.172C194.168 267.384 193.687 268.545 192.83 269.402C191.974 270.259 190.812 270.74 189.6 270.74ZM35.1284 44.66C33.9713 44.6621 32.8623 45.1233 32.0449 45.9422C31.2275 46.7611 30.7684 47.8709 30.7684 49.028V266.172C30.7684 267.329 31.2275 268.439 32.0449 269.258C32.8623 270.077 33.9713 270.538 35.1284 270.54H189.6C190.758 270.538 191.868 270.077 192.687 269.258C193.505 268.44 193.966 267.33 193.968 266.172V49.028C193.966 47.8702 193.505 46.7604 192.687 45.9417C191.868 45.123 190.758 44.6621 189.6 44.66H35.1284Z" fill="#EBEBEB" style="fill:#EBEBEB;fill:color(display-p3 0.9216 0.9216 0.9216);fill-opacity:1;"/>
<path d="M362.648 270.74H208.168C206.957 270.738 205.796 270.256 204.94 269.4C204.084 268.544 203.602 267.383 203.6 266.172V49.028C203.612 47.8241 204.099 46.6737 204.954 45.8261C205.809 44.9785 206.964 44.502 208.168 44.5H362.648C363.849 44.5042 365.001 44.9818 365.853 45.8294C366.705 46.677 367.189 47.8262 367.2 49.028V266.172C367.2 267.381 366.721 268.54 365.867 269.396C365.014 270.253 363.856 270.736 362.648 270.74ZM208.168 44.66C207.01 44.6621 205.9 45.123 205.081 45.9417C204.263 46.7604 203.802 47.8702 203.8 49.028V266.172C203.802 267.33 204.263 268.44 205.081 269.258C205.9 270.077 207.01 270.538 208.168 270.54H362.648C363.805 270.538 364.915 270.077 365.734 269.258C366.553 268.44 367.013 267.33 367.016 266.172V49.028C367.013 47.8702 366.553 46.7604 365.734 45.9417C364.915 45.123 363.805 44.6621 362.648 44.66H208.168Z" fill="#EBEBEB" style="fill:#EBEBEB;fill:color(display-p3 0.9216 0.9216 0.9216);fill-opacity:1;"/>
<path d="M343.422 189.388L331.164 177.129L218.214 290.08L230.472 302.338L343.422 189.388Z" fill="#EBEBEB" style="fill:#EBEBEB;fill:color(display-p3 0.9216 0.9216 0.9216);fill-opacity:1;"/>
<path d="M289.544 243.26L277.288 230.996L260.576 247.708L271.816 265.636L289.544 243.26Z" fill="#E0E0E0" style="fill:#E0E0E0;fill:color(display-p3 0.8784 0.8784 0.8784);fill-opacity:1;"/>
<path d="M230.47 302.338L234.555 306.422L347.505 193.471L343.421 189.387L230.47 302.338Z" fill="#E0E0E0" style="fill:#E0E0E0;fill:color(display-p3 0.8784 0.8784 0.8784);fill-opacity:1;"/>
<path d="M230.473 181.208L218.215 193.467L331.165 306.417L343.424 294.159L230.473 181.208Z" fill="#EBEBEB" style="fill:#EBEBEB;fill:color(display-p3 0.9216 0.9216 0.9216);fill-opacity:1;"/>
<path d="M343.424 294.16L347.508 290.076L234.557 177.126L230.473 181.21L343.424 294.16Z" fill="#E0E0E0" style="fill:#E0E0E0;fill:color(display-p3 0.8784 0.8784 0.8784);fill-opacity:1;"/>
<path d="M140.961 215.339L131.418 205.796L43.5105 293.703L53.0536 303.247L140.961 215.339Z" fill="#EBEBEB" style="fill:#EBEBEB;fill:color(display-p3 0.9216 0.9216 0.9216);fill-opacity:1;"/>
<path d="M99.0245 257.26L89.4805 247.724L76.4805 260.732L85.2245 274.676L99.0245 257.26Z" fill="#E0E0E0" style="fill:#E0E0E0;fill:color(display-p3 0.8784 0.8784 0.8784);fill-opacity:1;"/>
<path d="M53.0474 303.244L56.2266 306.423L144.134 218.515L140.955 215.336L53.0474 303.244Z" fill="#E0E0E0" style="fill:#E0E0E0;fill:color(display-p3 0.8784 0.8784 0.8784);fill-opacity:1;"/>
<path d="M53.0587 208.974L43.5156 218.517L131.423 306.425L140.966 296.881L53.0587 208.974Z" fill="#EBEBEB" style="fill:#EBEBEB;fill:color(display-p3 0.9216 0.9216 0.9216);fill-opacity:1;"/>
<path d="M140.95 296.876L144.129 293.697L56.2214 205.789L53.0423 208.968L140.95 296.876Z" fill="#E0E0E0" style="fill:#E0E0E0;fill:color(display-p3 0.8784 0.8784 0.8784);fill-opacity:1;"/>
<path d="M255.096 220.588H241.008V306.412H255.096V220.588Z" fill="#F5F5F5" style="fill:#F5F5F5;fill:color(display-p3 0.9608 0.9608 0.9608);fill-opacity:1;"/>
<path d="M255.096 256.252H241.008V266.548L255.096 263.508V256.252Z" fill="#EBEBEB" style="fill:#EBEBEB;fill:color(display-p3 0.9216 0.9216 0.9216);fill-opacity:1;"/>
<path d="M255.087 306.42H259.783V220.596H255.087V306.42Z" fill="#EBEBEB" style="fill:#EBEBEB;fill:color(display-p3 0.9216 0.9216 0.9216);fill-opacity:1;"/>
<path d="M107.52 220.588H93.4316V306.412H107.52V220.588Z" fill="#F5F5F5" style="fill:#F5F5F5;fill:color(display-p3 0.9608 0.9608 0.9608);fill-opacity:1;"/>
<path d="M107.512 256.252H93.4316V266.548L107.512 263.508V256.252Z" fill="#EBEBEB" style="fill:#EBEBEB;fill:color(display-p3 0.9216 0.9216 0.9216);fill-opacity:1;"/>
<path d="M107.511 306.42H112.207L112.207 220.596H107.511L107.511 306.42Z" fill="#EBEBEB" style="fill:#EBEBEB;fill:color(display-p3 0.9216 0.9216 0.9216);fill-opacity:1;"/>
<path d="M262.487 233.172H82.6875V259.588H262.487V233.172Z" fill="#F5F5F5" style="fill:#F5F5F5;fill:color(display-p3 0.9608 0.9608 0.9608);fill-opacity:1;"/>
<path d="M262.489 259.58H265.129V233.164H262.489V259.58Z" fill="#EBEBEB" style="fill:#EBEBEB;fill:color(display-p3 0.9216 0.9216 0.9216);fill-opacity:1;"/>
<path d="M194.184 206.236H159.032L134.176 231.092V266.244L159.032 291.1H194.184L219.04 266.244V231.092L194.184 206.236Z" fill="#FAFAFA" style="fill:#FAFAFA;fill:color(display-p3 0.9804 0.9804 0.9804);fill-opacity:1;"/>
<path d="M192.577 210.116H160.641L138.057 232.7V264.636L160.641 287.22H192.577L215.161 264.636V232.7L192.577 210.116Z" fill="#E0E0E0" style="fill:#E0E0E0;fill:color(display-p3 0.8784 0.8784 0.8784);fill-opacity:1;"/>
<path d="M145.752 252.356L150.248 251.956C150.285 252.787 150.486 253.603 150.84 254.356C151.025 254.753 151.32 255.088 151.691 255.322C152.061 255.556 152.49 255.679 152.928 255.676C153.229 255.7 153.531 255.652 153.81 255.535C154.088 255.418 154.334 255.236 154.528 255.004C154.9 254.556 155.096 253.987 155.08 253.404C155.084 252.852 154.898 252.315 154.552 251.884C153.878 251.258 153.05 250.822 152.152 250.62C150.45 250.189 148.91 249.272 147.72 247.98C146.79 246.78 146.316 245.289 146.384 243.772C146.373 242.668 146.605 241.576 147.064 240.572C147.5 239.603 148.216 238.787 149.12 238.228C150.269 237.597 151.571 237.301 152.88 237.372C153.691 237.316 154.506 237.425 155.274 237.692C156.043 237.958 156.749 238.378 157.352 238.924C158.376 239.956 158.952 241.604 159.184 243.86L154.728 244.236C154.686 243.466 154.428 242.723 153.984 242.092C153.785 241.867 153.538 241.69 153.261 241.575C152.983 241.46 152.684 241.41 152.384 241.428C152.153 241.413 151.922 241.449 151.708 241.535C151.493 241.621 151.3 241.754 151.144 241.924C150.864 242.263 150.716 242.692 150.728 243.132C150.724 243.476 150.846 243.809 151.072 244.068C151.521 244.478 152.075 244.755 152.672 244.868C154.242 245.275 155.74 245.923 157.112 246.788C157.972 247.393 158.647 248.223 159.064 249.188C159.48 250.203 159.687 251.291 159.672 252.388C159.691 253.717 159.418 255.033 158.872 256.244C158.395 257.346 157.601 258.282 156.592 258.932C155.476 259.578 154.2 259.894 152.912 259.844C150.315 259.844 148.515 259.129 147.512 257.7C146.438 256.118 145.828 254.267 145.752 252.356Z" fill="white" style="fill:white;fill-opacity:1;"/>
<path d="M160.936 237.78H175.336V243.164H170.536V259.556H165.808V243.164H161.008L160.936 237.78Z" fill="white" style="fill:white;fill-opacity:1;"/>
<path d="M176.112 248.684C176.112 245.132 176.808 242.364 178.2 240.38C178.874 239.464 179.752 238.718 180.766 238.203C181.779 237.687 182.899 237.417 184.036 237.412C185.173 237.407 186.295 237.669 187.313 238.176C188.331 238.683 189.215 239.422 189.896 240.332C191.299 242.279 192 245.001 192 248.5C192.067 250.625 191.761 252.745 191.096 254.764C190.597 256.249 189.694 257.565 188.488 258.564C187.273 259.496 185.771 259.977 184.24 259.924C182.726 259.985 181.231 259.574 179.96 258.748C178.703 257.803 177.747 256.514 177.208 255.036C176.433 253.01 176.061 250.853 176.112 248.684ZM180.84 248.684C180.84 250.887 181.128 252.465 181.704 253.42C181.928 253.849 182.265 254.209 182.679 254.46C183.093 254.711 183.568 254.844 184.052 254.844C184.536 254.844 185.011 254.711 185.425 254.46C185.839 254.209 186.176 253.849 186.4 253.42C186.96 252.476 187.2 250.788 187.2 248.356C187.307 246.808 187.009 245.259 186.336 243.86C186.104 243.427 185.758 243.065 185.335 242.816C184.911 242.566 184.428 242.437 183.936 242.444C183.458 242.45 182.991 242.587 182.586 242.841C182.181 243.095 181.853 243.456 181.64 243.884C181.107 244.887 180.84 246.497 180.84 248.716V248.684Z" fill="white" style="fill:white;fill-opacity:1;"/>
<path d="M194.487 237.78H202.343C203.079 237.731 203.815 237.865 204.486 238.169C205.157 238.473 205.743 238.939 206.191 239.524C207.128 240.996 207.573 242.727 207.463 244.468C207.571 246.291 207.082 248.1 206.071 249.62C205.568 250.252 204.918 250.751 204.177 251.075C203.437 251.398 202.629 251.536 201.823 251.476H199.199V259.556H194.455L194.487 237.78ZM199.199 247.068H200.359C200.71 247.107 201.064 247.065 201.397 246.948C201.729 246.83 202.031 246.639 202.279 246.388C202.662 245.896 202.858 245.283 202.831 244.66C202.87 244.043 202.719 243.429 202.399 242.9C202.183 242.639 201.905 242.437 201.591 242.313C201.276 242.188 200.935 242.145 200.599 242.188H199.199V247.068Z" fill="white" style="fill:white;fill-opacity:1;"/>
<path d="M329.08 82.7C328.244 82.7037 327.412 82.803 326.6 82.996C325.544 80.596 323.2 79.1 320.04 79.1C317.62 79.1592 315.271 79.9239 313.28 81.3C311.936 76.788 307.912 73.772 302.296 73.772C294.296 73.772 285.936 79.884 282.912 87.692C282.172 87.5186 281.415 87.4327 280.656 87.436H279.904C273.016 87.9 273.504 98.3 280.44 98.3H329.6C330.451 98.3028 331.29 98.1051 332.05 97.7229C332.811 97.3407 333.47 96.7847 333.976 96.1C334.824 94.9482 335.471 93.6605 335.888 92.292C337.408 86.996 334.4 82.7 329.08 82.7Z" fill="#F0F0F0" style="fill:#F0F0F0;fill:color(display-p3 0.9412 0.9412 0.9412);fill-opacity:1;"/>
<path d="M137.088 36.6041C136.016 29.5001 130.352 24.5481 122.072 24.5481C115.288 24.5481 108.296 27.8681 103.088 32.9801C101.568 31.6629 99.6092 30.966 97.5995 31.0281C91.8555 31.0281 85.8315 35.6841 84.1355 41.4281C83.8839 42.2759 83.7414 43.1523 83.7115 44.0361L83.5915 44.1161C78.8395 47.3161 81.1915 54.8281 86.9835 54.8281H137.6C138.565 54.8359 139.518 54.6021 140.37 54.148C141.222 53.6939 141.947 53.0339 142.48 52.2281C143.27 51.0214 143.882 49.7063 144.296 48.3241C146.064 42.2121 142.888 37.1801 137.088 36.6041Z" fill="#F0F0F0" style="fill:#F0F0F0;fill:color(display-p3 0.9412 0.9412 0.9412);fill-opacity:1;"/>
<path d="M197.504 115.94C196.032 106.172 188.248 99.364 176.864 99.364C167.528 99.364 157.92 103.932 150.768 110.956C148.686 109.14 145.994 108.18 143.232 108.268C135.344 108.268 127.048 114.668 124.72 122.564C124.374 123.729 124.178 124.933 124.136 126.148L123.976 126.252C117.424 130.708 120.672 140.98 128.592 140.98H195.2C197.901 140.999 200.537 140.149 202.718 138.556C204.898 136.963 206.509 134.711 207.312 132.132V132.036C209.856 123.644 205.48 116.724 197.504 115.94Z" fill="#F5F5F5" style="fill:#F5F5F5;fill:color(display-p3 0.9608 0.9608 0.9608);fill-opacity:1;"/>
<path d="M200.001 342.548C285.667 342.548 355.113 338.494 355.113 333.492C355.113 328.491 285.667 324.436 200.001 324.436C114.335 324.436 44.8887 328.491 44.8887 333.492C44.8887 338.494 114.335 342.548 200.001 342.548Z" fill="#F5F5F5" style="fill:#F5F5F5;fill:color(display-p3 0.9608 0.9608 0.9608);fill-opacity:1;"/>
<path d="M249.456 139.052C249.104 139.684 248.832 140.14 248.52 140.652C248.208 141.164 247.896 141.644 247.584 142.14C246.952 143.116 246.28 144.06 245.6 145.004C244.228 146.897 242.757 148.715 241.192 150.452C239.599 152.234 237.886 153.904 236.064 155.452C234.171 157.093 232.115 158.535 229.928 159.756C229.24 160.158 228.52 160.503 227.776 160.788C226.998 161.085 226.195 161.31 225.376 161.46C223.916 161.713 222.43 161.783 220.952 161.668C218.395 161.445 215.883 160.863 213.488 159.94C211.278 159.097 209.138 158.081 207.088 156.9C205.074 155.75 203.148 154.45 201.328 153.012C200.813 152.594 200.463 152.006 200.341 151.354C200.219 150.702 200.332 150.028 200.66 149.452C200.989 148.875 201.511 148.434 202.135 148.207C202.758 147.98 203.442 147.982 204.064 148.212L204.208 148.268C207.975 149.774 211.864 150.954 215.832 151.796C217.581 152.161 219.368 152.308 221.152 152.236C221.849 152.206 222.538 152.079 223.2 151.86C223.447 151.779 223.686 151.675 223.912 151.548C224.136 151.42 224.176 151.38 224.632 151.068C227.694 148.817 230.441 146.167 232.8 143.188C234.056 141.652 235.28 140.06 236.44 138.388C237.032 137.588 237.592 136.732 238.16 135.9L238.96 134.652L239.712 133.476L239.84 133.276C240.632 132.065 241.862 131.208 243.273 130.884C244.683 130.559 246.164 130.794 247.405 131.537C248.646 132.281 249.552 133.477 249.931 134.873C250.31 136.269 250.134 137.758 249.44 139.028L249.456 139.052Z" fill="#FF8B7B" style="fill:#FF8B7B;fill:color(display-p3 1.0000 0.5451 0.4824);fill-opacity:1;"/>
<path d="M205.392 148.868L199.256 144.804L196.656 152.964C197.886 153.612 199.267 153.917 200.655 153.847C202.043 153.776 203.387 153.333 204.544 152.564L205.392 148.868Z" fill="#FF8B7B" style="fill:#FF8B7B;fill:color(display-p3 1.0000 0.5451 0.4824);fill-opacity:1;"/>
<path d="M193.601 146.028L193.121 148.628C193.034 149.089 193.08 149.565 193.252 150.001C193.425 150.438 193.718 150.816 194.097 151.092L196.633 152.964L199.233 144.804L196.769 144.084C196.433 143.985 196.08 143.958 195.733 144.004C195.386 144.05 195.052 144.169 194.753 144.352C194.455 144.535 194.198 144.779 193.999 145.068C193.801 145.357 193.665 145.684 193.601 146.028Z" fill="#FF8B7B" style="fill:#FF8B7B;fill:color(display-p3 1.0000 0.5451 0.4824);fill-opacity:1;"/>
<path d="M249.649 126.052C243.401 127.036 237.081 134.372 233.281 141.212C235.776 145.562 239.558 149.033 244.105 151.148C244.105 151.148 251.513 144.14 254.505 138.956C257.497 133.772 255.529 125.116 249.649 126.052Z" fill="#007EF5" style="fill:#007EF5;fill:color(display-p3 0.0000 0.4941 0.9608);fill-opacity:1;"/>
<path opacity="0.2" d="M249.649 126.052C243.401 127.036 237.081 134.372 233.281 141.212C235.776 145.562 239.558 149.033 244.105 151.148C244.105 151.148 251.513 144.14 254.505 138.956C257.497 133.772 255.529 125.116 249.649 126.052Z" fill="black" style="fill:black;fill-opacity:1;"/>
<path d="M233.52 139.644C232.941 140.3 232.488 141.056 232.184 141.876C233.744 144.276 237.448 150.676 244.36 152.036C245.031 151.661 245.546 151.056 245.808 150.332C245.808 150.332 237.856 146.412 233.52 139.644Z" fill="#263238" style="fill:#263238;fill:color(display-p3 0.1490 0.1961 0.2196);fill-opacity:1;"/>
<path d="M274.824 125.836C267.272 124.572 259.581 124.351 251.968 125.18C246.288 125.908 242.048 131.132 242.088 136.852C242.117 142.82 242.652 148.775 243.688 154.652C241.6 165.652 240.848 180.604 243.048 183.9L282.4 184.452C284.088 179.748 281.968 159.388 284.216 138.132C284.521 135.27 283.717 132.4 281.97 130.113C280.223 127.825 277.666 126.295 274.824 125.836Z" fill="#007EF5" style="fill:#007EF5;fill:color(display-p3 0.0000 0.4941 0.9608);fill-opacity:1;"/>
<path opacity="0.2" d="M260.001 183.948C257.753 166.244 260.001 136.636 260.001 136.332L260.801 136.396C260.801 136.692 258.569 166.22 260.801 183.844L260.001 183.948Z" fill="black" style="fill:black;fill-opacity:1;"/>
<path d="M255.721 125.732C257.073 125.228 256.569 124.476 256.569 124.476C256.569 124.476 250.425 124.476 246.169 125.62C245.521 126.308 246.217 127.22 246.217 127.22C246.217 127.22 251.697 127.236 255.721 125.732Z" fill="#263238" style="fill:#263238;fill:color(display-p3 0.1490 0.1961 0.2196);fill-opacity:1;"/>
<path opacity="0.2" d="M258.233 124.5C258.233 124.5 255.697 129.188 259.089 133.452C256.401 133.452 254.665 138.036 254.665 138.036C254.665 138.036 249.417 130.74 256.129 124.908C256.505 124.324 258.233 124.5 258.233 124.5Z" fill="black" style="fill:black;fill-opacity:1;"/>
<path d="M255.521 126.772C254.865 129.636 260.633 135.036 260.633 135.036C260.633 135.036 270.833 130.108 271.481 127.284L255.521 126.772Z" fill="white" style="fill:white;fill-opacity:1;"/>
<path opacity="0.2" d="M278.545 143.532C277.457 145.628 278.905 154.732 283.105 158.58C283.153 154.82 283.265 150.828 283.505 146.724L278.545 143.532Z" fill="black" style="fill:black;fill-opacity:1;"/>
<path d="M269.352 110.3L258.824 117.212C260.072 120.268 260.656 123.452 257.056 124.924C256.593 125.11 256.197 125.43 255.918 125.842C255.639 126.255 255.49 126.742 255.49 127.24C255.49 127.738 255.639 128.225 255.918 128.638C256.197 129.05 256.593 129.37 257.056 129.556C258.116 129.942 259.226 130.176 260.352 130.252C263.736 130.58 267.147 130.029 270.256 128.652C270.583 128.488 270.871 128.256 271.099 127.969C271.327 127.683 271.491 127.351 271.577 126.995C271.664 126.64 271.672 126.27 271.602 125.911C271.531 125.551 271.383 125.212 271.168 124.916C268.408 121.012 268.744 114.228 269.352 110.3Z" fill="#FF8B7B" style="fill:#FF8B7B;fill:color(display-p3 1.0000 0.5451 0.4824);fill-opacity:1;"/>
<path opacity="0.2" d="M265.064 113.116L258.832 117.204C259.182 118.04 259.45 118.908 259.632 119.796C262.12 119.652 265.368 117.684 265.432 115.628C265.494 114.774 265.368 113.917 265.064 113.116Z" fill="black" style="fill:black;fill-opacity:1;"/>
<path d="M257.664 97.1162C260.344 97.0602 261.072 100.908 260.064 102.212C262.096 102.652 263.08 105.028 262.464 106.212C261.848 107.396 259.496 108.732 257.4 108.204C253.808 107.308 253.192 104.324 254.2 102.964C252.28 101.38 253.256 96.5002 257.664 97.1162Z" fill="#263238" style="fill:#263238;fill:color(display-p3 0.1490 0.1961 0.2196);fill-opacity:1;"/>
<path opacity="0.2" d="M257.664 97.1162C260.344 97.0602 261.072 100.908 260.064 102.212C262.096 102.652 263.08 105.028 262.464 106.212C261.848 107.396 259.496 108.732 257.4 108.204C253.808 107.308 253.192 104.324 254.2 102.964C252.28 101.38 253.256 96.5002 257.664 97.1162Z" fill="white" style="fill:white;fill-opacity:1;"/>
<path d="M272.801 103.46C272.001 109.772 271.849 113.508 268.433 116.532C263.289 121.068 255.633 117.58 254.545 111.132C253.553 105.332 255.033 95.9801 261.409 93.9161C262.822 93.4665 264.325 93.3811 265.78 93.6679C267.234 93.9546 268.593 94.6041 269.729 95.5561C270.865 96.5082 271.743 97.7319 272.28 99.1137C272.817 100.495 272.996 101.991 272.801 103.46Z" fill="#FF8B7B" style="fill:#FF8B7B;fill:color(display-p3 1.0000 0.5451 0.4824);fill-opacity:1;"/>
<path d="M272.04 108.284C269.36 108.284 268.768 104.38 269.792 103.116C267.776 102.596 266.88 100.188 267.504 99.004C268.128 97.82 270.552 96.604 272.632 97.188C276.192 98.212 276.712 101.188 275.68 102.54C277.6 104.22 276.424 109.036 272.04 108.284Z" fill="#263238" style="fill:#263238;fill:color(display-p3 0.1490 0.1961 0.2196);fill-opacity:1;"/>
<path opacity="0.2" d="M272.04 108.284C269.36 108.284 268.768 104.38 269.792 103.116C267.776 102.596 266.88 100.188 267.504 99.004C268.128 97.82 270.552 96.604 272.632 97.188C276.192 98.212 276.712 101.188 275.68 102.54C277.6 104.22 276.424 109.036 272.04 108.284Z" fill="white" style="fill:white;fill-opacity:1;"/>
<path opacity="0.2" d="M265.6 104.5C265.921 104.413 266.257 104.39 266.588 104.432C266.919 104.475 267.238 104.582 267.528 104.748C266.875 104.79 266.22 104.706 265.6 104.5Z" fill="black" style="fill:black;fill-opacity:1;"/>
<path opacity="0.2" d="M265.6 104.932C265.904 104.915 266.209 104.965 266.492 105.078C266.776 105.191 267.031 105.365 267.24 105.588C266.653 105.487 266.094 105.263 265.6 104.932Z" fill="black" style="fill:black;fill-opacity:1;"/>
<path opacity="0.2" d="M255.577 104.012C255.504 103.969 255.422 103.94 255.337 103.929C255.253 103.918 255.166 103.925 255.084 103.948C255.002 103.971 254.925 104.011 254.859 104.064C254.792 104.118 254.737 104.185 254.697 104.26C255.012 104.297 255.328 104.208 255.577 104.012Z" fill="black" style="fill:black;fill-opacity:1;"/>
<path opacity="0.2" d="M255.584 104.5C255.584 104.5 255.096 104.428 254.84 105.156C255.146 105.014 255.404 104.786 255.584 104.5Z" fill="black" style="fill:black;fill-opacity:1;"/>
<path d="M274.704 109.892C273.97 111.212 272.765 112.207 271.328 112.676C269.504 113.204 268.776 111.38 269.432 109.476C270.032 107.772 271.688 105.436 273.432 105.748C275.176 106.06 275.664 108.204 274.704 109.892Z" fill="#FF8B7B" style="fill:#FF8B7B;fill:color(display-p3 1.0000 0.5451 0.4824);fill-opacity:1;"/>
<path d="M264.32 104.5C264.32 105.012 263.992 105.412 263.648 105.388C263.304 105.364 263.064 104.924 263.104 104.404C263.144 103.884 263.432 103.492 263.776 103.516C264.12 103.54 264.36 103.996 264.32 104.5Z" fill="#263238" style="fill:#263238;fill:color(display-p3 0.1490 0.1961 0.2196);fill-opacity:1;"/>
<path d="M261.761 113.9C261.105 114.028 260.505 113.772 260.425 113.34C260.345 112.908 260.825 112.46 261.481 112.332C262.137 112.204 262.737 112.46 262.817 112.892C262.897 113.324 262.401 113.78 261.761 113.9Z" fill="#263238" style="fill:#263238;fill:color(display-p3 0.1490 0.1961 0.2196);fill-opacity:1;"/>
<path d="M257.32 103.948C257.32 104.46 256.984 104.86 256.648 104.836C256.312 104.812 256.056 104.372 256.096 103.852C256.136 103.332 256.432 102.94 256.768 102.964C257.104 102.988 257.352 103.428 257.32 103.948Z" fill="#263238" style="fill:#263238;fill:color(display-p3 0.1490 0.1961 0.2196);fill-opacity:1;"/>
<path d="M258.913 109.1C255.169 109.356 254.449 111.18 255.105 111.98C255.761 112.78 257.361 111.98 257.361 111.98C257.361 111.98 260.393 112.628 261.281 111.66C262.713 112.268 264.897 111.132 264.281 110.268C263.665 109.404 262.121 108.876 258.913 109.1Z" fill="#263238" style="fill:#263238;fill:color(display-p3 0.1490 0.1961 0.2196);fill-opacity:1;"/>
<path opacity="0.2" d="M258.913 109.1C255.169 109.356 254.449 111.18 255.105 111.98C255.761 112.78 257.361 111.98 257.361 111.98C257.361 111.98 260.393 112.628 261.281 111.66C262.713 112.268 264.897 111.132 264.281 110.268C263.665 109.404 262.121 108.876 258.913 109.1Z" fill="white" style="fill:white;fill-opacity:1;"/>
<path d="M259.024 104.5C258.304 106.032 257.375 107.456 256.264 108.732C256.599 109.01 256.991 109.212 257.413 109.324C257.834 109.435 258.274 109.455 258.704 109.38L259.024 104.5Z" fill="#FF5652" style="fill:#FF5652;fill:color(display-p3 1.0000 0.3373 0.3216);fill-opacity:1;"/>
<path d="M265.449 101.812C265.499 101.806 265.548 101.789 265.593 101.764C265.626 101.742 265.656 101.714 265.678 101.68C265.701 101.647 265.717 101.61 265.725 101.57C265.733 101.531 265.734 101.49 265.726 101.451C265.718 101.411 265.703 101.373 265.681 101.34C265.425 100.926 265.074 100.579 264.656 100.33C264.238 100.081 263.766 99.936 263.281 99.908C263.2 99.908 263.123 99.94 263.066 99.997C263.009 100.054 262.977 100.131 262.977 100.212C262.977 100.293 263.009 100.37 263.066 100.427C263.123 100.484 263.2 100.516 263.281 100.516C263.663 100.544 264.034 100.663 264.361 100.863C264.688 101.064 264.962 101.34 265.161 101.668C265.19 101.717 265.233 101.756 265.284 101.781C265.335 101.807 265.392 101.817 265.449 101.812Z" fill="#263238" style="fill:#263238;fill:color(display-p3 0.1490 0.1961 0.2196);fill-opacity:1;"/>
<path d="M255.025 101.212C255.076 101.211 255.125 101.198 255.17 101.175C255.214 101.151 255.252 101.117 255.281 101.076C255.486 100.756 255.764 100.488 256.092 100.296C256.42 100.105 256.79 99.9933 257.169 99.972C257.25 99.972 257.327 99.94 257.384 99.883C257.441 99.826 257.473 99.7486 257.473 99.668C257.473 99.5874 257.441 99.5101 257.384 99.4531C257.327 99.396 257.25 99.364 257.169 99.364C256.688 99.3833 256.219 99.5184 255.801 99.758C255.383 99.9975 255.029 100.334 254.769 100.74C254.747 100.773 254.732 100.81 254.724 100.849C254.717 100.888 254.717 100.928 254.725 100.967C254.733 101.005 254.749 101.042 254.772 101.075C254.795 101.107 254.824 101.135 254.857 101.156C254.905 101.193 254.964 101.213 255.025 101.212Z" fill="#263238" style="fill:#263238;fill:color(display-p3 0.1490 0.1961 0.2196);fill-opacity:1;"/>
<path d="M265.353 249.14C267.145 220.276 266.745 190.66 263.633 184.212L243.033 183.9C243.033 183.9 245.601 232.156 246.401 251.38C247.241 271.38 249.033 323.38 249.033 323.38L260.953 323.524C260.953 323.524 267.945 271.468 265.353 249.14Z" fill="#263238" style="fill:#263238;fill:color(display-p3 0.1490 0.1961 0.2196);fill-opacity:1;"/>
<path opacity="0.2" d="M266.241 205.02C259.209 212.7 262.497 233.964 265.561 245.676C266.401 231.028 266.625 216.444 266.241 205.02Z" fill="black" style="fill:black;fill-opacity:1;"/>
<path d="M260.801 325.028L250.321 324.892C249.657 324.858 249.002 325.053 248.465 325.444C245.425 327.844 243.113 327.916 239.665 328.532C235.529 329.276 237.577 333.436 240.625 333.484C245.665 333.564 245.241 333.38 249.545 333.444L252.521 333.484L253.865 332.116L255.057 333.484H260.561C260.704 333.487 260.845 333.46 260.977 333.404C261.109 333.348 261.227 333.264 261.324 333.159C261.42 333.054 261.494 332.929 261.539 332.794C261.584 332.658 261.599 332.514 261.585 332.372L260.801 325.028Z" fill="#263238" style="fill:#263238;fill:color(display-p3 0.1490 0.1961 0.2196);fill-opacity:1;"/>
<path d="M261.601 326.1C261.417 326.1 247.849 325.668 247.849 325.668L247.297 320.796L262.345 321.132L261.601 326.1Z" fill="#007EF5" style="fill:#007EF5;fill:color(display-p3 0.0000 0.4941 0.9608);fill-opacity:1;"/>
<path d="M289.545 249.14C287.337 220.276 286.401 190.9 282.401 184.452L257.561 184.132C257.561 184.132 267.441 232.132 270.913 251.38C274.521 271.38 284.233 323.38 284.233 323.38L296.177 323.524C296.177 323.524 295.201 271.468 289.545 249.14Z" fill="#263238" style="fill:#263238;fill:color(display-p3 0.1490 0.1961 0.2196);fill-opacity:1;"/>
<path d="M296.744 325.028L286.256 324.892C285.595 324.86 284.943 325.054 284.408 325.444C281.368 327.844 282.76 327.916 279.312 328.532C275.176 329.276 277.216 333.436 280.264 333.484C285.304 333.564 284.888 333.38 289.184 333.444L293.856 333.484L294.472 332.116L295.272 333.484H296.504C296.645 333.484 296.784 333.454 296.913 333.396C297.041 333.339 297.157 333.255 297.251 333.15C297.345 333.045 297.416 332.922 297.46 332.788C297.504 332.654 297.519 332.512 297.504 332.372L296.744 325.028Z" fill="#263238" style="fill:#263238;fill:color(display-p3 0.1490 0.1961 0.2196);fill-opacity:1;"/>
<path d="M297.536 326.1C297.344 326.1 283.72 325.668 283.72 325.668L282.4 320.764L297.496 321.1L297.536 326.1Z" fill="#007EF5" style="fill:#007EF5;fill:color(display-p3 0.0000 0.4941 0.9608);fill-opacity:1;"/>
<path d="M258.649 123.932C258.649 123.932 255.697 129.188 259.089 133.452C256.401 133.452 254.641 136.364 254.641 136.364C254.641 136.364 251.065 129.164 256.353 124.364C256.721 123.82 258.649 123.932 258.649 123.932Z" fill="#007EF5" style="fill:#007EF5;fill:color(display-p3 0.0000 0.4941 0.9608);fill-opacity:1;"/>
<path d="M283.464 186.644C269.408 187.228 253.288 187.404 243.208 186.644C243.152 186.642 243.098 186.627 243.05 186.601C243.001 186.574 242.959 186.537 242.928 186.492C242.266 185.372 241.962 184.077 242.056 182.78C242.064 182.685 242.108 182.596 242.179 182.532C242.251 182.468 242.344 182.434 242.44 182.436C255.744 182.796 268.968 182.78 282.872 182.436C282.948 182.435 283.023 182.456 283.087 182.497C283.151 182.539 283.201 182.598 283.232 182.668C283.696 183.82 283.899 185.061 283.824 186.3C283.818 186.392 283.777 186.479 283.711 186.542C283.644 186.606 283.556 186.642 283.464 186.644Z" fill="#263238" style="fill:#263238;fill:color(display-p3 0.1490 0.1961 0.2196);fill-opacity:1;"/>
<path opacity="0.2" d="M283.464 186.644C269.408 187.228 253.288 187.404 243.208 186.644C243.152 186.642 243.098 186.627 243.05 186.601C243.001 186.574 242.959 186.537 242.928 186.492C242.266 185.372 241.962 184.077 242.056 182.78C242.064 182.685 242.108 182.596 242.179 182.532C242.251 182.468 242.344 182.434 242.44 182.436C255.744 182.796 268.968 182.78 282.872 182.436C282.948 182.435 283.023 182.456 283.087 182.497C283.151 182.539 283.201 182.598 283.232 182.668C283.696 183.82 283.899 185.061 283.824 186.3C283.818 186.392 283.777 186.479 283.711 186.542C283.644 186.606 283.556 186.642 283.464 186.644Z" fill="black" style="fill:black;fill-opacity:1;"/>
<path d="M256.001 182.212C255.834 183.981 255.978 185.765 256.425 187.484C259.473 187.956 265.729 187.604 265.729 187.604C265.819 185.831 265.755 184.054 265.537 182.292C260.737 182.1 256.001 182.212 256.001 182.212Z" fill="white" style="fill:white;fill-opacity:1;"/>
<path d="M284.105 133.876L284.561 134.284L284.921 134.62L285.601 135.276C286.041 135.708 286.441 136.14 286.849 136.58C287.649 137.452 288.409 138.356 289.129 139.268C290.567 141.074 291.902 142.96 293.129 144.916C295.517 148.781 297.534 152.863 299.153 157.108C299.369 157.676 299.537 158.02 299.841 158.988C300.081 159.771 300.253 160.575 300.353 161.388C300.5 162.812 300.481 164.248 300.297 165.668C299.953 168.114 299.308 170.508 298.377 172.796C297.525 174.92 296.525 176.981 295.385 178.964C294.267 180.913 293.019 182.784 291.649 184.564C291.241 185.087 290.662 185.448 290.013 185.583C289.364 185.719 288.689 185.62 288.106 185.304C287.524 184.988 287.072 184.476 286.831 183.859C286.591 183.241 286.577 182.559 286.793 181.932L286.841 181.796C288.228 178.04 289.359 174.194 290.225 170.284C290.617 168.538 290.821 166.754 290.833 164.964C290.834 164.271 290.748 163.58 290.577 162.908C290.38 162.3 290.112 161.717 289.777 161.172C288.013 157.635 286.011 154.222 283.785 150.956C282.689 149.356 281.521 147.756 280.321 146.3C279.721 145.548 279.097 144.836 278.481 144.132L277.553 143.116L277.105 142.644L276.897 142.428L276.761 142.3C275.639 141.325 274.951 139.945 274.848 138.462C274.744 136.98 275.234 135.517 276.209 134.396C277.184 133.275 278.564 132.587 280.046 132.483C281.529 132.38 282.991 132.869 284.113 133.844L284.105 133.876Z" fill="#FF8B7B" style="fill:#FF8B7B;fill:color(display-p3 1.0000 0.5451 0.4824);fill-opacity:1;"/>
<path d="M277.209 126.948C283.441 128.028 289.649 135.452 293.353 142.348C290.798 146.659 286.973 150.074 282.401 152.124C282.401 152.124 275.089 145.004 272.169 139.788C269.249 134.572 271.345 125.932 277.209 126.948Z" fill="#007EF5" style="fill:#007EF5;fill:color(display-p3 0.0000 0.4941 0.9608);fill-opacity:1;"/>
<path d="M293.137 140.772C293.704 141.439 294.146 142.204 294.441 143.028C292.841 145.428 289.049 151.772 282.113 153.012C281.449 152.625 280.946 152.011 280.697 151.284C280.697 151.284 288.705 147.476 293.137 140.772Z" fill="#263238" style="fill:#263238;fill:color(display-p3 0.1490 0.1961 0.2196);fill-opacity:1;"/>
<path d="M272.697 126.388C271.409 125.836 271.897 125.108 271.897 125.108C271.897 125.108 277.825 125.316 281.881 126.604C282.481 127.316 281.777 128.204 281.777 128.204C281.777 128.204 276.521 128.028 272.697 126.388Z" fill="#263238" style="fill:#263238;fill:color(display-p3 0.1490 0.1961 0.2196);fill-opacity:1;"/>
<path opacity="0.2" d="M271.144 124.948C271.144 124.948 269.8 129.636 263.656 133.46C266.344 133.46 268.144 138.364 268.144 138.364C268.144 138.364 273.744 131.788 272.448 125.3C272.072 124.724 271.144 124.948 271.144 124.948Z" fill="black" style="fill:black;fill-opacity:1;"/>
<path d="M270.968 124.1C270.968 124.1 269.368 129.172 263.656 133.46C266.344 133.46 268.208 136.364 268.208 136.364C268.208 136.364 273.712 131.788 272.448 125.3C272.03 124.816 271.529 124.409 270.968 124.1Z" fill="#007EF5" style="fill:#007EF5;fill:color(display-p3 0.0000 0.4941 0.9608);fill-opacity:1;"/>
<path d="M276.729 143.356C276.361 150.268 271.985 151.916 271.369 151.916C270.753 151.916 266.569 150.268 266.937 143.356L271.937 141.388L276.729 143.356Z" fill="white" style="fill:white;fill-opacity:1;"/>
<path d="M287.496 181.38L282.568 185.62L289.104 189.868C289.104 189.868 293.104 185.484 291.12 182.988L287.496 181.38Z" fill="#FF8B7B" style="fill:#FF8B7B;fill:color(display-p3 1.0000 0.5451 0.4824);fill-opacity:1;"/>
<path d="M282.017 192.348L284.553 193.444C285.042 193.657 285.592 193.69 286.103 193.536C286.614 193.382 287.054 193.052 287.345 192.604L289.105 189.868L282.569 185.62L280.865 189.34C280.74 189.613 280.671 189.908 280.661 190.207C280.652 190.507 280.702 190.806 280.809 191.086C280.917 191.366 281.079 191.622 281.286 191.839C281.493 192.055 281.742 192.229 282.017 192.348Z" fill="#FF8B7B" style="fill:#FF8B7B;fill:color(display-p3 1.0000 0.5451 0.4824);fill-opacity:1;"/>
<path d="M254.16 95.8041C249.768 96.4041 251.24 97.7961 261.032 99.0441C270.824 100.292 273.28 99.3081 273.28 99.3081C273.28 99.3081 262.032 95.7801 254.16 95.8041Z" fill="#263238" style="fill:#263238;fill:color(display-p3 0.1490 0.1961 0.2196);fill-opacity:1;"/>
<path d="M276.313 101.212C276.313 101.212 267.713 97.716 254.161 95.804C253.993 93.812 255.633 91.7 255.633 91.7C255.633 91.7 252.609 90.188 253.545 87.3C254.481 84.412 258.809 84.788 263.857 82.5C265.705 84.532 270.785 87.836 274.257 88.26C275.113 90.028 277.353 94.452 280.985 96.156C280.929 98.084 277.321 98.556 277.321 98.556C277.337 99.0434 277.257 99.5292 277.084 99.9852C276.911 100.441 276.649 100.858 276.313 101.212Z" fill="#007EF5" style="fill:#007EF5;fill:color(display-p3 0.0000 0.4941 0.9608);fill-opacity:1;"/>
<path opacity="0.3" d="M277.313 98.556C274.169 95.7 263.001 90.484 255.633 91.7C255.633 91.7 253.993 93.82 254.161 95.804C267.713 97.716 276.313 101.212 276.313 101.212C276.647 100.857 276.907 100.44 277.079 99.9842C277.251 99.5283 277.33 99.0428 277.313 98.556Z" fill="black" style="fill:black;fill-opacity:1;"/>
<path d="M265.153 88.372C264.185 93.3 260.825 94.188 260.353 94.14C259.881 94.092 257.001 92.636 257.953 87.74L261.817 86.668L265.153 88.372Z" fill="white" style="fill:white;fill-opacity:1;"/>
<path d="M201.4 169.124C200.912 169.124 200.44 168.944 200.075 168.62C199.709 168.296 199.475 167.849 199.416 167.364L193.704 120.812C193.64 120.282 193.788 119.747 194.118 119.326C194.447 118.906 194.93 118.633 195.46 118.568C195.991 118.503 196.525 118.652 196.946 118.981C197.367 119.311 197.64 119.794 197.704 120.324L203.384 166.9C203.418 167.161 203.4 167.426 203.33 167.679C203.261 167.933 203.142 168.17 202.981 168.377C202.82 168.585 202.619 168.758 202.39 168.888C202.161 169.017 201.909 169.1 201.648 169.132L201.4 169.124Z" fill="#263238" style="fill:#263238;fill:color(display-p3 0.1490 0.1961 0.2196);fill-opacity:1;"/>
<path d="M200.129 148.18C199.641 146.388 200.561 146.124 199.673 143.58C199.201 142.228 200.753 141.18 200.945 142.268C201.665 146.228 206.921 148.444 205.097 150.948C203.273 153.452 200.609 149.972 200.129 148.18Z" fill="#FF8B7B" style="fill:#FF8B7B;fill:color(display-p3 1.0000 0.5451 0.4824);fill-opacity:1;"/>
<path d="M235.783 81.1291C237.352 56.1222 218.352 34.5783 193.345 33.0094C168.338 31.4405 146.794 50.4407 145.226 75.4476C143.657 100.454 162.657 121.998 187.664 123.567C212.671 125.136 234.215 106.136 235.783 81.1291Z" fill="#007EF5" style="fill:#007EF5;fill:color(display-p3 0.0000 0.4941 0.9608);fill-opacity:1;"/>
<path d="M225.03 90.5165C231.788 71.4427 221.804 50.5017 202.73 43.7436C183.657 36.9854 162.716 46.9693 155.957 66.0431C149.199 85.1169 159.183 106.058 178.257 112.816C197.331 119.574 218.272 109.59 225.03 90.5165Z" fill="white" style="fill:white;fill-opacity:1;"/>
<path d="M214.297 72.092C211.289 68.028 205.497 72.092 203.761 76.364C203.289 77.4238 202.979 78.5483 202.841 79.7L200.929 66.652L199.417 54.284C199.258 53.2227 198.69 52.2654 197.836 51.6159C196.982 50.9664 195.908 50.6759 194.842 50.8061C193.777 50.9364 192.805 51.4773 192.132 52.3135C191.459 53.1498 191.14 54.2156 191.241 55.284L190.865 52.204C190.799 51.6677 190.627 51.1497 190.361 50.6795C190.095 50.2093 189.738 49.7962 189.312 49.4638C188.886 49.1314 188.399 48.8861 187.878 48.742C187.357 48.5979 186.813 48.5578 186.277 48.624C185.741 48.6902 185.222 48.8614 184.752 49.1277C184.282 49.3941 183.869 49.7505 183.537 50.1766C183.204 50.6026 182.959 51.0899 182.815 51.6108C182.671 52.1316 182.631 52.6757 182.697 53.212L183.225 57.5C183.153 56.9196 182.959 56.3612 182.655 55.8617C182.35 55.3623 181.943 54.9334 181.461 54.6034C180.978 54.2735 180.43 54.0501 179.854 53.9481C179.279 53.8461 178.688 53.8679 178.121 54.012C177.15 54.261 176.304 54.8544 175.738 55.6816C175.173 56.5089 174.928 57.5134 175.049 58.508L175.705 63.86C175.634 63.2791 175.441 62.7199 175.137 62.2198C174.833 61.7197 174.426 61.2902 173.943 60.96C173.46 60.6299 172.912 60.4066 172.335 60.3052C171.759 60.2038 171.168 60.2266 170.601 60.372C169.632 60.6194 168.786 61.2116 168.222 62.0377C167.658 62.8639 167.414 63.8672 167.537 64.86L168.849 75.556L169.785 83.228L171.025 93.3C171.905 100.5 174.713 104.564 178.881 106.396C185.281 109.204 197.001 109.236 202.265 104.964C206.873 101.228 209.833 92.228 210.545 86.652C211.257 81.076 215.521 73.732 214.297 72.092Z" fill="#263238" style="fill:#263238;fill:color(display-p3 0.1490 0.1961 0.2196);fill-opacity:1;"/>
<path d="M221.212 46.6954L213.742 40.8577L159.783 109.897L167.253 115.735L221.212 46.6954Z" fill="#007EF5" style="fill:#007EF5;fill:color(display-p3 0.0000 0.4941 0.9608);fill-opacity:1;"/>
</svg>
