<svg width="64" height="64" viewBox="0 0 64 64" fill="none" xmlns="http://www.w3.org/2000/svg">
<g clip-path="url(#clip0_24467_134584)">
<path d="M51.4132 37.5419C50.3508 37.5419 49.5039 38.3201 49.5039 39.2768V43.8026C49.5039 44.458 48.9963 44.9896 48.3415 44.9896C47.6867 44.9896 47.1791 44.4582 47.1791 43.8026V36.8889C47.1791 35.6906 46.0773 34.7155 44.7575 34.7155C43.6952 34.7155 42.803 35.4937 42.803 36.4504V42.2733C42.803 42.9287 42.2954 43.4603 41.6406 43.4603C40.9859 43.4603 40.4783 42.9289 40.4783 42.2733V34.7557C40.4783 33.7997 39.6253 33.022 38.5637 33.022C37.5021 33.022 36.6492 33.7998 36.6492 34.7557V41.4932C36.6492 42.1487 36.0732 42.6801 35.4184 42.6801C34.7637 42.6801 34.1877 42.1487 34.1877 41.4932V24.8776C34.1877 23.7508 33.2759 22.8336 32.1376 22.833C31.0465 22.833 30.0851 23.7769 30.0851 24.8776V43.0124C30.0851 43.5438 29.7293 44.0106 29.2184 44.1547C28.7072 44.2989 28.1615 44.0859 27.8839 43.6327L26.2409 40.9501C25.6575 39.9975 24.3449 39.7468 23.4459 40.4037C22.6176 41.009 22.4153 42.1473 22.9856 42.9955L30.9978 54.9421C31.1295 55.138 31.1792 55.3687 31.1792 55.6048V57.3635C31.1792 57.997 31.8046 58.5298 32.5228 58.5298H50.5336C51.252 58.5298 51.8363 57.9828 51.8363 57.2991H51.8287V55.1674C51.8287 54.9893 51.8683 54.8137 51.9455 54.6532L53.6065 51.1932V39.5433C53.6065 38.4397 52.6321 37.5419 51.4132 37.5419Z" fill="#7490AA" style="fill:#7490AA;fill:color(display-p3 0.4549 0.5647 0.6667);fill-opacity:1;"/>
<path d="M31.1787 60.8547H51.8283V64H31.1787V60.8547Z" fill="#7490AA" style="fill:#7490AA;fill:color(display-p3 0.4549 0.5647 0.6667);fill-opacity:1;"/>
<path d="M55.3937 20.62C54.0831 20.62 52.9609 21.4701 52.4922 22.5641H41.5452C41.5469 20.5128 41.5481 18.5227 41.5488 17.2775L50.2952 8.55111C50.6684 8.70756 51.0783 8.79344 51.5087 8.79344C53.2405 8.79344 54.6446 7.39255 54.6446 5.66496C54.6446 3.93737 53.2407 2.53662 51.5087 2.53662C49.7769 2.53662 48.3728 3.93709 48.3728 5.66468C48.3728 6.09327 48.4594 6.50161 48.6158 6.87357L40.8323 14.6088C40.6048 14.4696 40.3382 14.3588 40.0522 14.3588H39.521V7.95282C39.521 3.56759 36.1159 0 31.9313 0C27.7467 0 24.3415 3.56759 24.3415 7.95282V14.359H23.921C23.6347 14.359 23.3677 14.4702 23.1399 14.6096L15.3557 6.85908C15.5121 6.48711 15.5987 6.08602 15.5987 5.65744C15.5987 3.92985 14.1948 2.53292 12.4628 2.53292C10.7309 2.53292 9.32709 3.93518 9.32709 5.66291C9.32709 7.3905 10.731 8.79193 12.463 8.79193C12.8932 8.79193 13.3047 8.70578 13.678 8.54933L22.427 17.2759V22.5641H11.5071C11.0384 21.4701 9.91609 20.62 8.60559 20.62C6.87362 20.62 5.46973 22.0191 5.46973 23.7467C5.46973 25.4743 6.87362 26.8524 8.60559 26.8524C9.91609 26.8524 11.0384 26.1197 11.5071 24.8889H22.427V31.5822C22.427 32.4047 23.0954 33.094 23.921 33.094H27.7603V24.8775C27.7603 22.4622 29.8093 20.4591 32.2074 20.4591C34.6525 20.4603 36.6492 22.4424 36.6492 24.8775V31.0813C38.1535 30.3178 40.271 30.5902 41.562 31.8105C41.5683 31.7734 41.5396 28.4443 41.5432 24.8888H52.4922C52.9609 26.1195 54.0832 26.8516 55.3937 26.8516C57.1255 26.8516 58.5296 25.4634 58.5296 23.7358C58.5296 22.0083 57.1257 20.62 55.3937 20.62ZM26.8031 14.359V7.95282C26.8031 4.87658 29.1227 2.37388 31.9996 2.37388C34.8766 2.37388 37.1962 4.87658 37.1962 7.95282V14.359H26.8031Z" fill="#7490AA" style="fill:#7490AA;fill:color(display-p3 0.4549 0.5647 0.6667);fill-opacity:1;"/>
</g>
<defs>
<clipPath id="clip0_24467_134584">
<rect width="64" height="64" fill="white" style="fill:white;fill-opacity:1;"/>
</clipPath>
</defs>
</svg>
