<svg width="1905" height="67" viewBox="0 0 1905 67" fill="none" xmlns="http://www.w3.org/2000/svg">
<g clip-path="url(#clip0_626_2)">
<path d="M446 58L450.004 62H619.206L623.21 66H952" stroke="#0794FF" stroke-width="2"/>
<path d="M1457.5 58L1453.5 62H1284.5L1280.5 66H952" stroke="#0794FF" stroke-width="2"/>
<path d="M446 9L450.004 5H619.206L623.21 1H952" stroke="#0794FF" stroke-width="2"/>
<path d="M1457.5 9L1453.5 5H1284.5L1280.5 1H952" stroke="#0794FF" stroke-width="2"/>
<mask id="mask0_626_2" style="mask-type:luminance" maskUnits="userSpaceOnUse" x="0" y="5" width="438" height="57">
<path d="M438 5H0V62H438V5Z" fill="white"/>
</mask>
<g mask="url(#mask0_626_2)">
<path opacity="0.7" d="M16 61.5H132" stroke="#00518F"/>
<path d="M284 61.5H328.234H339.702H438" stroke="#00518F"/>
<path d="M138 61.5H170" stroke="#0794FF"/>
<path d="M176 61.5H208" stroke="#0794FF"/>
<path opacity="0.7" d="M214 61.5H278" stroke="#00518F"/>
<path d="M16 5H438" stroke="#00518F"/>
<path d="M16 5H80" stroke="#0794FF"/>
<path d="M88 5H104" stroke="#0794FF"/>
<path d="M112 5H128" stroke="#0794FF"/>
<path d="M12 13H4L0 17.786V48.214L4 53H12" stroke="#0794FF"/>
</g>
<path d="M1888 61.5H1772" stroke="#00518F"/>
<path d="M1620 61.5H1575.77H1564.3H1466" stroke="#00518F"/>
<path d="M1766 61.5H1734" stroke="#0794FF"/>
<path d="M1728 61.5H1696" stroke="#0794FF"/>
<path d="M1690 61.5H1626" stroke="#00518F"/>
<path d="M1888 4.99998L1466 4.99994" stroke="#00518F"/>
<path d="M1892 13H1900L1904 17.786V48.214L1900 53H1892" stroke="#0794FF"/>
<path d="M1888 5H1824" stroke="#0794FF"/>
<path d="M1816 5H1800" stroke="#0794FF"/>
<path d="M1792 5H1776" stroke="#0794FF"/>
<mask id="mask1_626_2" style="mask-type:alpha" maskUnits="userSpaceOnUse" x="447" y="2" width="1070" height="63">
<path d="M623.611 2L619.603 6H450.5L447 9.5V57.5L450.5 61H619.649L623.646 65H1280.09L1284.1 61H1513.08L1517 57V10L1513 6H1284.09L1280.09 2H623.611Z" fill="url(#paint0_linear_626_2)"/>
</mask>
<g mask="url(#mask1_626_2)">
<path d="M622.611 2L618.603 6H449.5L446 9.5V57.5L449.5 61H618.649L622.646 65H1279.09L1283.1 61H1452.08L1456 57V10L1452 6H1283.09L1279.09 2H622.611Z" fill="url(#paint1_linear_626_2)" fill-opacity="0.63"/>
</g>
</g>
<defs>
<linearGradient id="paint0_linear_626_2" x1="387" y1="39.9982" x2="1517" y2="32.9984" gradientUnits="userSpaceOnUse">
<stop stop-color="#1FC6FF" stop-opacity="0"/>
<stop offset="0.508424" stop-color="#1FC6FF"/>
<stop offset="1" stop-color="#1FC6FF" stop-opacity="0"/>
</linearGradient>
<linearGradient id="paint1_linear_626_2" x1="951" y1="2" x2="951" y2="65" gradientUnits="userSpaceOnUse">
<stop stop-color="#0794FF" stop-opacity="0"/>
<stop offset="1" stop-color="#0794FF"/>
</linearGradient>
<clipPath id="clip0_626_2">
<rect width="1905" height="67" fill="white"/>
</clipPath>
</defs>
</svg>
