<svg width="816" height="837" viewBox="0 0 816 837" fill="none" xmlns="http://www.w3.org/2000/svg">
<path d="M482.64 179.599C473.289 179.599 315.944 180.639 306.059 180.314C305.344 180.288 304.967 179.248 305.669 178.897C311.899 175.816 318.974 176.427 325.451 174.243C329.262 172.956 331.603 170.473 334.243 167.613C336.532 165.143 339.172 163.245 342.437 162.27C345.311 161.412 348.433 161.295 351.346 161.997C354.532 162.764 357.316 164.584 360.359 165.741C367.915 168.588 375.264 165.884 380.661 160.294C385.109 155.692 389.492 151.337 395.54 148.854C400.612 146.774 406.231 146.345 411.303 148.633C417.078 151.246 421.031 156.498 426.455 159.67C432.88 163.427 440.566 162.543 447.667 163.674C454.782 164.805 460.218 170.785 466.435 174.217C468.568 175.4 470.74 176.375 473.224 176.323C474.616 176.284 475.981 175.907 477.36 175.738C479.506 175.478 481.535 175.53 482.978 177.324C483.33 177.766 483.251 179.612 482.64 179.612V179.599Z" fill="#EBEBEB"/>
<path d="M817.516 355.463C810.688 355.463 695.807 356.217 688.588 355.983C688.068 355.97 687.795 355.203 688.302 354.943C692.854 352.694 698.018 353.149 702.752 351.55C705.535 350.614 707.239 348.794 709.177 346.714C710.841 344.907 712.779 343.529 715.159 342.814C717.266 342.19 719.529 342.099 721.662 342.606C723.99 343.165 726.019 344.491 728.243 345.336C733.758 347.416 739.129 345.44 743.07 341.358C746.321 337.991 749.521 334.819 753.93 333.012C757.624 331.491 761.733 331.179 765.44 332.856C769.654 334.767 772.541 338.602 776.508 340.916C781.203 343.659 786.809 343.009 791.998 343.841C797.2 344.673 801.154 349.028 805.706 351.537C807.254 352.395 808.854 353.11 810.662 353.071C811.676 353.045 812.677 352.772 813.679 352.642C815.24 352.447 816.735 352.499 817.776 353.799C818.036 354.124 817.984 355.463 817.529 355.463H817.516Z" fill="#EBEBEB"/>
<path d="M127.567 271.873C120.739 271.873 5.85793 272.627 -1.36033 272.393C-1.88057 272.38 -2.15369 271.613 -1.64646 271.366C2.9056 269.117 8.06893 269.572 12.8031 267.973C15.5863 267.037 17.2901 265.217 19.228 263.137C20.8927 261.33 22.8306 259.952 25.2107 259.237C27.3176 258.613 29.5807 258.522 31.7136 259.029C34.0417 259.588 36.0706 260.914 38.2946 261.759C43.8091 263.839 49.1805 261.863 53.1213 257.781C56.3728 254.414 59.5722 251.242 63.9812 249.435C67.6749 247.914 71.7847 247.602 75.4914 249.279C79.7053 251.19 82.5926 255.025 86.5594 257.339C91.2545 260.082 96.8601 259.432 102.049 260.264C107.252 261.096 111.206 265.451 115.758 267.96C117.305 268.818 118.905 269.533 120.713 269.494C121.727 269.468 122.729 269.195 123.73 269.065C125.291 268.87 126.787 268.922 127.827 270.222C128.087 270.534 128.035 271.886 127.58 271.886L127.567 271.873Z" fill="#EBEBEB"/>
<path d="M678.054 267.115C677.924 267.505 496.986 267.115 499.275 267.115C500.315 267.115 497.701 265.555 498.716 265.061C504.607 262.136 511.045 262.058 517.457 261.473C521.203 261.135 525.04 260.589 528.408 258.821C531.816 257.04 533.949 253.933 536.368 251.073C543.846 242.194 555.746 237.566 567.27 239.373C580.132 241.388 590.277 251.19 603.166 252.984C610.904 254.063 618.227 251.073 625.796 250.02C632.026 249.162 637.215 250.371 642.782 253.127C646.866 255.155 650.637 256.858 655.241 257.17C658.779 257.417 662.343 257.014 665.893 256.975C671.577 256.923 677.182 259.38 681.565 263.241C682.138 263.748 683.958 267.128 678.054 267.128V267.115Z" fill="#EBEBEB"/>
<path d="M296.617 444.747C296.487 445.137 115.549 444.747 117.838 444.747C118.879 444.747 116.265 443.187 117.279 442.693C123.171 439.768 129.609 439.69 136.021 439.105C139.766 438.767 143.603 438.221 146.972 436.453C150.379 434.672 152.512 431.565 154.931 428.705C162.41 419.826 174.31 415.198 185.833 417.005C198.696 419.02 208.84 428.822 221.729 430.616C229.468 431.695 236.79 428.705 244.36 427.652C250.589 426.794 255.779 428.003 261.345 430.759C265.429 432.774 269.201 434.49 273.805 434.802C277.342 435.049 280.906 434.646 284.457 434.607C290.14 434.555 295.746 437.012 300.129 440.873C300.701 441.38 302.522 444.76 296.617 444.76V444.747Z" fill="#EBEBEB"/>
<path d="M157.428 504.872H148.415V685.429H157.428V504.872Z" fill="#C7C7C7"/>
<path d="M162.618 504.872H143.213V509.578H162.618V504.872Z" fill="#C7C7C7"/>
<path d="M154.619 509.578H151.225V528.051H154.619V509.578Z" fill="white"/>
<path d="M154.619 536.813H151.225V555.286H154.619V536.813Z" fill="white"/>
<path d="M336.533 504.872H327.52V685.429H336.533V504.872Z" fill="#C7C7C7"/>
<path d="M341.735 504.872H322.33V509.578H341.735V504.872Z" fill="#C7C7C7"/>
<path d="M333.723 509.578H330.329V528.051H333.723V509.578Z" fill="white"/>
<path d="M333.723 536.813H330.329V555.286H333.723V536.813Z" fill="white"/>
<path d="M515.649 504.872H506.636V685.429H515.649V504.872Z" fill="#C7C7C7"/>
<path d="M520.839 504.872H501.434V509.578H520.839V504.872Z" fill="#C7C7C7"/>
<path d="M512.84 509.578H509.446V528.051H512.84V509.578Z" fill="white"/>
<path d="M512.84 536.813H509.446V555.286H512.84V536.813Z" fill="white"/>
<path d="M681.163 504.872H672.149V685.429H681.163V504.872Z" fill="#C7C7C7"/>
<path d="M686.365 504.872H666.96V509.578H686.365V504.872Z" fill="#C7C7C7"/>
<path d="M678.366 509.578H674.972V528.051H678.366V509.578Z" fill="white"/>
<path d="M678.366 536.813H674.972V555.286H678.366V536.813Z" fill="white"/>
<path d="M821.496 486.074H-5.49609V504.872H821.496V486.074Z" fill="#C7C7C7"/>
<path d="M821.496 491.131H693.05V496.916H821.496V491.131Z" fill="#EBEBEB"/>
<path d="M593.75 491.131H451.712V496.916H593.75V491.131Z" fill="#EBEBEB"/>
<path d="M685.662 491.131H654.162V496.916H685.662V491.131Z" fill="#EBEBEB"/>
<path d="M631.792 491.131H600.292V496.916H631.792V491.131Z" fill="#EBEBEB"/>
<path d="M647.594 491.131H638.035V496.916H647.594V491.131Z" fill="#EBEBEB"/>
<path d="M354.116 491.131H212.079V496.916H354.116V491.131Z" fill="#EBEBEB"/>
<path d="M446.016 491.131H414.516V496.916H446.016V491.131Z" fill="#EBEBEB"/>
<path d="M392.158 491.131H360.658V496.916H392.158V491.131Z" fill="#EBEBEB"/>
<path d="M407.948 491.131H398.389V496.916H407.948V491.131Z" fill="#EBEBEB"/>
<path d="M114.47 491.131H-5.49609V496.916H114.47V491.131Z" fill="#EBEBEB"/>
<path d="M206.37 491.131H174.87V496.916H206.37V491.131Z" fill="#EBEBEB"/>
<path d="M152.512 491.131H121.012V496.916H152.512V491.131Z" fill="#EBEBEB"/>
<path d="M168.301 491.131H158.742V496.916H168.301V491.131Z" fill="#EBEBEB"/>
<path d="M664.138 463.74H693.414C699.267 463.74 705.015 465.326 710.049 468.342L720.427 474.556C722.886 476.025 721.845 479.795 718.984 479.795H664.151C661.94 479.795 660.158 478.014 660.158 475.804V467.731C660.158 465.521 661.94 463.74 664.151 463.74H664.138Z" fill="#EBEBEB"/>
<path d="M660.145 474.257V476.207H706.628L702.83 474.257H660.145Z" fill="#C7C7C7"/>
<path d="M692.881 472.099H699.072C700.047 472.099 700.45 470.864 699.67 470.279L696.666 468.043C696.497 467.913 696.276 467.848 696.067 467.848H689.877C688.901 467.848 688.498 469.083 689.278 469.668L692.283 471.904C692.452 472.034 692.673 472.099 692.881 472.099Z" fill="#EBEBEB"/>
<path d="M688.966 468.42C689.083 468.368 689.213 468.342 689.356 468.342H695.547C695.755 468.342 695.976 468.407 696.145 468.537L699.15 470.773C699.579 471.085 699.644 471.605 699.449 472.021C700.125 471.748 700.32 470.773 699.657 470.279L696.653 468.043C696.484 467.913 696.262 467.848 696.054 467.848H689.863C689.421 467.848 689.096 468.108 688.953 468.433L688.966 468.42Z" fill="#C7C7C7"/>
<path d="M701.725 469.668L704.716 471.904C704.885 472.034 705.106 472.099 705.327 472.099H716.317L710.035 468.342C709.749 468.173 709.45 467.991 709.151 467.835H702.31C702.31 467.835 702.193 467.835 702.141 467.848C702.102 467.848 702.063 467.861 702.024 467.874C701.842 467.926 701.686 468.017 701.569 468.147C701.543 468.173 701.517 468.212 701.491 468.238C701.452 468.29 701.426 468.355 701.4 468.407C701.218 468.81 701.283 469.33 701.712 469.642L701.725 469.668Z" fill="#EBEBEB"/>
<path d="M701.412 468.42C701.529 468.368 701.66 468.342 701.803 468.342H710.035C709.749 468.173 709.45 467.991 709.151 467.835H702.31C702.31 467.835 702.193 467.835 702.141 467.848C702.102 467.848 702.063 467.861 702.024 467.874C701.842 467.926 701.685 468.017 701.568 468.147C701.542 468.173 701.516 468.212 701.49 468.238C701.451 468.29 701.425 468.355 701.399 468.407L701.412 468.42Z" fill="#C7C7C7"/>
<path d="M680.824 472.099H687.015C687.991 472.099 688.394 470.864 687.613 470.279L684.609 468.043C684.44 467.913 684.219 467.848 684.011 467.848H677.82C676.845 467.848 676.441 469.083 677.222 469.668L680.226 471.904C680.395 472.034 680.616 472.099 680.824 472.099Z" fill="#EBEBEB"/>
<path d="M676.91 468.42C677.027 468.368 677.157 468.342 677.3 468.342H683.49C683.699 468.342 683.92 468.407 684.089 468.537L687.093 470.773C687.522 471.085 687.587 471.605 687.392 472.021C688.069 471.748 688.264 470.773 687.6 470.279L684.596 468.043C684.427 467.913 684.206 467.848 683.998 467.848H677.807C677.365 467.848 677.04 468.108 676.896 468.433L676.91 468.42Z" fill="#C7C7C7"/>
<path d="M668.755 472.099H674.946C675.921 472.099 676.325 470.864 675.544 470.279L672.54 468.043C672.371 467.913 672.15 467.848 671.941 467.848H665.751C664.775 467.848 664.372 469.083 665.152 469.668L668.157 471.904C668.326 472.034 668.547 472.099 668.755 472.099Z" fill="#EBEBEB"/>
<path d="M664.84 468.42C664.957 468.368 665.087 468.342 665.23 468.342H671.421C671.629 468.342 671.85 468.407 672.019 468.537L675.024 470.773C675.453 471.085 675.518 471.605 675.323 472.021C675.999 471.748 676.194 470.773 675.531 470.279L672.527 468.043C672.358 467.913 672.136 467.848 671.928 467.848H665.738C665.295 467.848 664.97 468.108 664.827 468.433L664.84 468.42Z" fill="#C7C7C7"/>
<path d="M654.422 463.74H606.717C604.196 463.74 602.152 465.783 602.152 468.303V475.219C602.152 477.739 604.196 479.782 606.717 479.782H654.422C656.944 479.782 658.987 477.739 658.987 475.219V468.303C658.987 465.783 656.944 463.74 654.422 463.74Z" fill="#EBEBEB"/>
<path d="M602.152 474.257V476.207H648.635L644.837 474.257H602.152Z" fill="#C7C7C7"/>
<path d="M646.099 472.099H652.29C653.265 472.099 653.668 470.864 652.888 470.279L649.883 468.043C649.714 467.913 649.493 467.848 649.285 467.848H643.094C642.119 467.848 641.716 469.083 642.496 469.668L645.5 471.904C645.67 472.034 645.891 472.099 646.099 472.099Z" fill="#EBEBEB"/>
<path d="M642.184 468.42C642.301 468.368 642.431 468.342 642.574 468.342H648.765C648.973 468.342 649.194 468.407 649.363 468.537L652.368 470.773C652.797 471.085 652.862 471.605 652.667 472.021C653.343 471.748 653.538 470.773 652.875 470.279L649.87 468.043C649.701 467.913 649.48 467.848 649.272 467.848H643.081C642.639 467.848 642.314 468.108 642.171 468.433L642.184 468.42Z" fill="#C7C7C7"/>
<path d="M634.029 472.099H640.22C641.196 472.099 641.599 470.864 640.819 470.279L637.814 468.043C637.645 467.913 637.424 467.848 637.216 467.848H631.025C630.05 467.848 629.646 469.083 630.427 469.668L633.431 471.904C633.6 472.034 633.821 472.099 634.029 472.099Z" fill="#EBEBEB"/>
<path d="M630.115 468.42C630.232 468.368 630.362 468.342 630.505 468.342H636.696C636.904 468.342 637.125 468.407 637.294 468.537L640.298 470.773C640.727 471.085 640.792 471.605 640.597 472.021C641.274 471.748 641.469 470.773 640.805 470.279L637.801 468.043C637.632 467.913 637.411 467.848 637.203 467.848H631.012C630.57 467.848 630.245 468.108 630.102 468.433L630.115 468.42Z" fill="#C7C7C7"/>
<path d="M621.973 472.099H628.164C629.139 472.099 629.542 470.864 628.762 470.279L625.757 468.043C625.588 467.913 625.367 467.848 625.159 467.848H618.968C617.993 467.848 617.59 469.083 618.37 469.668L621.375 471.904C621.544 472.034 621.765 472.099 621.973 472.099Z" fill="#EBEBEB"/>
<path d="M618.058 468.42C618.175 468.368 618.305 468.342 618.448 468.342H624.639C624.847 468.342 625.068 468.407 625.237 468.537L628.242 470.773C628.671 471.085 628.736 471.605 628.541 472.021C629.217 471.748 629.412 470.773 628.749 470.279L625.744 468.043C625.575 467.913 625.354 467.848 625.146 467.848H618.955C618.513 467.848 618.188 468.108 618.045 468.433L618.058 468.42Z" fill="#C7C7C7"/>
<path d="M609.903 472.099H616.094C617.07 472.099 617.473 470.864 616.693 470.279L613.688 468.043C613.519 467.913 613.298 467.848 613.09 467.848H606.899C605.924 467.848 605.52 469.083 606.301 469.668L609.305 471.904C609.474 472.034 609.695 472.099 609.903 472.099Z" fill="#EBEBEB"/>
<path d="M605.989 468.42C606.106 468.368 606.236 468.342 606.379 468.342H612.57C612.778 468.342 612.999 468.407 613.168 468.537L616.172 470.773C616.601 471.085 616.666 471.605 616.471 472.021C617.148 471.748 617.343 470.773 616.679 470.279L613.675 468.043C613.506 467.913 613.285 467.848 613.077 467.848H606.886C606.444 467.848 606.119 468.108 605.976 468.433L605.989 468.42Z" fill="#C7C7C7"/>
<path d="M596.507 463.74H548.802C546.281 463.74 544.237 465.783 544.237 468.303V475.219C544.237 477.739 546.281 479.782 548.802 479.782H596.507C599.029 479.782 601.073 477.739 601.073 475.219V468.303C601.073 465.783 599.029 463.74 596.507 463.74Z" fill="#EBEBEB"/>
<path d="M544.237 474.257V476.207H590.733L586.935 474.257H544.237Z" fill="#C7C7C7"/>
<path d="M588.184 472.099H594.375C595.35 472.099 595.753 470.864 594.973 470.279L591.968 468.043C591.799 467.913 591.578 467.848 591.37 467.848H585.179C584.204 467.848 583.801 469.083 584.581 469.668L587.585 471.904C587.755 472.034 587.976 472.099 588.184 472.099Z" fill="#EBEBEB"/>
<path d="M584.269 468.42C584.386 468.368 584.516 468.342 584.659 468.342H590.85C591.058 468.342 591.279 468.407 591.448 468.537L594.452 470.773C594.882 471.085 594.947 471.605 594.752 472.021C595.428 471.748 595.623 470.773 594.96 470.279L591.955 468.043C591.786 467.913 591.565 467.848 591.357 467.848H585.166C584.724 467.848 584.399 468.108 584.256 468.433L584.269 468.42Z" fill="#C7C7C7"/>
<path d="M576.114 472.099H582.305C583.281 472.099 583.684 470.864 582.903 470.279L579.899 468.043C579.73 467.913 579.509 467.848 579.301 467.848H573.11C572.135 467.848 571.731 469.083 572.512 469.668L575.516 471.904C575.685 472.034 575.906 472.099 576.114 472.099Z" fill="#EBEBEB"/>
<path d="M572.213 468.42C572.33 468.368 572.46 468.342 572.603 468.342H578.794C579.002 468.342 579.223 468.407 579.392 468.537L582.396 470.773C582.826 471.085 582.891 471.605 582.695 472.021C583.372 471.748 583.567 470.773 582.904 470.279L579.899 468.043C579.73 467.913 579.509 467.848 579.301 467.848H573.11C572.668 467.848 572.343 468.108 572.2 468.433L572.213 468.42Z" fill="#C7C7C7"/>
<path d="M564.058 472.099H570.249C571.224 472.099 571.627 470.864 570.847 470.279L567.842 468.043C567.673 467.913 567.452 467.848 567.244 467.848H561.053C560.078 467.848 559.675 469.083 560.455 469.668L563.459 471.904C563.629 472.034 563.85 472.099 564.058 472.099Z" fill="#EBEBEB"/>
<path d="M560.143 468.42C560.26 468.368 560.39 468.342 560.533 468.342H566.724C566.932 468.342 567.153 468.407 567.322 468.537L570.326 470.773C570.756 471.085 570.821 471.605 570.626 472.021C571.302 471.748 571.497 470.773 570.834 470.279L567.829 468.043C567.66 467.913 567.439 467.848 567.231 467.848H561.04C560.598 467.848 560.273 468.108 560.13 468.433L560.143 468.42Z" fill="#C7C7C7"/>
<path d="M552.001 472.099H558.192C559.167 472.099 559.571 470.864 558.79 470.279L555.786 468.043C555.617 467.913 555.396 467.848 555.188 467.848H548.997C548.021 467.848 547.618 469.083 548.398 469.668L551.403 471.904C551.572 472.034 551.793 472.099 552.001 472.099Z" fill="#EBEBEB"/>
<path d="M548.086 468.42C548.203 468.368 548.333 468.342 548.476 468.342H554.667C554.875 468.342 555.096 468.407 555.265 468.537L558.27 470.773C558.699 471.085 558.764 471.605 558.569 472.021C559.245 471.748 559.44 470.773 558.777 470.279L555.773 468.043C555.604 467.913 555.383 467.848 555.174 467.848H548.984C548.541 467.848 548.216 468.108 548.073 468.433L548.086 468.42Z" fill="#C7C7C7"/>
<path d="M538.605 463.74H490.9C488.378 463.74 486.334 465.783 486.334 468.303V475.219C486.334 477.739 488.378 479.782 490.9 479.782H538.605C541.126 479.782 543.17 477.739 543.17 475.219V468.303C543.17 465.783 541.126 463.74 538.605 463.74Z" fill="#EBEBEB"/>
<path d="M486.334 474.257V476.207H532.817L529.02 474.257H486.334Z" fill="#C7C7C7"/>
<path d="M530.268 472.099H536.459C537.434 472.099 537.838 470.864 537.057 470.279L534.053 468.043C533.884 467.913 533.663 467.848 533.455 467.848H527.264C526.288 467.848 525.885 469.083 526.666 469.668L529.67 471.904C529.839 472.034 530.06 472.099 530.268 472.099Z" fill="#EBEBEB"/>
<path d="M526.353 468.42C526.47 468.368 526.6 468.342 526.744 468.342H532.934C533.142 468.342 533.364 468.407 533.533 468.537L536.537 470.773C536.966 471.085 537.031 471.605 536.836 472.021C537.512 471.748 537.707 470.773 537.044 470.279L534.04 468.043C533.871 467.913 533.65 467.848 533.442 467.848H527.251C526.809 467.848 526.483 468.108 526.34 468.433L526.353 468.42Z" fill="#C7C7C7"/>
<path d="M518.212 472.099H524.403C525.378 472.099 525.781 470.864 525.001 470.279L521.997 468.043C521.828 467.913 521.607 467.848 521.399 467.848H515.208C514.232 467.848 513.829 469.083 514.609 469.668L517.614 471.904C517.783 472.034 518.004 472.099 518.212 472.099Z" fill="#EBEBEB"/>
<path d="M514.297 468.42C514.414 468.368 514.544 468.342 514.687 468.342H520.878C521.086 468.342 521.307 468.407 521.476 468.537L524.481 470.773C524.91 471.085 524.975 471.605 524.78 472.021C525.456 471.748 525.651 470.773 524.988 470.279L521.984 468.043C521.815 467.913 521.593 467.848 521.385 467.848H515.195C514.752 467.848 514.427 468.108 514.284 468.433L514.297 468.42Z" fill="#C7C7C7"/>
<path d="M506.142 472.099H512.333C513.308 472.099 513.712 470.864 512.931 470.279L509.927 468.043C509.758 467.913 509.537 467.848 509.329 467.848H503.138C502.162 467.848 501.759 469.083 502.54 469.668L505.544 471.904C505.713 472.034 505.934 472.099 506.142 472.099Z" fill="#EBEBEB"/>
<path d="M502.227 468.42C502.344 468.368 502.474 468.342 502.618 468.342H508.808C509.016 468.342 509.238 468.407 509.407 468.537L512.411 470.773C512.84 471.085 512.905 471.605 512.71 472.021C513.386 471.748 513.582 470.773 512.918 470.279L509.914 468.043C509.745 467.913 509.524 467.848 509.316 467.848H503.125C502.683 467.848 502.357 468.108 502.214 468.433L502.227 468.42Z" fill="#C7C7C7"/>
<path d="M494.086 472.099H500.277C501.252 472.099 501.655 470.864 500.875 470.279L497.871 468.043C497.702 467.913 497.481 467.848 497.273 467.848H491.082C490.106 467.848 489.703 469.083 490.483 469.668L493.488 471.904C493.657 472.034 493.878 472.099 494.086 472.099Z" fill="#EBEBEB"/>
<path d="M490.171 468.42C490.288 468.368 490.418 468.342 490.561 468.342H496.752C496.96 468.342 497.181 468.407 497.35 468.537L500.355 470.773C500.784 471.085 500.849 471.605 500.654 472.021C501.33 471.748 501.525 470.773 500.862 470.279L497.858 468.043C497.689 467.913 497.467 467.848 497.259 467.848H491.069C490.626 467.848 490.301 468.108 490.158 468.433L490.171 468.42Z" fill="#C7C7C7"/>
<path d="M44.1474 561.097H35.1343V684.688H44.1474V561.097Z" fill="#37474F"/>
<path d="M49.3369 561.097H29.9321V565.803H49.3369V561.097Z" fill="#37474F"/>
<path d="M41.3384 565.816H37.9438V584.289H41.3384V565.816Z" fill="white"/>
<path d="M41.3384 593.051H37.9438V611.524H41.3384V593.051Z" fill="white"/>
<path d="M231.719 561.097H222.706V684.688H231.719V561.097Z" fill="#37474F"/>
<path d="M236.921 561.097H217.516V565.803H236.921V561.097Z" fill="#37474F"/>
<path d="M228.922 565.816H225.528V584.289H228.922V565.816Z" fill="white"/>
<path d="M228.922 593.051H225.528V611.524H228.922V593.051Z" fill="white"/>
<path d="M405.711 561.097H396.698V684.688H405.711V561.097Z" fill="#37474F"/>
<path d="M410.914 561.097H391.509V565.803H410.914V561.097Z" fill="#37474F"/>
<path d="M402.902 565.816H399.507V584.289H402.902V565.816Z" fill="white"/>
<path d="M402.902 593.051H399.507V611.524H402.902V593.051Z" fill="white"/>
<path d="M593.294 561.097H584.281V684.688H593.294V561.097Z" fill="#37474F"/>
<path d="M598.484 561.097H579.079V565.803H598.484V561.097Z" fill="#37474F"/>
<path d="M590.485 565.816H587.091V584.289H590.485V565.816Z" fill="white"/>
<path d="M590.485 593.051H587.091V611.524H590.485V593.051Z" fill="white"/>
<path d="M780.866 561.097H771.853V684.688H780.866V561.097Z" fill="#37474F"/>
<path d="M786.055 561.097H766.65V565.803H786.055V561.097Z" fill="#37474F"/>
<path d="M778.057 565.816H774.662V584.289H778.057V565.816Z" fill="white"/>
<path d="M778.057 593.051H774.662V611.524H778.057V593.051Z" fill="white"/>
<path d="M821.496 542.312H-5.49609V561.11H821.496V542.312Z" fill="#37474F"/>
<path d="M821.509 547.356H679.472V553.141H821.509V547.356Z" fill="#455A64"/>
<path d="M580.171 547.356H438.134V553.141H580.171V547.356Z" fill="#455A64"/>
<path d="M672.071 547.356H640.571V553.141H672.071V547.356Z" fill="#455A64"/>
<path d="M618.214 547.356H586.713V553.141H618.214V547.356Z" fill="#455A64"/>
<path d="M634.016 547.356H624.457V553.141H634.016V547.356Z" fill="#455A64"/>
<path d="M340.525 547.356H212.079V553.141H340.525V547.356Z" fill="#455A64"/>
<path d="M432.438 547.356H400.938V553.141H432.438V547.356Z" fill="#455A64"/>
<path d="M378.568 547.356H347.067V553.141H378.568V547.356Z" fill="#455A64"/>
<path d="M394.37 547.356H384.811V553.141H394.37V547.356Z" fill="#455A64"/>
<path d="M114.47 547.356H-5.49609V553.141H114.47V547.356Z" fill="#455A64"/>
<path d="M206.37 547.356H174.87V553.141H206.37V547.356Z" fill="#455A64"/>
<path d="M152.512 547.356H121.012V553.141H152.512V547.356Z" fill="#455A64"/>
<path d="M168.301 547.356H158.742V553.141H168.301V547.356Z" fill="#455A64"/>
<path d="M122.156 519.978H92.8672C87.0146 519.978 81.266 521.564 76.2327 524.58L65.854 530.794C63.3959 532.263 64.4364 536.033 67.3107 536.033H122.143C124.354 536.033 126.136 534.252 126.136 532.042V523.969C126.136 521.759 124.354 519.978 122.143 519.978H122.156Z" fill="#007EF5"/>
<path d="M126.149 530.482V532.445H79.666L83.4637 530.482H126.149Z" fill="#37474F"/>
<path d="M93.4004 528.337H87.2097C86.2342 528.337 85.831 527.102 86.6114 526.517L89.6157 524.281C89.7848 524.151 90.0059 524.086 90.214 524.086H96.4048C97.3802 524.086 97.7834 525.321 97.0031 525.906L93.9987 528.142C93.8296 528.272 93.6085 528.337 93.4004 528.337Z" fill="#455A64"/>
<path d="M97.3152 524.658C97.1981 524.606 97.0681 524.58 96.925 524.58H90.7342C90.5261 524.58 90.305 524.645 90.136 524.775L87.1316 527.011C86.7024 527.323 86.6374 527.843 86.8325 528.259C86.1562 527.986 85.9611 527.011 86.6244 526.517L89.6287 524.281C89.7978 524.151 90.0189 524.086 90.227 524.086H96.4178C96.86 524.086 97.1851 524.346 97.3282 524.671L97.3152 524.658Z" fill="#37474F"/>
<path d="M84.5565 525.893L81.5651 528.129C81.396 528.259 81.1749 528.324 80.9538 528.324H69.9639L76.2457 524.567C76.5318 524.398 76.831 524.216 77.1301 524.06H83.9712C83.9712 524.06 84.0883 524.06 84.1403 524.073C84.1793 524.073 84.2183 524.086 84.2573 524.099C84.4394 524.151 84.5955 524.242 84.7125 524.372C84.7386 524.398 84.7646 524.437 84.7906 524.463C84.8296 524.515 84.8556 524.58 84.8816 524.632C85.0637 525.035 84.9987 525.555 84.5695 525.867L84.5565 525.893Z" fill="#455A64"/>
<path d="M84.8685 524.658C84.7515 524.606 84.6214 524.58 84.4783 524.58H76.2456C76.5317 524.411 76.8309 524.229 77.13 524.073H83.9711C83.9711 524.073 84.0882 524.073 84.1402 524.086C84.1792 524.086 84.2182 524.099 84.2572 524.112C84.4393 524.164 84.5954 524.255 84.7124 524.385C84.7384 524.411 84.7645 524.45 84.7905 524.476C84.8295 524.528 84.8555 524.593 84.8815 524.645L84.8685 524.658Z" fill="#37474F"/>
<path d="M105.47 528.337H99.279C98.3036 528.337 97.9004 527.102 98.6807 526.517L101.685 524.281C101.854 524.151 102.075 524.086 102.283 524.086H108.474C109.45 524.086 109.853 525.321 109.072 525.906L106.068 528.142C105.899 528.272 105.678 528.337 105.47 528.337Z" fill="#455A64"/>
<path d="M109.385 524.658C109.267 524.606 109.137 524.58 108.994 524.58H102.804C102.595 524.58 102.374 524.645 102.205 524.775L99.201 527.011C98.7718 527.323 98.7067 527.843 98.9018 528.259C98.2255 527.986 98.0304 527.011 98.6937 526.517L101.698 524.281C101.867 524.151 102.088 524.086 102.296 524.086H108.487C108.929 524.086 109.254 524.346 109.398 524.671L109.385 524.658Z" fill="#37474F"/>
<path d="M117.526 528.337H111.336C110.36 528.337 109.957 527.102 110.737 526.517L113.742 524.281C113.911 524.151 114.132 524.086 114.34 524.086H120.531C121.506 524.086 121.909 525.321 121.129 525.906L118.125 528.142C117.956 528.272 117.735 528.337 117.526 528.337Z" fill="#455A64"/>
<path d="M121.441 524.658C121.324 524.606 121.194 524.58 121.051 524.58H114.86C114.652 524.58 114.431 524.645 114.262 524.775L111.258 527.011C110.828 527.323 110.763 527.843 110.958 528.259C110.282 527.986 110.087 527.011 110.75 526.517L113.755 524.281C113.924 524.151 114.145 524.086 114.353 524.086H120.544C120.986 524.086 121.311 524.346 121.454 524.671L121.441 524.658Z" fill="#37474F"/>
<path d="M179.565 519.978H131.859C129.338 519.978 127.294 522.021 127.294 524.541V531.457C127.294 533.977 129.338 536.02 131.859 536.02H179.565C182.086 536.02 184.13 533.977 184.13 531.457V524.541C184.13 522.021 182.086 519.978 179.565 519.978Z" fill="#007EF5"/>
<path d="M184.129 530.482V532.445H137.646L141.444 530.482H184.129Z" fill="#37474F"/>
<path d="M140.196 528.337H134.005C133.03 528.337 132.626 527.102 133.407 526.517L136.411 524.281C136.58 524.151 136.801 524.086 137.009 524.086H143.2C144.176 524.086 144.579 525.321 143.798 525.906L140.794 528.142C140.625 528.272 140.404 528.337 140.196 528.337Z" fill="#455A64"/>
<path d="M144.111 524.658C143.994 524.606 143.864 524.58 143.72 524.58H137.53C137.322 524.58 137.1 524.645 136.931 524.775L133.927 527.011C133.498 527.323 133.433 527.843 133.628 528.259C132.952 527.986 132.756 527.011 133.42 526.517L136.424 524.281C136.593 524.151 136.814 524.086 137.022 524.086H143.213C143.655 524.086 143.981 524.346 144.124 524.671L144.111 524.658Z" fill="#37474F"/>
<path d="M152.252 528.337H146.061C145.086 528.337 144.683 527.102 145.463 526.517L148.467 524.281C148.636 524.151 148.857 524.086 149.066 524.086H155.256C156.232 524.086 156.635 525.321 155.855 525.906L152.85 528.142C152.681 528.272 152.46 528.337 152.252 528.337Z" fill="#455A64"/>
<path d="M156.167 524.658C156.05 524.606 155.92 524.58 155.777 524.58H149.586C149.378 524.58 149.157 524.645 148.988 524.775L145.983 527.011C145.554 527.323 145.489 527.843 145.684 528.259C145.008 527.986 144.813 527.011 145.476 526.517L148.48 524.281C148.649 524.151 148.87 524.086 149.079 524.086H155.269C155.712 524.086 156.037 524.346 156.18 524.671L156.167 524.658Z" fill="#37474F"/>
<path d="M164.322 528.337H158.131C157.156 528.337 156.752 527.102 157.533 526.517L160.537 524.281C160.706 524.151 160.927 524.086 161.135 524.086H167.326C168.302 524.086 168.705 525.321 167.924 525.906L164.92 528.142C164.751 528.272 164.53 528.337 164.322 528.337Z" fill="#455A64"/>
<path d="M168.237 524.658C168.12 524.606 167.989 524.58 167.846 524.58H161.656C161.448 524.58 161.226 524.645 161.057 524.775L158.053 527.011C157.624 527.323 157.559 527.843 157.754 528.259C157.078 527.986 156.882 527.011 157.546 526.517L160.55 524.281C160.719 524.151 160.94 524.086 161.148 524.086H167.339C167.781 524.086 168.107 524.346 168.25 524.671L168.237 524.658Z" fill="#37474F"/>
<path d="M176.378 528.337H170.187C169.212 528.337 168.809 527.102 169.589 526.517L172.593 524.281C172.762 524.151 172.983 524.086 173.192 524.086H179.382C180.358 524.086 180.761 525.321 179.981 525.906L176.976 528.142C176.807 528.272 176.586 528.337 176.378 528.337Z" fill="#455A64"/>
<path d="M180.293 524.658C180.176 524.606 180.046 524.58 179.903 524.58H173.712C173.504 524.58 173.283 524.645 173.113 524.775L170.109 527.011C169.68 527.323 169.615 527.843 169.81 528.259C169.134 527.986 168.939 527.011 169.602 526.517L172.606 524.281C172.775 524.151 172.996 524.086 173.205 524.086H179.395C179.838 524.086 180.163 524.346 180.306 524.671L180.293 524.658Z" fill="#37474F"/>
<path d="M237.48 519.978H189.774C187.253 519.978 185.209 522.021 185.209 524.541V531.457C185.209 533.977 187.253 536.02 189.774 536.02H237.48C240.001 536.02 242.045 533.977 242.045 531.457V524.541C242.045 522.021 240.001 519.978 237.48 519.978Z" fill="#007EF5"/>
<path d="M242.045 530.482V532.445H195.562L199.359 530.482H242.045Z" fill="#37474F"/>
<path d="M198.111 528.337H191.92C190.945 528.337 190.541 527.102 191.322 526.517L194.326 524.281C194.495 524.151 194.716 524.086 194.924 524.086H201.115C202.091 524.086 202.494 525.321 201.714 525.906L198.709 528.142C198.54 528.272 198.319 528.337 198.111 528.337Z" fill="#455A64"/>
<path d="M202.013 524.658C201.896 524.606 201.766 524.58 201.623 524.58H195.432C195.224 524.58 195.003 524.645 194.834 524.775L191.829 527.011C191.4 527.323 191.335 527.843 191.53 528.259C190.854 527.986 190.659 527.011 191.322 526.517L194.326 524.281C194.496 524.151 194.717 524.086 194.925 524.086H201.116C201.558 524.086 201.883 524.346 202.026 524.671L202.013 524.658Z" fill="#37474F"/>
<path d="M210.167 528.337H203.976C203.001 528.337 202.598 527.102 203.378 526.517L206.382 524.281C206.551 524.151 206.773 524.086 206.981 524.086H213.171C214.147 524.086 214.55 525.321 213.77 525.906L210.765 528.142C210.596 528.272 210.375 528.337 210.167 528.337Z" fill="#455A64"/>
<path d="M214.082 524.658C213.965 524.606 213.835 524.58 213.692 524.58H207.501C207.293 524.58 207.072 524.645 206.903 524.775L203.898 527.011C203.469 527.323 203.404 527.843 203.599 528.259C202.923 527.986 202.728 527.011 203.391 526.517L206.395 524.281C206.564 524.151 206.786 524.086 206.994 524.086H213.184C213.627 524.086 213.952 524.346 214.095 524.671L214.082 524.658Z" fill="#37474F"/>
<path d="M222.237 528.337H216.046C215.071 528.337 214.667 527.102 215.448 526.517L218.452 524.281C218.621 524.151 218.842 524.086 219.05 524.086H225.241C226.217 524.086 226.62 525.321 225.84 525.906L222.835 528.142C222.666 528.272 222.445 528.337 222.237 528.337Z" fill="#455A64"/>
<path d="M226.139 524.658C226.022 524.606 225.892 524.58 225.749 524.58H219.558C219.35 524.58 219.129 524.645 218.96 524.775L215.955 527.011C215.526 527.323 215.461 527.843 215.656 528.259C214.98 527.986 214.785 527.011 215.448 526.517L218.452 524.281C218.622 524.151 218.843 524.086 219.051 524.086H225.242C225.684 524.086 226.009 524.346 226.152 524.671L226.139 524.658Z" fill="#37474F"/>
<path d="M234.293 528.337H228.102C227.127 528.337 226.724 527.102 227.504 526.517L230.508 524.281C230.677 524.151 230.899 524.086 231.107 524.086H237.297C238.273 524.086 238.676 525.321 237.896 525.906L234.891 528.142C234.722 528.272 234.501 528.337 234.293 528.337Z" fill="#455A64"/>
<path d="M238.208 524.658C238.091 524.606 237.961 524.58 237.818 524.58H231.627C231.419 524.58 231.198 524.645 231.029 524.775L228.024 527.011C227.595 527.323 227.53 527.843 227.725 528.259C227.049 527.986 226.854 527.011 227.517 526.517L230.521 524.281C230.69 524.151 230.911 524.086 231.12 524.086H237.31C237.753 524.086 238.078 524.346 238.221 524.671L238.208 524.658Z" fill="#37474F"/>
<path d="M295.395 519.978H247.689C245.168 519.978 243.124 522.021 243.124 524.541V531.457C243.124 533.977 245.168 536.02 247.689 536.02H295.395C297.916 536.02 299.96 533.977 299.96 531.457V524.541C299.96 522.021 297.916 519.978 295.395 519.978Z" fill="#007EF5"/>
<path d="M299.96 530.482V532.445H253.477L257.274 530.482H299.96Z" fill="#37474F"/>
<path d="M256.013 528.337H249.822C248.847 528.337 248.443 527.102 249.224 526.517L252.228 524.281C252.397 524.151 252.618 524.086 252.826 524.086H259.017C259.993 524.086 260.396 525.321 259.615 525.906L256.611 528.142C256.442 528.272 256.221 528.337 256.013 528.337Z" fill="#455A64"/>
<path d="M259.928 524.658C259.81 524.606 259.68 524.58 259.537 524.58H253.347C253.138 524.58 252.917 524.645 252.748 524.775L249.744 527.011C249.315 527.323 249.25 527.843 249.445 528.259C248.768 527.986 248.573 527.011 249.237 526.517L252.241 524.281C252.41 524.151 252.631 524.086 252.839 524.086H259.03C259.472 524.086 259.797 524.346 259.941 524.671L259.928 524.658Z" fill="#37474F"/>
<path d="M268.082 528.337H261.891C260.916 528.337 260.513 527.102 261.293 526.517L264.297 524.281C264.466 524.151 264.688 524.086 264.896 524.086H271.086C272.062 524.086 272.465 525.321 271.685 525.906L268.68 528.142C268.511 528.272 268.29 528.337 268.082 528.337Z" fill="#455A64"/>
<path d="M271.997 524.658C271.88 524.606 271.75 524.58 271.607 524.58H265.416C265.208 524.58 264.987 524.645 264.818 524.775L261.813 527.011C261.384 527.323 261.319 527.843 261.514 528.259C260.838 527.986 260.643 527.011 261.306 526.517L264.31 524.281C264.479 524.151 264.701 524.086 264.909 524.086H271.099C271.542 524.086 271.867 524.346 272.01 524.671L271.997 524.658Z" fill="#37474F"/>
<path d="M280.139 528.337H273.948C272.972 528.337 272.569 527.102 273.35 526.517L276.354 524.281C276.523 524.151 276.744 524.086 276.952 524.086H283.143C284.119 524.086 284.522 525.321 283.741 525.906L280.737 528.142C280.568 528.272 280.347 528.337 280.139 528.337Z" fill="#455A64"/>
<path d="M284.053 524.658C283.936 524.606 283.806 524.58 283.663 524.58H277.473C277.264 524.58 277.043 524.645 276.874 524.775L273.87 527.011C273.441 527.323 273.376 527.843 273.571 528.259C272.894 527.986 272.699 527.011 273.363 526.517L276.367 524.281C276.536 524.151 276.757 524.086 276.965 524.086H283.156C283.598 524.086 283.923 524.346 284.066 524.671L284.053 524.658Z" fill="#37474F"/>
<path d="M292.208 528.337H286.017C285.042 528.337 284.639 527.102 285.419 526.517L288.423 524.281C288.592 524.151 288.814 524.086 289.022 524.086H295.212C296.188 524.086 296.591 525.321 295.811 525.906L292.806 528.142C292.637 528.272 292.416 528.337 292.208 528.337Z" fill="#455A64"/>
<path d="M296.123 524.658C296.006 524.606 295.876 524.58 295.733 524.58H289.542C289.334 524.58 289.113 524.645 288.944 524.775L285.939 527.011C285.51 527.323 285.445 527.843 285.64 528.259C284.964 527.986 284.769 527.011 285.432 526.517L288.436 524.281C288.605 524.151 288.827 524.086 289.035 524.086H295.225C295.668 524.086 295.993 524.346 296.136 524.671L296.123 524.658Z" fill="#37474F"/>
<path d="M197.929 687.223H149.82V279.348L197.929 239.139V687.223Z" fill="#455A64"/>
<path d="M197.929 687.223H220.988V335.742L197.929 300.928V687.223Z" fill="#37474F"/>
<g opacity="0.1">
<path d="M221.001 495.109V530.547L197.929 507.498V472.06L221.001 495.109Z" fill="white"/>
<path d="M221.001 367.462V385.168L197.929 362.132V344.387L221.001 367.462Z" fill="white"/>
<path d="M221.001 624.68V642.386L197.929 619.337V601.605L221.001 624.68Z" fill="white"/>
<path d="M221.001 473.815V478.183L197.929 455.121V450.753L221.001 473.815Z" fill="white"/>
<path d="M221.001 658.48V662.848L197.929 639.773V635.431L221.001 658.48Z" fill="white"/>
</g>
<path d="M167.313 391.759C167.313 393.917 165.557 395.672 163.398 395.672C161.239 395.672 159.483 393.917 159.483 391.759C159.483 389.601 161.239 387.846 163.398 387.846C165.557 387.846 167.313 389.601 167.313 391.759Z" fill="#DBDBDB"/>
<path d="M160.42 391.85C160.42 393.8 161.98 395.386 163.944 395.386C164.556 395.386 165.128 395.23 165.622 394.957C164.998 395.412 164.217 395.659 163.385 395.659C161.226 395.659 159.47 393.917 159.47 391.746C159.47 389.575 161.226 387.833 163.385 387.833C164.803 387.833 166.025 388.574 166.727 389.692C166.077 388.86 165.076 388.327 163.944 388.327C161.993 388.327 160.42 389.9 160.42 391.85Z" fill="#263238"/>
<path d="M167.313 406.254C167.313 408.412 165.557 410.167 163.398 410.167C161.239 410.167 159.483 408.412 159.483 406.254C159.483 404.096 161.239 402.341 163.398 402.341C165.557 402.341 167.313 404.096 167.313 406.254Z" fill="#DBDBDB"/>
<path d="M160.42 406.358C160.42 408.308 161.98 409.894 163.944 409.894C164.556 409.894 165.128 409.738 165.622 409.465C164.998 409.92 164.217 410.167 163.385 410.167C161.226 410.167 159.47 408.425 159.47 406.254C159.47 404.083 161.226 402.341 163.385 402.341C164.803 402.341 166.025 403.082 166.727 404.2C166.077 403.368 165.076 402.835 163.944 402.835C161.993 402.835 160.42 404.408 160.42 406.358Z" fill="#263238"/>
<path d="M163.398 424.675C165.56 424.675 167.313 422.923 167.313 420.762C167.313 418.601 165.56 416.849 163.398 416.849C161.236 416.849 159.483 418.601 159.483 420.762C159.483 422.923 161.236 424.675 163.398 424.675Z" fill="#DBDBDB"/>
<path d="M160.42 420.866C160.42 422.816 161.98 424.402 163.944 424.402C164.556 424.402 165.128 424.246 165.622 423.973C164.998 424.428 164.217 424.675 163.385 424.675C161.226 424.675 159.47 422.933 159.47 420.762C159.47 418.591 161.226 416.849 163.385 416.849C164.803 416.849 166.025 417.59 166.727 418.708C166.077 417.876 165.076 417.343 163.944 417.343C161.993 417.343 160.42 418.916 160.42 420.866Z" fill="#263238"/>
<path d="M172.411 322.222H197.929V319.557H172.411V322.222Z" fill="#37474F"/>
<path d="M166.87 322.222H169.537V319.557H166.87V322.222Z" fill="#37474F"/>
<path d="M162.579 570.184H149.82V572.849H162.579V570.184Z" fill="#37474F"/>
<path d="M168.119 570.184H165.453V572.849H168.119V570.184Z" fill="#37474F"/>
<path d="M149.82 564.75H174.102V562.085H149.82V564.75Z" fill="#37474F"/>
<path d="M183.83 313.057H197.929V310.392H183.83V313.057Z" fill="#37474F"/>
<path d="M181.125 330.425H176.534V687.223H181.125V330.425Z" fill="#007EF5"/>
<path opacity="0.2" d="M178.055 330.425H176.534V687.223H178.055V330.425Z" fill="black"/>
<path d="M191.127 330.425H186.536V687.223H191.127V330.425Z" fill="#007EF5"/>
<path opacity="0.2" d="M188.057 330.425H186.536V687.223H188.057V330.425Z" fill="black"/>
<path d="M173.868 451.806H197.929V449.141H173.868V451.806Z" fill="#37474F"/>
<path d="M183.83 603.126H197.929V600.461H183.83V603.126Z" fill="#37474F"/>
<path d="M269.37 687.223H234.449L242.734 245.158H261.085L269.37 687.223Z" fill="#DBDBDB"/>
<path d="M242.734 245.158H261.085L261.358 254.713L242.526 252.49L242.734 245.158Z" fill="#C7C7C7"/>
<path d="M251.903 250.527C272.827 250.527 289.789 233.572 289.789 212.658C289.789 191.743 272.827 174.789 251.903 174.789C230.979 174.789 214.017 191.743 214.017 212.658C214.017 233.572 230.979 250.527 251.903 250.527Z" fill="#DBDBDB"/>
<path d="M253.945 175.764H249.861L251.227 123.439H252.58L253.945 175.764Z" fill="#DBDBDB"/>
<path opacity="0.05" d="M289.802 212.658C289.802 233.562 272.843 250.527 251.903 250.527C230.964 250.527 214.017 233.575 214.017 212.658C214.017 191.741 230.977 174.776 251.903 174.776C259.213 174.776 266.028 176.843 271.802 180.418C266.782 177.454 260.916 175.751 254.66 175.751C235.984 175.751 220.845 190.883 220.845 209.551C220.845 228.219 235.984 243.338 254.66 243.338C273.337 243.338 288.463 228.219 288.463 209.551C288.463 201.959 285.966 194.965 281.752 189.336C286.811 195.771 289.802 203.87 289.802 212.658Z" fill="black"/>
<path d="M290.83 206.327H212.99C209.614 206.327 206.877 209.063 206.877 212.437V212.879C206.877 216.253 209.614 218.989 212.99 218.989H290.83C294.206 218.989 296.943 216.253 296.943 212.879V212.437C296.943 209.063 294.206 206.327 290.83 206.327Z" fill="#455A64"/>
<path d="M235.997 196.148V198.813H216.645C216.996 197.903 217.373 197.019 217.815 196.148H235.997Z" fill="#C7C7C7"/>
<path d="M286.278 228.583C285.862 229.493 285.407 230.377 284.899 231.248H269.422V228.583H286.265H286.278Z" fill="#C7C7C7"/>
<path d="M263.882 231.261H266.548V228.596H263.882V231.261Z" fill="#C7C7C7"/>
<path d="M268.252 627.813H251.37V625.148H268.2L268.252 627.813Z" fill="#C7C7C7"/>
<path d="M245.829 627.826H248.496V625.161H245.829V627.826Z" fill="#C7C7C7"/>
<path d="M280.816 237.124C280.048 238.047 279.229 238.944 278.332 239.789H271.334V237.124H280.816Z" fill="#C7C7C7"/>
<path d="M248.756 268.727V271.392H242.24L242.292 268.727H248.756Z" fill="#C7C7C7"/>
<path d="M254.31 268.727H251.644V271.392H254.31V268.727Z" fill="#C7C7C7"/>
<path d="M252.515 482.59V485.242H238.234L238.286 482.59H252.515Z" fill="#C7C7C7"/>
<path d="M258.055 482.577H255.389V485.242H258.055V482.577Z" fill="#C7C7C7"/>
<path d="M262.152 302.28H255.805V299.615H262.1L262.152 302.28Z" fill="#C7C7C7"/>
<path d="M265.416 475.856H249.796V473.191H265.364L265.416 475.856Z" fill="#C7C7C7"/>
<path d="M268.122 620.559H255.805V617.894H268.07L268.122 620.559Z" fill="#C7C7C7"/>
<path d="M255.805 377.537V380.202H240.198L240.25 377.537H255.805Z" fill="#C7C7C7"/>
<path d="M262.36 313.083H247.417V310.418H262.308L262.36 313.083Z" fill="#C7C7C7"/>
<path d="M252.684 280.154C252.684 282.312 250.928 284.067 248.769 284.067C246.61 284.067 244.854 282.312 244.854 280.154C244.854 277.996 246.61 276.241 248.769 276.241C250.928 276.241 252.684 277.996 252.684 280.154Z" fill="#455A64"/>
<path d="M245.791 280.258C245.791 282.208 247.351 283.794 249.315 283.794C249.927 283.794 250.499 283.638 250.993 283.365C250.369 283.82 249.588 284.067 248.756 284.067C246.597 284.067 244.841 282.325 244.841 280.154C244.841 277.983 246.597 276.241 248.756 276.241C250.174 276.241 251.396 276.982 252.099 278.1C251.448 277.268 250.447 276.735 249.315 276.735C247.364 276.735 245.791 278.308 245.791 280.258Z" fill="#37474F"/>
<path d="M252.684 294.662C252.684 296.82 250.928 298.575 248.769 298.575C246.61 298.575 244.854 296.82 244.854 294.662C244.854 292.504 246.61 290.749 248.769 290.749C250.928 290.749 252.684 292.504 252.684 294.662Z" fill="#455A64"/>
<path d="M245.791 294.766C245.791 296.716 247.351 298.302 249.315 298.302C249.927 298.302 250.499 298.146 250.993 297.873C250.369 298.328 249.588 298.575 248.756 298.575C246.597 298.575 244.841 296.833 244.841 294.662C244.841 292.491 246.597 290.749 248.756 290.749C250.174 290.749 251.396 291.49 252.099 292.608C251.448 291.776 250.447 291.243 249.315 291.243C247.364 291.243 245.791 292.816 245.791 294.766Z" fill="#37474F"/>
<path d="M252.684 309.17C252.684 311.328 250.928 313.083 248.769 313.083C246.61 313.083 244.854 311.328 244.854 309.17C244.854 307.012 246.61 305.257 248.769 305.257C250.928 305.257 252.684 307.012 252.684 309.17Z" fill="#455A64"/>
<path d="M245.791 309.274C245.791 311.224 247.351 312.81 249.315 312.81C249.927 312.81 250.499 312.654 250.993 312.381C250.369 312.836 249.588 313.083 248.756 313.083C246.597 313.083 244.841 311.341 244.841 309.17C244.841 306.999 246.597 305.257 248.756 305.257C250.174 305.257 251.396 305.998 252.099 307.116C251.448 306.284 250.447 305.751 249.315 305.751C247.364 305.751 245.791 307.324 245.791 309.274Z" fill="#37474F"/>
<path d="M102.869 687.184H67.9478L76.2195 373.052H94.5838L102.869 687.184Z" fill="#DBDBDB"/>
<path d="M76.2195 373.052H94.5838L94.8569 382.607L76.0244 380.384L76.2195 373.052Z" fill="#C7C7C7"/>
<path d="M85.4017 378.421C106.326 378.421 123.288 361.466 123.288 340.552C123.288 319.637 106.326 302.683 85.4017 302.683C64.4778 302.683 47.5156 319.637 47.5156 340.552C47.5156 361.466 64.4778 378.421 85.4017 378.421Z" fill="#DBDBDB"/>
<path opacity="0.05" d="M123.301 340.565C123.301 361.469 106.341 378.434 85.4017 378.434C64.4623 378.434 47.5156 361.482 47.5156 340.565C47.5156 319.648 64.4753 302.683 85.4017 302.683C92.7111 302.683 99.5261 304.75 105.301 308.325C100.28 305.361 94.4148 303.658 88.159 303.658C69.4826 303.658 54.3437 318.79 54.3437 337.458C54.3437 356.126 69.4826 371.245 88.159 371.245C106.835 371.245 121.961 356.126 121.961 337.458C121.961 329.866 119.464 322.872 115.25 317.243C120.31 323.678 123.301 331.777 123.301 340.565Z" fill="black"/>
<path d="M124.328 334.221H46.4883C43.1123 334.221 40.3755 336.956 40.3755 340.331V340.773C40.3755 344.147 43.1123 346.883 46.4883 346.883H124.328C127.704 346.883 130.441 344.147 130.441 340.773V340.331C130.441 336.956 127.704 334.221 124.328 334.221Z" fill="#455A64"/>
<path d="M87.4437 303.658H83.3599L84.7255 251.333H86.0781L87.4437 303.658Z" fill="#DBDBDB"/>
<path d="M98.4206 518.756H83.1387V516.104H98.3555L98.4206 518.756Z" fill="#C7C7C7"/>
<path d="M119.035 323.093H99.8125V320.428H117.501C118.06 321.286 118.58 322.183 119.035 323.093Z" fill="#C7C7C7"/>
<path d="M98.6419 527.154H89.8369V524.489H98.5769L98.6419 527.154Z" fill="#C7C7C7"/>
<path d="M60.5215 355.671V358.336H51.9507C51.4694 357.465 51.0533 356.581 50.6631 355.671H60.5085H60.5215Z" fill="#C7C7C7"/>
<path d="M66.0749 355.671H63.4087V358.336H66.0749V355.671Z" fill="#C7C7C7"/>
<path d="M77.7936 363.497V366.162H57.4914C56.7111 365.304 55.9697 364.42 55.2544 363.497H77.7936Z" fill="#C7C7C7"/>
<path d="M80.2776 306.869V309.534H63.6821C65.0868 308.533 66.5564 307.636 68.1041 306.869H80.2776Z" fill="#C7C7C7"/>
<path d="M82.6965 591.205V593.87H70.4189L70.484 591.205H82.6965Z" fill="#C7C7C7"/>
<path d="M88.237 591.205H85.5708V593.87H88.237V591.205Z" fill="#C7C7C7"/>
<path d="M85.9998 408.308V410.973H75.231L75.309 408.308H85.9998Z" fill="#C7C7C7"/>
<path d="M91.5534 408.308H88.8872V410.973H91.5534V408.308Z" fill="#C7C7C7"/>
<path d="M88.2111 430.668C90.3732 430.668 92.1259 428.916 92.1259 426.755C92.1259 424.594 90.3732 422.842 88.2111 422.842C86.0491 422.842 84.2964 424.594 84.2964 426.755C84.2964 428.916 86.0491 430.668 88.2111 430.668Z" fill="#455A64"/>
<path d="M85.2458 426.846C85.2458 428.796 86.8065 430.382 88.7704 430.382C89.3817 430.382 89.9539 430.226 90.4482 429.953C89.8239 430.408 89.0435 430.655 88.2111 430.655C86.0522 430.655 84.2964 428.913 84.2964 426.742C84.2964 424.571 86.0522 422.829 88.2111 422.829C89.6288 422.829 90.8514 423.57 91.5537 424.688C90.9034 423.856 89.9019 423.323 88.7704 423.323C86.8195 423.323 85.2458 424.896 85.2458 426.846Z" fill="#37474F"/>
<path d="M92.1391 441.263C92.1391 443.421 90.3833 445.176 88.2243 445.176C86.0654 445.176 84.3096 443.421 84.3096 441.263C84.3096 439.105 86.0654 437.35 88.2243 437.35C90.3833 437.35 92.1391 439.105 92.1391 441.263Z" fill="#455A64"/>
<path d="M85.2458 441.354C85.2458 443.304 86.8065 444.89 88.7704 444.89C89.3817 444.89 89.9539 444.734 90.4482 444.461C89.8239 444.916 89.0435 445.163 88.2111 445.163C86.0522 445.163 84.2964 443.421 84.2964 441.25C84.2964 439.079 86.0522 437.337 88.2111 437.337C89.6288 437.337 90.8514 438.078 91.5537 439.196C90.9034 438.364 89.9019 437.831 88.7704 437.831C86.8195 437.831 85.2458 439.404 85.2458 441.354Z" fill="#37474F"/>
<path d="M92.1391 455.771C92.1391 457.929 90.3833 459.684 88.2243 459.684C86.0654 459.684 84.3096 457.929 84.3096 455.771C84.3096 453.613 86.0654 451.858 88.2243 451.858C90.3833 451.858 92.1391 453.613 92.1391 455.771Z" fill="#455A64"/>
<path d="M85.2458 455.862C85.2458 457.812 86.8065 459.398 88.7704 459.398C89.3817 459.398 89.9539 459.242 90.4482 458.969C89.8239 459.424 89.0435 459.671 88.2111 459.671C86.0522 459.671 84.2964 457.929 84.2964 455.758C84.2964 453.587 86.0522 451.845 88.2111 451.845C89.6288 451.845 90.8514 452.586 91.5537 453.704C90.9034 452.872 89.9019 452.339 88.7704 452.339C86.8195 452.339 85.2458 453.912 85.2458 455.862Z" fill="#37474F"/>
<path d="M748.064 687.223H713.13L721.415 451.195H739.779L748.064 687.223Z" fill="#DBDBDB"/>
<path d="M721.415 451.195H739.779L740.04 460.75L721.207 458.527L721.415 451.195Z" fill="#C7C7C7"/>
<path d="M732.64 381.801H728.556L729.921 329.476H731.274L732.64 381.801Z" fill="#DBDBDB"/>
<path d="M730.598 456.564C751.521 456.564 768.484 439.609 768.484 418.695C768.484 397.78 751.521 380.826 730.598 380.826C709.674 380.826 692.711 397.78 692.711 418.695C692.711 439.609 709.674 456.564 730.598 456.564Z" fill="#DBDBDB"/>
<path opacity="0.05" d="M768.483 418.708C768.483 439.612 751.524 456.577 730.584 456.577C709.645 456.577 692.698 439.625 692.698 418.708C692.698 397.791 709.658 380.826 730.584 380.826C737.894 380.826 744.709 382.893 750.483 386.468C745.463 383.504 739.597 381.801 733.342 381.801C714.665 381.801 699.526 396.933 699.526 415.601C699.526 434.269 714.665 449.388 733.342 449.388C752.018 449.388 767.144 434.269 767.144 415.601C767.144 408.009 764.647 401.015 760.433 395.386C765.492 401.821 768.483 409.92 768.483 418.708Z" fill="black"/>
<path d="M769.511 412.364H691.671C688.295 412.364 685.558 415.099 685.558 418.474V418.916C685.558 422.29 688.295 425.026 691.671 425.026H769.511C772.887 425.026 775.624 422.29 775.624 418.916V418.474C775.624 415.099 772.887 412.364 769.511 412.364Z" fill="#455A64"/>
<path d="M765.024 402.861H750.12V400.209H763.672C764.179 401.067 764.621 401.951 765.037 402.861H765.024Z" fill="#C7C7C7"/>
<path d="M744.566 402.874H747.232V400.209H744.566V402.874Z" fill="#C7C7C7"/>
<path d="M710.933 433.814V436.479H697.146C696.678 435.608 696.249 434.724 695.859 433.814H710.933Z" fill="#C7C7C7"/>
<path d="M741.822 509.682H734.109V507.017H741.744L741.822 509.682Z" fill="#C7C7C7"/>
<path d="M728.556 509.695H731.222V507.03H728.556V509.695Z" fill="#C7C7C7"/>
<path d="M745.06 601.891H728.126V599.213H744.969L745.06 601.891Z" fill="#C7C7C7"/>
<path d="M722.573 601.891H725.239V599.226H722.573V601.891Z" fill="#C7C7C7"/>
<path d="M744.8 594.416H735.332V591.751H744.709L744.8 594.416Z" fill="#C7C7C7"/>
<path d="M747.154 661.613H730.363V658.948H747.063L747.154 661.613Z" fill="#C7C7C7"/>
<path d="M728.66 520.42V523.085H718.905L718.996 520.42H728.66Z" fill="#C7C7C7"/>
<path d="M719.685 441.172V443.837H702.271C701.503 442.979 700.775 442.095 700.099 441.172H719.685Z" fill="#C7C7C7"/>
<path d="M725.239 441.172H722.573V443.837H725.239V441.172Z" fill="#C7C7C7"/>
<path d="M736.554 529.715C736.554 531.873 734.798 533.628 732.639 533.628C730.48 533.628 728.725 531.873 728.725 529.715C728.725 527.557 730.48 525.802 732.639 525.802C734.798 525.802 736.554 527.557 736.554 529.715Z" fill="#455A64"/>
<path d="M729.674 529.819C729.674 531.769 731.235 533.355 733.199 533.355C733.81 533.355 734.382 533.199 734.876 532.926C734.252 533.381 733.472 533.628 732.639 533.628C730.48 533.628 728.725 531.886 728.725 529.715C728.725 527.544 730.48 525.802 732.639 525.802C734.057 525.802 735.28 526.543 735.982 527.661C735.332 526.829 734.33 526.296 733.199 526.296C731.248 526.296 729.674 527.869 729.674 529.819Z" fill="#37474F"/>
<path d="M736.554 544.223C736.554 546.381 734.798 548.136 732.639 548.136C730.48 548.136 728.725 546.381 728.725 544.223C728.725 542.065 730.48 540.31 732.639 540.31C734.798 540.31 736.554 542.065 736.554 544.223Z" fill="#455A64"/>
<path d="M729.674 544.327C729.674 546.277 731.235 547.863 733.199 547.863C733.81 547.863 734.382 547.707 734.876 547.434C734.252 547.889 733.472 548.136 732.639 548.136C730.48 548.136 728.725 546.394 728.725 544.223C728.725 542.052 730.48 540.31 732.639 540.31C734.057 540.31 735.28 541.051 735.982 542.169C735.332 541.337 734.33 540.804 733.199 540.804C731.248 540.804 729.674 542.377 729.674 544.327Z" fill="#37474F"/>
<path d="M736.554 558.731C736.554 560.889 734.798 562.644 732.639 562.644C730.48 562.644 728.725 560.889 728.725 558.731C728.725 556.573 730.48 554.818 732.639 554.818C734.798 554.818 736.554 556.573 736.554 558.731Z" fill="#455A64"/>
<path d="M729.674 558.835C729.674 560.785 731.235 562.371 733.199 562.371C733.81 562.371 734.382 562.215 734.876 561.942C734.252 562.397 733.472 562.644 732.639 562.644C730.48 562.644 728.725 560.902 728.725 558.731C728.725 556.56 730.48 554.818 732.639 554.818C734.057 554.818 735.28 555.559 735.982 556.677C735.332 555.845 734.33 555.312 733.199 555.312C731.248 555.312 729.674 556.885 729.674 558.835Z" fill="#37474F"/>
<path d="M483.564 186.502H367.643V687.21H483.564V186.502Z" fill="#263238"/>
<path d="M450.659 186.502H367.643V204.78H450.659V186.502Z" fill="#455A64"/>
<path d="M450.659 204.78H367.643V211.722H450.659V204.78Z" fill="#37474F"/>
<path d="M450.659 211.722H358.903V323.002H450.659V211.722Z" fill="#455A64"/>
<path d="M489.742 211.722H450.659V323.002H489.742V211.722Z" fill="#37474F"/>
<g opacity="0.1">
<path d="M381.78 211.722H365.549V268.753H381.78V211.722Z" fill="white"/>
<path d="M446.692 282.13H430.461V298.354H446.692V282.13Z" fill="white"/>
<path d="M414.23 211.722H397.999V285.159H414.23V211.722Z" fill="white"/>
<path d="M446.693 211.722H422.346V270.885H446.693V211.722Z" fill="white"/>
<path d="M397.999 285.159H371.779V323.002H397.999V285.159Z" fill="white"/>
<path d="M430.461 303.97H414.23V322.989H430.461V303.97Z" fill="white"/>
</g>
<g opacity="0.1">
<path d="M454.119 252.594H461.09V236.37H454.119V252.594Z" fill="white"/>
<path d="M468.048 322.989H475.019V249.552H468.048V322.989Z" fill="white"/>
<path d="M454.118 323.002H464.575V263.839H454.118V323.002Z" fill="white"/>
<path d="M475.019 249.565H486.282V211.722H475.019V249.565Z" fill="white"/>
<path d="M461.09 230.741H468.061V211.722H461.09V230.741Z" fill="white"/>
</g>
<path d="M425.142 260.732H450.659V258.067H425.142V260.732Z" fill="#37474F"/>
<path d="M419.601 260.732H422.267V258.067H419.601V260.732Z" fill="#37474F"/>
<path d="M434.012 252.347H450.659V249.682H434.012V252.347Z" fill="#37474F"/>
<path d="M358.89 233.627H375.537V230.962H358.89V233.627Z" fill="#37474F"/>
<path d="M358.903 242.909H367.643V240.244H358.903V242.909Z" fill="#37474F"/>
<path d="M370.14 303.97H358.903V306.635H370.14V303.97Z" fill="#37474F"/>
<path d="M375.68 303.97H373.014V306.635H375.68V303.97Z" fill="#37474F"/>
<path d="M450.659 329.346H358.903V569.599H450.659V329.346Z" fill="#455A64"/>
<path d="M489.742 329.346H450.659V569.599H489.742V329.346Z" fill="#37474F"/>
<g opacity="0.1">
<path d="M430.448 569.612H446.679V492.093H430.448V569.612Z" fill="white"/>
<path d="M424.205 394.853H440.437V378.629H424.205V394.853Z" fill="white"/>
<path d="M373.652 503.39H389.883V487.166H373.652V503.39Z" fill="white"/>
<path d="M424.205 367.124H440.437V329.333H424.205V367.124Z" fill="white"/>
<path d="M369.594 569.599H389.883V518.847H369.594V569.599Z" fill="white"/>
<path d="M397.998 569.599H414.229V451.182H397.998V569.599Z" fill="white"/>
<path d="M365.536 478.144H389.883V405.24H365.536V478.144Z" fill="white"/>
<path d="M389.882 404.915H414.229V329.346H389.882V404.915Z" fill="white"/>
<path d="M414.217 451.195H440.437V404.915H414.217V451.195Z" fill="white"/>
<path d="M365.536 381.619H381.767V329.242H365.536V381.619Z" fill="white"/>
</g>
<path d="M384.42 386.741H358.903V389.406H384.42V386.741Z" fill="#37474F"/>
<path d="M389.961 386.741H387.294V389.406H389.961V386.741Z" fill="#37474F"/>
<path d="M373.313 492.08H358.903V494.745H373.313V492.08Z" fill="#37474F"/>
<path d="M378.867 492.08H376.201V494.745H378.867V492.08Z" fill="#37474F"/>
<path d="M375.589 395.36H358.903V398.025H375.589V395.36Z" fill="#37474F"/>
<path d="M386.475 551.1H358.903V553.765H386.475V551.1Z" fill="#37474F"/>
<path d="M450.659 348.872H423.087V351.537H450.659V348.872Z" fill="#37474F"/>
<path d="M437.9 470.318H450.659V467.653H437.9V470.318Z" fill="#37474F"/>
<path d="M432.36 470.318H435.026V467.653H432.36V470.318Z" fill="#37474F"/>
<g opacity="0.1">
<path d="M461.012 329.255H454.886V406.774H461.012V329.255Z" fill="white"/>
<path d="M463.366 504.001H457.24V520.225H463.366V504.001Z" fill="white"/>
<path d="M482.459 395.464H476.333V411.688H482.459V395.464Z" fill="white"/>
<path d="M463.366 531.717H457.24V569.508H463.366V531.717Z" fill="white"/>
<path d="M483.993 329.255H476.333V380.007H483.993V329.255Z" fill="white"/>
<path d="M473.263 329.255H467.138V461.127H473.263V329.255Z" fill="white"/>
<path d="M485.528 420.71H476.333V493.614H485.528V420.71Z" fill="white"/>
<path d="M476.333 493.939H467.138V569.508H476.333V493.939Z" fill="white"/>
<path d="M467.138 461.114H457.24V493.926H467.138V461.114Z" fill="white"/>
<path d="M485.515 517.222H479.389V569.599H485.515V517.222Z" fill="white"/>
</g>
<path d="M450.659 575.943H358.903V687.223H450.659V575.943Z" fill="#455A64"/>
<path d="M489.742 575.943H450.659V687.223H489.742V575.943Z" fill="#37474F"/>
<g opacity="0.1">
<path d="M429.121 687.223H445.353V630.192H429.121V687.223Z" fill="white"/>
<path d="M364.209 616.815H380.44V600.591H364.209V616.815Z" fill="white"/>
<path d="M396.671 687.21H412.903V613.773H396.671V687.21Z" fill="white"/>
<path d="M364.209 687.223H388.556V628.06H364.209V687.223Z" fill="white"/>
<path d="M412.89 613.786H439.11V575.943H412.89V613.786Z" fill="white"/>
<path d="M380.427 594.975H396.659V575.956H380.427V594.975Z" fill="white"/>
</g>
<g opacity="0.1">
<path d="M461.181 575.943H455.172V632.974H461.181V575.943Z" fill="white"/>
<path d="M485.229 646.351H479.22V662.575H485.229V646.351Z" fill="white"/>
<path d="M473.199 575.943H467.19V649.38H473.199V575.943Z" fill="white"/>
<path d="M485.229 575.943H476.216V635.106H485.229V575.943Z" fill="white"/>
<path d="M467.19 649.38H457.475V687.223H467.19V649.38Z" fill="white"/>
<path d="M479.22 668.191H473.211V687.21H479.22V668.191Z" fill="white"/>
</g>
<path d="M384.42 638.213H358.903V640.878H384.42V638.213Z" fill="#37474F"/>
<path d="M389.961 638.213H387.294V640.878H389.961V638.213Z" fill="#37474F"/>
<path d="M437.991 594.871H450.659V592.206H437.991V594.871Z" fill="#37474F"/>
<path d="M432.425 594.871H435.091V592.206H432.425V594.871Z" fill="#37474F"/>
<path d="M358.889 649.562H377.709V646.897H358.889V649.562Z" fill="#37474F"/>
<path d="M419.003 670.089H450.659V667.424H419.003V670.089Z" fill="#37474F"/>
<path d="M483.564 204.78H450.659V211.722H483.564V204.78Z" fill="#263238"/>
<path d="M483.564 186.502H450.659V204.78H483.564V186.502Z" fill="#37474F"/>
<path d="M351.892 305.894H294.367V687.223H351.892V305.894Z" fill="#007EF5"/>
<path d="M294.367 305.894C245.491 363.51 238.819 495.85 238.819 571.393V687.223H294.367V305.894Z" fill="#007EF5"/>
<path opacity="0.2" d="M294.367 305.894C245.491 363.51 238.819 495.85 238.819 571.393V687.223H294.367V305.894Z" fill="black"/>
<path d="M351.892 318.14H303.367V327.084H351.892V318.14Z" fill="#455A64"/>
<path d="M351.892 318.14H303.367V321.117H351.892V318.14Z" fill="#37474F"/>
<path d="M303.367 318.14V327.084H306.346V318.14H303.367Z" fill="#37474F"/>
<path d="M351.892 334.871H303.367V343.815H351.892V334.871Z" fill="#455A64"/>
<path d="M351.892 334.871H303.367V337.848H351.892V334.871Z" fill="#37474F"/>
<path d="M303.367 334.858V343.802H306.346V334.858H303.367Z" fill="#37474F"/>
<path d="M351.892 351.589H303.367V360.533H351.892V351.589Z" fill="#455A64"/>
<path d="M351.892 351.589H303.367V354.566H351.892V351.589Z" fill="#37474F"/>
<path d="M303.38 351.589V360.533H306.359V351.589H303.38Z" fill="#37474F"/>
<path d="M351.892 368.307H303.367V377.251H351.892V368.307Z" fill="#455A64"/>
<path d="M351.892 368.307H303.367V371.284H351.892V368.307Z" fill="#37474F"/>
<path d="M303.367 368.307V377.251H306.346V368.307H303.367Z" fill="#37474F"/>
<path d="M351.892 385.038H303.367V393.982H351.892V385.038Z" fill="#455A64"/>
<path d="M351.892 385.038H303.367V388.015H351.892V385.038Z" fill="#37474F"/>
<path d="M303.367 385.025V393.969H306.346V385.025H303.367Z" fill="#37474F"/>
<path d="M351.892 401.756H303.367V410.7H351.892V401.756Z" fill="#455A64"/>
<path d="M351.892 401.756H303.367V404.733H351.892V401.756Z" fill="#37474F"/>
<path d="M303.38 401.756V410.7H306.359V401.756H303.38Z" fill="#37474F"/>
<path d="M351.892 418.487H303.367V427.431H351.892V418.487Z" fill="#455A64"/>
<path d="M351.892 418.487H303.367V421.464H351.892V418.487Z" fill="#37474F"/>
<path d="M303.367 418.474V427.418H306.346V418.474H303.367Z" fill="#37474F"/>
<path d="M351.892 435.205H303.367V444.149H351.892V435.205Z" fill="#455A64"/>
<path d="M351.892 435.205H303.367V438.182H351.892V435.205Z" fill="#37474F"/>
<path d="M303.38 435.192V444.136H306.359V435.192H303.38Z" fill="#37474F"/>
<path d="M351.892 451.923H303.367V460.867H351.892V451.923Z" fill="#455A64"/>
<path d="M351.892 451.923H303.367V454.9H351.892V451.923Z" fill="#37474F"/>
<path d="M303.367 451.923V460.867H306.346V451.923H303.367Z" fill="#37474F"/>
<path d="M351.892 468.654H303.367V477.598H351.892V468.654Z" fill="#455A64"/>
<path d="M351.892 468.654H303.367V471.631H351.892V468.654Z" fill="#37474F"/>
<path d="M303.367 468.641V477.585H306.346V468.641H303.367Z" fill="#37474F"/>
<path d="M351.892 485.372H303.367V494.316H351.892V485.372Z" fill="#455A64"/>
<path d="M351.892 485.372H303.367V488.349H351.892V485.372Z" fill="#37474F"/>
<path d="M303.38 485.372V494.316H306.359V485.372H303.38Z" fill="#37474F"/>
<path d="M351.892 502.09H303.367V511.034H351.892V502.09Z" fill="#455A64"/>
<path d="M351.892 502.09H303.367V505.067H351.892V502.09Z" fill="#37474F"/>
<path d="M303.367 502.09V511.034H306.346V502.09H303.367Z" fill="#37474F"/>
<path d="M351.892 518.821H303.367V527.765H351.892V518.821Z" fill="#455A64"/>
<path d="M351.892 518.821H303.367V521.798H351.892V518.821Z" fill="#37474F"/>
<path d="M303.367 518.808V527.752H306.346V518.808H303.367Z" fill="#37474F"/>
<path d="M351.892 535.539H303.367V544.483H351.892V535.539Z" fill="#455A64"/>
<path d="M351.892 535.539H303.367V538.516H351.892V535.539Z" fill="#37474F"/>
<path d="M303.38 535.539V544.483H306.359V535.539H303.38Z" fill="#37474F"/>
<path d="M351.892 552.27H303.367V561.214H351.892V552.27Z" fill="#455A64"/>
<path d="M351.892 552.27H303.367V555.247H351.892V552.27Z" fill="#37474F"/>
<path d="M303.367 552.257V561.201H306.346V552.257H303.367Z" fill="#37474F"/>
<path d="M351.892 568.988H303.367V577.932H351.892V568.988Z" fill="#455A64"/>
<path d="M351.892 568.988H303.367V571.965H351.892V568.988Z" fill="#37474F"/>
<path d="M303.38 568.988V577.932H306.359V568.988H303.38Z" fill="#37474F"/>
<path d="M351.892 585.706H303.367V594.65H351.892V585.706Z" fill="#455A64"/>
<path d="M351.892 585.706H303.367V588.683H351.892V585.706Z" fill="#37474F"/>
<path d="M303.367 585.706V594.65H306.346V585.706H303.367Z" fill="#37474F"/>
<path d="M351.892 602.437H303.367V611.381H351.892V602.437Z" fill="#455A64"/>
<path d="M351.892 602.437H303.367V605.414H351.892V602.437Z" fill="#37474F"/>
<path d="M303.367 602.424V611.368H306.346V602.424H303.367Z" fill="#37474F"/>
<path d="M351.892 619.155H303.367V628.099H351.892V619.155Z" fill="#455A64"/>
<path d="M351.892 619.155H303.367V622.132H351.892V619.155Z" fill="#37474F"/>
<path d="M303.38 619.155V628.099H306.359V619.155H303.38Z" fill="#37474F"/>
<path d="M351.892 635.886H303.367V644.83H351.892V635.886Z" fill="#455A64"/>
<path d="M351.892 635.886H303.367V638.863H351.892V635.886Z" fill="#37474F"/>
<path d="M303.367 635.873V644.817H306.346V635.873H303.367Z" fill="#37474F"/>
<path d="M351.892 652.604H303.367V661.548H351.892V652.604Z" fill="#455A64"/>
<path d="M351.892 652.604H303.367V655.581H351.892V652.604Z" fill="#37474F"/>
<path d="M303.367 652.591V661.535H306.346V652.591H303.367Z" fill="#37474F"/>
<path d="M275.028 369.646H294.368V366.981H275.028V369.646Z" fill="#007EF5"/>
<path d="M269.487 369.646H272.153V366.981H269.487V369.646Z" fill="#007EF5"/>
<path d="M283.442 619.233H294.367V616.568H283.442V619.233Z" fill="#007EF5"/>
<path d="M277.902 619.233H280.568V616.568H277.902V619.233Z" fill="#007EF5"/>
<path d="M259.551 485.528V488.193H241.837C241.902 487.309 241.98 486.425 242.058 485.528H259.551Z" fill="#007EF5"/>
<path d="M265.104 485.528H262.438V488.193H265.104V485.528Z" fill="#007EF5"/>
<path d="M281.674 376.263H294.368V373.598H281.674V376.263Z" fill="#007EF5"/>
<path d="M266.6 647.079H294.368V644.414H266.6V647.079Z" fill="#007EF5"/>
<path d="M263.765 549.774V552.439H238.962C238.962 551.555 238.988 550.671 239.014 549.774H263.765Z" fill="#007EF5"/>
<path d="M251.513 473.191V475.856H242.89C242.968 474.959 243.046 474.075 243.137 473.191H251.513Z" fill="#007EF5"/>
<path d="M233.279 406.449C232.732 408.321 230.599 408.243 229.663 408.243C228.727 408.243 226.594 408.308 226.047 406.449C225.501 404.577 227.257 389.575 229.663 389.575C232.069 389.575 233.825 404.59 233.279 406.449Z" fill="#37474F"/>
<path d="M229.182 413.898L229.663 389.575L230.144 413.898H229.182Z" fill="#263238"/>
<path d="M226.854 406.449C226.308 408.321 224.175 408.243 223.238 408.243C222.302 408.243 220.169 408.308 219.623 406.449C219.076 404.577 220.832 389.575 223.238 389.575C225.644 389.575 227.4 404.59 226.854 406.449Z" fill="#455A64"/>
<path d="M222.77 413.898L223.251 389.575L223.732 413.898H222.77Z" fill="#263238"/>
<path d="M211.962 407.086C211.455 408.802 209.504 408.737 208.659 408.737C207.813 408.737 205.849 408.802 205.355 407.086C204.848 405.37 206.461 391.629 208.659 391.629C210.857 391.629 212.469 405.37 211.962 407.086Z" fill="#455A64"/>
<path d="M208.216 413.898L208.659 391.629L209.101 413.898H208.216Z" fill="#263238"/>
<path d="M215.227 398.129C212.755 398.129 210.727 400.157 210.727 402.627V403.576C210.727 406.046 212.755 408.074 215.227 408.074C217.698 408.074 219.727 406.046 219.727 403.576V402.627C219.727 400.157 217.698 398.129 215.227 398.129Z" fill="#37474F"/>
<path d="M214.823 413.898L215.226 398.129L215.643 413.898H214.823Z" fill="#263238"/>
<path d="M234.826 398.129C232.355 398.129 230.326 400.157 230.326 402.627V403.576C230.326 406.046 232.355 408.074 234.826 408.074C237.297 408.074 239.326 406.046 239.326 403.576V402.627C239.326 400.157 237.297 398.129 234.826 398.129Z" fill="#37474F"/>
<path d="M234.826 398.129C232.355 398.129 230.326 400.157 230.326 402.627V403.576C230.326 406.046 232.355 408.074 234.826 408.074C237.297 408.074 239.326 406.046 239.326 403.576V402.627C239.326 400.157 237.297 398.129 234.826 398.129Z" fill="#455A64"/>
<path d="M234.41 413.898L234.826 398.129L235.23 413.898H234.41Z" fill="#263238"/>
<path d="M199.593 399.39C197.317 399.39 195.458 401.249 195.458 403.524V404.395C195.458 406.67 197.317 408.529 199.593 408.529C201.869 408.529 203.729 406.67 203.729 404.395V403.524C203.729 401.249 201.869 399.39 199.593 399.39Z" fill="#37474F"/>
<path d="M199.593 399.39C197.317 399.39 195.458 401.249 195.458 403.524V404.395C195.458 406.67 197.317 408.529 199.593 408.529C201.869 408.529 203.729 406.67 203.729 404.395V403.524C203.729 401.249 201.869 399.39 199.593 399.39Z" fill="#455A64"/>
<path d="M199.216 413.898L199.593 399.39L199.971 413.898H199.216Z" fill="#263238"/>
<path d="M247.221 399.39C244.945 399.39 243.085 401.249 243.085 403.524V404.395C243.085 406.67 244.945 408.529 247.221 408.529C249.497 408.529 251.357 406.67 251.357 404.395V403.524C251.357 401.249 249.497 399.39 247.221 399.39Z" fill="#37474F"/>
<path d="M247.221 399.39C244.945 399.39 243.085 401.249 243.085 403.524V404.395C243.085 406.67 244.945 408.529 247.221 408.529C249.497 408.529 251.357 406.67 251.357 404.395V403.524C251.357 401.249 249.497 399.39 247.221 399.39Z" fill="#37474F"/>
<path d="M246.844 413.898L247.221 399.39L247.598 413.898H246.844Z" fill="#263238"/>
<path d="M216.995 420.996L251.643 452.651V442.81L224.447 420.996H216.995Z" fill="#007EF5"/>
<path opacity="0.2" d="M216.995 420.996L251.643 452.651V442.81L224.447 420.996H216.995Z" fill="black"/>
<path d="M187.342 415.653H259.485V411.779H187.342V415.653Z" fill="#007EF5"/>
<path opacity="0.2" d="M187.342 415.653H259.485V411.779H187.342V415.653Z" fill="black"/>
<path d="M223.407 426.352C251.188 426.352 259.485 415.666 259.485 415.666H187.342C187.342 415.666 199.411 426.352 223.42 426.352H223.407Z" fill="#007EF5"/>
<path opacity="0.4" d="M223.407 426.352C251.188 426.352 259.485 415.666 259.485 415.666H187.342C187.342 415.666 199.411 426.352 223.42 426.352H223.407Z" fill="black"/>
<path d="M192.57 527.206C193.117 529.078 195.25 529 196.186 529C197.122 529 199.255 529.065 199.802 527.206C200.348 525.334 198.592 510.332 196.186 510.332C193.78 510.332 192.024 525.347 192.57 527.206Z" fill="#37474F"/>
<path d="M196.654 534.655L196.173 510.332L195.692 534.655H196.654Z" fill="#263238"/>
<path d="M198.982 527.206C199.528 529.078 201.661 529 202.598 529C203.534 529 205.667 529.065 206.213 527.206C206.76 525.334 205.004 510.332 202.598 510.332C200.192 510.332 198.436 525.347 198.982 527.206Z" fill="#455A64"/>
<path d="M203.079 534.655L202.597 510.332L202.116 534.655H203.079Z" fill="#263238"/>
<path d="M213.887 527.843C214.394 529.559 216.345 529.494 217.19 529.494C218.036 529.494 220 529.559 220.494 527.843C221.001 526.127 219.388 512.386 217.19 512.386C214.992 512.386 213.38 526.127 213.887 527.843Z" fill="#455A64"/>
<path d="M217.632 534.655L217.19 512.386L216.748 534.655H217.632Z" fill="#263238"/>
<path d="M210.609 518.886C213.081 518.886 215.109 520.914 215.109 523.384V524.333C215.109 526.803 213.081 528.831 210.609 528.831C208.138 528.831 206.109 526.803 206.109 524.333V523.384C206.109 520.914 208.138 518.886 210.609 518.886Z" fill="#37474F"/>
<path d="M211.025 534.655L210.609 518.886L210.206 534.655H211.025Z" fill="#263238"/>
<path d="M191.022 518.886C193.494 518.886 195.523 520.914 195.523 523.384V524.333C195.523 526.803 193.494 528.831 191.022 528.831C188.551 528.831 186.522 526.803 186.522 524.333V523.384C186.522 520.914 188.551 518.886 191.022 518.886Z" fill="#37474F"/>
<path d="M191.022 518.886C193.494 518.886 195.523 520.914 195.523 523.384V524.333C195.523 526.803 193.494 528.831 191.022 528.831C188.551 528.831 186.522 526.803 186.522 524.333V523.384C186.522 520.914 188.551 518.886 191.022 518.886Z" fill="#455A64"/>
<path d="M191.426 534.655L191.023 518.886L190.606 534.655H191.426Z" fill="#263238"/>
<path d="M226.255 520.147C228.532 520.147 230.391 522.006 230.391 524.281V525.152C230.391 527.427 228.532 529.286 226.255 529.286C223.979 529.286 222.12 527.427 222.12 525.152V524.281C222.12 522.006 223.979 520.147 226.255 520.147Z" fill="#37474F"/>
<path d="M226.255 520.147C228.532 520.147 230.391 522.006 230.391 524.281V525.152C230.391 527.427 228.532 529.286 226.255 529.286C223.979 529.286 222.12 527.427 222.12 525.152V524.281C222.12 522.006 223.979 520.147 226.255 520.147Z" fill="#455A64"/>
<path d="M226.633 534.655L226.256 520.147L225.878 534.655H226.633Z" fill="#263238"/>
<path d="M178.628 520.147C180.904 520.147 182.764 522.006 182.764 524.281V525.152C182.764 527.427 180.904 529.286 178.628 529.286C176.352 529.286 174.492 527.427 174.492 525.152V524.281C174.492 522.006 176.352 520.147 178.628 520.147Z" fill="#37474F"/>
<path d="M178.628 520.147C180.904 520.147 182.764 522.006 182.764 524.281V525.152C182.764 527.427 180.904 529.286 178.628 529.286C176.352 529.286 174.492 527.427 174.492 525.152V524.281C174.492 522.006 176.352 520.147 178.628 520.147Z" fill="#37474F"/>
<path d="M179.005 534.655L178.628 520.147L178.251 534.655H179.005Z" fill="#263238"/>
<path d="M196.03 541.194L244.139 588.995V576.463L203.482 541.194H196.03Z" fill="#007EF5"/>
<path opacity="0.2" d="M196.03 541.194L244.139 588.995V576.463L203.482 541.194H196.03Z" fill="black"/>
<path d="M166.376 535.851H238.52V531.977H166.376V535.851Z" fill="#007EF5"/>
<path opacity="0.2" d="M166.376 535.851H238.52V531.977H166.376V535.851Z" fill="black"/>
<path d="M202.442 546.537C230.222 546.537 238.52 535.851 238.52 535.851H166.376C166.376 535.851 178.446 546.537 202.455 546.537H202.442Z" fill="#007EF5"/>
<path opacity="0.4" d="M202.442 546.537C230.222 546.537 238.52 535.851 238.52 535.851H166.376C166.376 535.851 178.446 546.537 202.455 546.537H202.442Z" fill="black"/>
<path d="M229.403 592.102H83.1909V658.688H229.403V592.102Z" fill="#007EF5"/>
<path opacity="0.5" d="M229.403 592.102H83.1909V658.688H229.403V592.102Z" fill="white"/>
<path d="M229.403 658.688H97.3545V687.223H229.403V658.688Z" fill="#007EF5"/>
<path opacity="0.3" d="M229.403 658.688H97.3545V687.223H229.403V658.688Z" fill="black"/>
<path opacity="0.1" d="M229.416 669.283L97.3545 664.239V658.688H229.416V669.283Z" fill="black"/>
<path d="M229.416 687.223H273.207V658.688H229.416V687.223Z" fill="#007EF5"/>
<path opacity="0.4" d="M229.416 687.223H273.207V658.688H229.416V687.223Z" fill="black"/>
<path opacity="0.1" d="M273.207 658.688H229.416V669.283H273.207V658.688Z" fill="black"/>
<path d="M229.416 658.675H287.748V592.089H229.416V658.675Z" fill="#007EF5"/>
<path d="M229.403 605.037H83.1909V621.209H229.403V605.037Z" fill="#455A64"/>
<path d="M229.403 605.037H83.1909V608.261H229.403V605.037Z" fill="#37474F"/>
<path d="M229.403 629.581H83.1909V645.753H229.403V629.581Z" fill="#455A64"/>
<path d="M229.403 629.581H83.1909V632.805H229.403V629.581Z" fill="#37474F"/>
<path d="M275.028 605.037H229.416V621.209H275.028V605.037Z" fill="#455A64"/>
<path d="M275.028 605.037H229.416V608.261H275.028V605.037Z" fill="#37474F"/>
<path d="M275.028 629.581H229.416V645.753H275.028V629.581Z" fill="#455A64"/>
<path d="M275.028 629.581H229.416V632.805H275.028V629.581Z" fill="#37474F"/>
<path d="M203.898 666.605H229.416V663.94H203.898V666.605Z" fill="#007EF5"/>
<path d="M198.345 666.605H201.011V663.94H198.345V666.605Z" fill="#007EF5"/>
<path d="M108.708 597.887H83.1909V600.552H108.708V597.887Z" fill="#007EF5"/>
<path d="M114.262 597.887H111.596V600.552H114.262V597.887Z" fill="#007EF5"/>
<path d="M116.343 678.903H97.3545V681.568H116.343V678.903Z" fill="#007EF5"/>
<path d="M121.897 678.903H119.23V681.568H121.897V678.903Z" fill="#007EF5"/>
<path d="M97.3673 675.588H111.882V672.923H97.3673V675.588Z" fill="#007EF5"/>
<path d="M214.901 653.241H229.416V650.576H214.901V653.241Z" fill="#007EF5"/>
<path d="M258.692 679.683H273.207V677.018H258.692V679.683Z" fill="#007EF5"/>
<path d="M661.9 267.245H580.328C587.416 406.306 573.005 547.98 534.768 687.041C561.963 687.041 589.146 687.041 616.341 687.041C654.578 547.98 668.976 406.306 661.9 267.245Z" fill="#455A64"/>
<g opacity="0.1">
<path d="M661.172 416.537C660.522 427.548 659.703 438.559 658.753 449.583L581.563 372.428C581.902 360.767 582.071 349.132 582.071 337.497L661.172 416.537Z" fill="white"/>
<path d="M557.529 687.041H534.781C536.42 681.061 538.02 675.081 539.567 669.101L557.516 687.041H557.529Z" fill="white"/>
<path d="M663.631 339.33C663.631 345.18 663.566 351.03 663.475 356.88L581.069 274.525V267.258H591.578L663.631 339.33Z" fill="white"/>
<path d="M647.022 545.419C646.216 550.476 645.383 555.546 644.486 560.603L573.188 489.363C573.799 484.007 574.397 478.677 574.93 473.347L647.009 545.419H647.022Z" fill="white"/>
<path d="M589.965 687.041H572.225L542.546 657.375C543.742 652.643 544.913 647.885 546.044 643.14L589.965 687.041Z" fill="white"/>
<path d="M662.252 396.335C662.2 397.726 662.135 399.117 662.057 400.521L581.993 320.467C581.993 318.985 581.954 317.516 581.928 316.034L662.252 396.335Z" fill="white"/>
<path d="M640.571 582.378C640.363 583.613 640.116 584.835 639.881 586.044L569.819 516C570.014 514.713 570.196 513.452 570.339 512.165L640.571 582.378Z" fill="white"/>
</g>
<path d="M595.232 687.223L593.932 686.859C625.848 570.743 641.91 406.046 634.848 267.271L636.188 267.206C643.263 406.111 627.188 570.977 595.232 687.21V687.223Z" fill="#37474F"/>
<path d="M568.037 687.223L566.736 686.859C598.653 570.743 614.715 406.046 607.653 267.271L608.992 267.206C616.068 406.111 599.992 570.977 568.037 687.21V687.223Z" fill="#37474F"/>
<path d="M542.897 267.245H624.47C617.434 405.435 633.08 569.469 665.399 687.041C638.204 687.041 611.022 687.041 583.826 687.041C551.507 569.469 535.848 405.435 542.897 267.245Z" fill="#455A64"/>
<path opacity="0.2" d="M542.897 267.245H624.47C617.434 405.435 633.08 569.469 665.399 687.041C638.204 687.041 611.022 687.041 583.826 687.041C551.507 569.469 535.848 405.435 542.897 267.245Z" fill="white"/>
<g opacity="0.1">
<path d="M633.353 514.609L561.911 586.018C560.221 575.943 558.608 565.725 557.112 555.377L629.958 482.577C630.973 493.315 632.117 504.014 633.353 514.622V514.609Z" fill="white"/>
<path d="M624.457 267.258C624.015 275.747 623.677 284.327 623.416 292.998L541.792 374.612C541.466 362.899 541.284 351.264 541.258 339.694L613.727 267.258H624.457Z" fill="white"/>
<path d="M625.25 420.255L549.712 495.746C549.153 490.39 548.62 485.034 548.125 479.639L624.392 403.368C624.652 408.984 624.925 414.626 625.25 420.255Z" fill="white"/>
<path d="M586.87 267.258L541.427 312.667C541.505 306.596 541.648 300.551 541.83 294.558L569.13 267.258H586.883H586.87Z" fill="white"/>
<path d="M651.418 628.437L592.775 687.041H583.84C583.215 684.74 582.578 682.452 581.967 680.112L648.479 613.617C649.441 618.596 650.417 623.536 651.431 628.424L651.418 628.437Z" fill="white"/>
<path d="M628.554 467.016L555.031 540.531C554.849 539.244 554.68 537.97 554.511 536.683L628.216 462.986C628.32 464.338 628.437 465.664 628.567 467.016H628.554Z" fill="white"/>
<path d="M656.816 653.072L622.818 687.054H618.448L655.983 649.523C656.269 650.719 656.529 651.902 656.803 653.085L656.816 653.072Z" fill="white"/>
</g>
<path d="M610.618 687.223C578.663 570.977 562.588 406.124 569.663 267.219L571.002 267.284C563.94 406.059 579.989 570.756 611.919 686.872L610.618 687.236V687.223Z" fill="#455A64"/>
<path d="M637.814 687.223C605.858 570.977 589.783 406.111 596.858 267.219L598.198 267.284C591.135 406.059 607.185 570.743 639.114 686.872L637.814 687.236V687.223Z" fill="#455A64"/>
<path d="M727.229 546.602H606.339V687.223H727.229V546.602Z" fill="#263238"/>
<path d="M704.339 641.177H597.612V680.71H704.339V641.177Z" fill="#007EF5"/>
<path d="M704.351 680.71H739.441V641.177H704.351V680.71Z" fill="#007EF5"/>
<path opacity="0.3" d="M704.351 680.71H739.441V641.177H704.351V680.71Z" fill="black"/>
<path d="M698.395 647.482H603.582V658.922H698.395V647.482Z" fill="#455A64"/>
<path d="M698.395 647.482H603.582V650.459H698.395V647.482Z" fill="#37474F"/>
<path d="M603.569 647.482V658.922H606.547V647.482H603.569Z" fill="#37474F"/>
<path d="M698.395 663.251H603.582V674.691H698.395V663.251Z" fill="#455A64"/>
<path d="M698.395 663.251H603.582V666.228H698.395V663.251Z" fill="#37474F"/>
<path d="M603.582 663.251V674.691H606.56V663.251H603.582Z" fill="#37474F"/>
<path d="M704.339 597.978H597.612V637.511H704.339V597.978Z" fill="#007EF5"/>
<path d="M704.351 637.524H739.441V597.991H704.351V637.524Z" fill="#007EF5"/>
<path opacity="0.3" d="M704.351 637.524H739.441V597.991H704.351V637.524Z" fill="black"/>
<path d="M698.395 604.283H603.582V615.723H698.395V604.283Z" fill="#455A64"/>
<path d="M698.395 604.283H603.582V607.26H698.395V604.283Z" fill="#37474F"/>
<path d="M603.582 604.283V615.723H606.56V604.283H603.582Z" fill="#37474F"/>
<path d="M698.395 620.065H603.582V631.505H698.395V620.065Z" fill="#455A64"/>
<path d="M698.395 620.065H603.582V623.042H698.395V620.065Z" fill="#37474F"/>
<path d="M603.569 620.065V631.505H606.547V620.065H603.569Z" fill="#37474F"/>
<path d="M704.339 554.792H597.612V594.325H704.339V554.792Z" fill="#007EF5"/>
<path d="M704.351 594.325H739.441V554.792H704.351V594.325Z" fill="#007EF5"/>
<path opacity="0.3" d="M704.351 594.325H739.441V554.792H704.351V594.325Z" fill="black"/>
<path d="M698.395 561.084H603.582V572.524H698.395V561.084Z" fill="#455A64"/>
<path d="M698.395 561.084H603.582V564.061H698.395V561.084Z" fill="#37474F"/>
<path d="M603.569 561.097V572.537H606.547V561.097H603.569Z" fill="#37474F"/>
<path d="M698.395 576.866H603.582V588.306H698.395V576.866Z" fill="#455A64"/>
<path d="M698.395 576.866H603.582V579.843H698.395V576.866Z" fill="#37474F"/>
<path d="M603.582 576.866V588.306H606.56V576.866H603.582Z" fill="#37474F"/>
<path d="M702.388 502.87H700.333L698.382 546.602H702.388V502.87Z" fill="#263238"/>
<path d="M712.025 502.87H709.957L708.019 546.602H712.025V502.87Z" fill="#263238"/>
<path d="M713.924 562.007H739.441V559.342H713.924V562.007Z" fill="#007EF5"/>
<path d="M708.383 562.007H711.049V559.342H708.383V562.007Z" fill="#007EF5"/>
<path d="M724.147 647.053H704.352V649.718H724.147V647.053Z" fill="#007EF5"/>
<path d="M729.687 647.053H727.021V649.718H729.687V647.053Z" fill="#007EF5"/>
<path d="M716.785 605.349H704.352V608.014H716.785V605.349Z" fill="#007EF5"/>
<path d="M739.429 564.958H725.837V567.623H739.429V564.958Z" fill="#007EF5"/>
<path d="M739.429 657.583H725.837V660.248H739.429V657.583Z" fill="#007EF5"/>
<path d="M402.68 517.625C403.226 519.497 405.359 519.419 406.296 519.419C407.232 519.419 409.365 519.484 409.912 517.625C410.458 515.753 408.702 500.751 406.296 500.751C403.89 500.751 402.134 515.766 402.68 517.625Z" fill="#37474F"/>
<path d="M406.777 525.074L406.296 500.751L405.814 525.074H406.777Z" fill="#263238"/>
<path d="M409.105 517.625C409.651 519.497 411.784 519.419 412.721 519.419C413.657 519.419 415.79 519.484 416.336 517.625C416.883 515.753 415.127 500.751 412.721 500.751C410.315 500.751 408.559 515.766 409.105 517.625Z" fill="#455A64"/>
<path d="M413.202 525.074L412.72 500.751L412.239 525.074H413.202Z" fill="#263238"/>
<path d="M423.997 518.249C424.504 519.965 426.455 519.9 427.3 519.9C428.146 519.9 430.109 519.965 430.604 518.249C431.111 516.533 429.498 502.792 427.3 502.792C425.102 502.792 423.489 516.533 423.997 518.249Z" fill="#455A64"/>
<path d="M427.742 525.074L427.313 502.805L426.871 525.074H427.742Z" fill="#263238"/>
<path d="M420.732 509.305C423.204 509.305 425.233 511.333 425.233 513.803V514.752C425.233 517.222 423.204 519.25 420.732 519.25C418.261 519.25 416.232 517.222 416.232 514.752V513.803C416.232 511.333 418.261 509.305 420.732 509.305Z" fill="#37474F"/>
<path d="M421.148 525.074L420.732 509.305L420.329 525.074H421.148Z" fill="#263238"/>
<path d="M396.75 509.305C399.221 509.305 401.25 511.333 401.25 513.803V514.752C401.25 517.222 399.221 519.25 396.75 519.25C394.278 519.25 392.25 517.222 392.25 514.752V513.803C392.25 511.333 394.278 509.305 396.75 509.305Z" fill="#37474F"/>
<path d="M396.75 509.305C399.221 509.305 401.25 511.333 401.25 513.803V514.752C401.25 517.222 399.221 519.25 396.75 519.25C394.278 519.25 392.25 517.222 392.25 514.752V513.803C392.25 511.333 394.278 509.305 396.75 509.305Z" fill="#455A64"/>
<path d="M397.153 525.074L396.75 509.305L396.333 525.074H397.153Z" fill="#263238"/>
<path d="M434.245 510.566C436.521 510.566 438.381 512.425 438.381 514.7V515.571C438.381 517.846 436.521 519.705 434.245 519.705C431.969 519.705 430.109 517.846 430.109 515.571V514.7C430.109 512.425 431.969 510.566 434.245 510.566Z" fill="#37474F"/>
<path d="M434.245 510.566C436.521 510.566 438.381 512.425 438.381 514.7V515.571C438.381 517.846 436.521 519.705 434.245 519.705C431.969 519.705 430.109 517.846 430.109 515.571V514.7C430.109 512.425 431.969 510.566 434.245 510.566Z" fill="#455A64"/>
<path d="M434.622 525.074L434.245 510.566L433.868 525.074H434.622Z" fill="#263238"/>
<path d="M406.14 529.26L440.801 560.915V551.074L413.592 529.26H406.14Z" fill="#007EF5"/>
<path d="M386.228 526.296H442.283V523.28H386.228V526.296Z" fill="#007EF5"/>
<path opacity="0.2" d="M386.228 526.296H442.283V523.28H386.228V526.296Z" fill="black"/>
<path d="M414.256 534.603C435.845 534.603 442.283 526.296 442.283 526.296H386.228C386.228 526.296 395.605 534.603 414.256 534.603Z" fill="#007EF5"/>
<path opacity="0.4" d="M414.256 534.603C435.845 534.603 442.283 526.296 442.283 526.296H386.228C386.228 526.296 395.605 534.603 414.256 534.603Z" fill="black"/>
<path d="M565.943 687.223V475.115L535.666 432.007V687.223H565.943Z" fill="#007EF5"/>
<path d="M440.085 687.223V455.966L458.151 432.007V687.223H440.085Z" fill="#007EF5"/>
<path d="M535.665 306.401V687.223H458.15V372.22L511.162 306.401H535.665Z" fill="#007EF5"/>
<path d="M458.15 687.223V372.22L511.175 306.401V687.223H458.15Z" fill="#007EF5"/>
<path opacity="0.2" d="M458.15 687.223V372.22L511.175 306.401V687.223H458.15Z" fill="black"/>
<path d="M541.453 687.223V475.115L511.175 432.007V687.223H541.453Z" fill="#007EF5"/>
<path opacity="0.2" d="M541.453 687.223V475.115L511.175 432.007V687.223H541.453Z" fill="black"/>
<path d="M480.443 463.181H471.273V687.184H480.443V463.181Z" fill="#455A64"/>
<path d="M474.304 463.181H471.273V687.184H474.304V463.181Z" fill="#37474F"/>
<path d="M500.108 463.181H490.938V687.184H500.108V463.181Z" fill="#455A64"/>
<path d="M493.969 463.181H490.938V687.184H493.969V463.181Z" fill="#37474F"/>
<path d="M500.108 360.026H490.938V421.945H500.108V360.026Z" fill="#455A64"/>
<path d="M493.969 360.026H490.938V421.945H493.969V360.026Z" fill="#37474F"/>
<path d="M535.666 248.46H532.921L530.346 306.401H535.666V248.46Z" fill="#007EF5"/>
<path d="M483.668 557.587H458.15V560.252H483.668V557.587Z" fill="#007EF5"/>
<path d="M489.221 557.587H486.555V560.252H489.221V557.587Z" fill="#007EF5"/>
<path d="M529.566 514.726H555.083V512.061H529.566V514.726Z" fill="#007EF5"/>
<path d="M524.025 514.726H526.691V512.061H524.025V514.726Z" fill="#007EF5"/>
<path d="M519.499 375.314H493.981V377.979H519.499V375.314Z" fill="#007EF5"/>
<path d="M525.04 375.314H522.374V377.979H525.04V375.314Z" fill="#007EF5"/>
<path d="M541.752 521.668H516.235V524.333H541.752V521.668Z" fill="#007EF5"/>
<path d="M547.293 521.668H544.626V524.333H547.293V521.668Z" fill="#007EF5"/>
<path d="M485.658 389.653H511.176V386.988H485.658V389.653Z" fill="#007EF5"/>
<path d="M480.104 389.653H482.771V386.988H480.104V389.653Z" fill="#007EF5"/>
<path d="M509.355 632.922H458.15V635.587H509.355V632.922Z" fill="#007EF5"/>
<path d="M514.908 632.922H512.242V635.587H514.908V632.922Z" fill="#007EF5"/>
<path d="M520.084 632.922H517.418V635.587H520.084V632.922Z" fill="#007EF5"/>
<path d="M593.126 487.621C592.58 489.493 590.447 489.415 589.51 489.415C588.574 489.415 586.441 489.48 585.895 487.621C585.348 485.749 587.104 470.747 589.51 470.747C591.916 470.747 593.672 485.762 593.126 487.621Z" fill="#37474F"/>
<path d="M589.029 495.07L589.51 470.734L589.991 495.07H589.029Z" fill="#263238"/>
<path d="M586.714 487.621C586.167 489.493 584.035 489.415 583.098 489.415C582.162 489.415 580.029 489.48 579.482 487.621C578.936 485.749 580.692 470.747 583.098 470.747C585.504 470.747 587.26 485.762 586.714 487.621Z" fill="#455A64"/>
<path d="M582.617 495.07L583.098 470.734L583.579 495.07H582.617Z" fill="#263238"/>
<path d="M571.809 488.245C571.302 489.961 569.351 489.896 568.506 489.896C567.66 489.896 565.696 489.961 565.202 488.245C564.695 486.529 566.308 472.788 568.506 472.788C570.704 472.788 572.316 486.529 571.809 488.245Z" fill="#455A64"/>
<path d="M568.063 495.07L568.506 472.788L568.948 495.07H568.063Z" fill="#263238"/>
<path d="M575.074 479.288C572.603 479.288 570.574 481.316 570.574 483.786V484.735C570.574 487.205 572.603 489.233 575.074 489.233C577.545 489.233 579.574 487.205 579.574 484.735V483.786C579.574 481.316 577.545 479.288 575.074 479.288Z" fill="#37474F"/>
<path d="M574.67 495.07L575.074 479.288L575.49 495.07H574.67Z" fill="#263238"/>
<path d="M594.673 479.288C592.202 479.288 590.173 481.316 590.173 483.786V484.735C590.173 487.205 592.202 489.233 594.673 489.233C597.145 489.233 599.173 487.205 599.173 484.735V483.786C599.173 481.316 597.145 479.288 594.673 479.288Z" fill="#37474F"/>
<path d="M594.673 479.288C592.202 479.288 590.173 481.316 590.173 483.786V484.735C590.173 487.205 592.202 489.233 594.673 489.233C597.145 489.233 599.173 487.205 599.173 484.735V483.786C599.173 481.316 597.145 479.288 594.673 479.288Z" fill="#455A64"/>
<path d="M594.27 495.07L594.673 479.288L595.076 495.07H594.27Z" fill="#263238"/>
<path d="M559.441 480.549C557.165 480.549 555.305 482.408 555.305 484.683V485.554C555.305 487.829 557.165 489.688 559.441 489.688C561.717 489.688 563.576 487.829 563.576 485.554V484.683C563.576 482.408 561.717 480.549 559.441 480.549Z" fill="#37474F"/>
<path d="M559.441 480.549C557.165 480.549 555.305 482.408 555.305 484.683V485.554C555.305 487.829 557.165 489.688 559.441 489.688C561.717 489.688 563.576 487.829 563.576 485.554V484.683C563.576 482.408 561.717 480.549 559.441 480.549Z" fill="#455A64"/>
<path d="M559.063 495.07L559.441 480.549L559.818 495.07H559.063Z" fill="#263238"/>
<path d="M607.068 480.549C604.792 480.549 602.932 482.408 602.932 484.683V485.554C602.932 487.829 604.792 489.688 607.068 489.688C609.344 489.688 611.204 487.829 611.204 485.554V484.683C611.204 482.408 609.344 480.549 607.068 480.549Z" fill="#37474F"/>
<path d="M607.068 480.549C604.792 480.549 602.932 482.408 602.932 484.683V485.554C602.932 487.829 604.792 489.688 607.068 489.688C609.344 489.688 611.204 487.829 611.204 485.554V484.683C611.204 482.408 609.344 480.549 607.068 480.549Z" fill="#37474F"/>
<path d="M606.691 495.07L607.068 480.549L607.445 495.07H606.691Z" fill="#263238"/>
<path d="M589.666 501.479L555.019 533.134V523.293L582.214 501.479H589.666Z" fill="#007EF5"/>
<path d="M619.319 492.262H547.176V496.136H619.319V492.262Z" fill="#007EF5"/>
<path opacity="0.2" d="M619.319 492.262H547.176V496.136H619.319V492.262Z" fill="black"/>
<path d="M583.254 506.822C555.474 506.822 547.176 496.136 547.176 496.136H619.319C619.319 496.136 607.25 506.822 583.241 506.822H583.254Z" fill="#007EF5"/>
<path opacity="0.4" d="M583.254 506.822C555.474 506.822 547.176 496.136 547.176 496.136H619.319C619.319 496.136 607.25 506.822 583.241 506.822H583.254Z" fill="black"/>
<path d="M586.843 569.027C587.39 570.899 589.523 570.821 590.459 570.821C591.395 570.821 593.528 570.886 594.075 569.027C594.621 567.155 592.865 552.153 590.459 552.153C588.053 552.153 586.297 567.168 586.843 569.027Z" fill="#37474F"/>
<path d="M590.94 576.489L590.459 552.153L589.978 576.489H590.94Z" fill="#263238"/>
<path d="M593.269 569.027C593.815 570.899 595.948 570.821 596.884 570.821C597.821 570.821 599.954 570.886 600.5 569.027C601.046 567.155 599.29 552.153 596.884 552.153C594.478 552.153 592.722 567.168 593.269 569.027Z" fill="#455A64"/>
<path d="M597.365 576.489L596.884 552.153L596.403 576.489H597.365Z" fill="#263238"/>
<path d="M608.16 569.664C608.667 571.38 610.618 571.315 611.464 571.315C612.309 571.315 614.273 571.38 614.767 569.664C615.274 567.948 613.662 554.207 611.464 554.207C609.266 554.207 607.653 567.948 608.16 569.664Z" fill="#455A64"/>
<path d="M611.906 576.489L611.464 554.207L611.035 576.489H611.906Z" fill="#263238"/>
<path d="M604.896 560.707C607.367 560.707 609.396 562.735 609.396 565.205V566.154C609.396 568.624 607.367 570.652 604.896 570.652C602.424 570.652 600.396 568.624 600.396 566.154V565.205C600.396 562.735 602.424 560.707 604.896 560.707Z" fill="#37474F"/>
<path d="M605.299 576.489L604.896 560.707L604.479 576.489H605.299Z" fill="#263238"/>
<path d="M585.296 560.707C587.767 560.707 589.796 562.735 589.796 565.205V566.154C589.796 568.624 587.767 570.652 585.296 570.652C582.825 570.652 580.796 568.624 580.796 566.154V565.205C580.796 562.735 582.825 560.707 585.296 560.707Z" fill="#37474F"/>
<path d="M585.296 560.707C587.767 560.707 589.796 562.735 589.796 565.205V566.154C589.796 568.624 587.767 570.652 585.296 570.652C582.825 570.652 580.796 568.624 580.796 566.154V565.205C580.796 562.735 582.825 560.707 585.296 560.707Z" fill="#455A64"/>
<path d="M585.712 576.489L585.296 560.707L584.893 576.489H585.712Z" fill="#263238"/>
<path d="M620.528 561.968C622.804 561.968 624.664 563.827 624.664 566.102V566.973C624.664 569.248 622.804 571.107 620.528 571.107C618.252 571.107 616.393 569.248 616.393 566.973V566.102C616.393 563.827 618.252 561.968 620.528 561.968Z" fill="#37474F"/>
<path d="M620.528 561.968C622.804 561.968 624.664 563.827 624.664 566.102V566.973C624.664 569.248 622.804 571.107 620.528 571.107C618.252 571.107 616.393 569.248 616.393 566.973V566.102C616.393 563.827 618.252 561.968 620.528 561.968Z" fill="#455A64"/>
<path d="M620.906 576.489L620.529 561.968L620.151 576.489H620.906Z" fill="#263238"/>
<path d="M572.914 561.968C575.19 561.968 577.05 563.827 577.05 566.102V566.973C577.05 569.248 575.19 571.107 572.914 571.107C570.638 571.107 568.778 569.248 568.778 566.973V566.102C568.778 563.827 570.638 561.968 572.914 561.968Z" fill="#37474F"/>
<path d="M572.914 561.968C575.19 561.968 577.05 563.827 577.05 566.102V566.973C577.05 569.248 575.19 571.107 572.914 571.107C570.638 571.107 568.778 569.248 568.778 566.973V566.102C568.778 563.827 570.638 561.968 572.914 561.968Z" fill="#37474F"/>
<path d="M573.291 576.489L572.914 561.968L572.537 576.489H573.291Z" fill="#263238"/>
<path d="M603.127 583.574L555.018 628.697V618.856L595.687 583.574H603.127Z" fill="#007EF5"/>
<path d="M632.793 574.357H560.649V578.231H632.793V574.357Z" fill="#007EF5"/>
<path opacity="0.2" d="M632.793 574.357H560.649V578.231H632.793V574.357Z" fill="black"/>
<path d="M596.715 588.93C568.934 588.93 560.637 578.244 560.637 578.244H632.78C632.78 578.244 620.711 588.93 596.702 588.93H596.715Z" fill="#007EF5"/>
<path opacity="0.4" d="M596.715 588.93C568.934 588.93 560.637 578.244 560.637 578.244H632.78C632.78 578.244 620.711 588.93 596.702 588.93H596.715Z" fill="black"/>
<path d="M556.839 669.998C555.707 673.872 551.285 673.716 549.361 673.716C547.436 673.716 543.014 673.859 541.882 669.998C540.751 666.124 544.379 635.041 549.361 635.041C554.342 635.041 557.97 666.124 556.839 669.998Z" fill="#455A64"/>
<path d="M548.359 685.416L549.36 635.041L550.349 685.416H548.359Z" fill="#263238"/>
<path d="M134.226 669.998C133.095 673.872 128.673 673.716 126.748 673.716C124.823 673.716 120.401 673.859 119.269 669.998C118.138 666.124 121.766 635.041 126.748 635.041C131.729 635.041 135.358 666.124 134.226 669.998Z" fill="#455A64"/>
<path d="M125.746 685.416L126.735 635.041L127.736 685.416H125.746Z" fill="#263238"/>
<path d="M765.44 669.998C764.309 673.872 759.887 673.716 757.962 673.716C756.037 673.716 751.615 673.859 750.484 669.998C749.352 666.124 752.981 635.041 757.962 635.041C762.943 635.041 766.572 666.124 765.44 669.998Z" fill="#455A64"/>
<path d="M756.96 685.416L757.949 635.041L758.95 685.416H756.96Z" fill="#263238"/>
<path d="M696.223 669.998C695.092 673.872 690.67 673.716 688.745 673.716C686.82 673.716 682.398 673.859 681.266 669.998C680.135 666.124 683.764 635.041 688.745 635.041C693.726 635.041 697.355 666.124 696.223 669.998Z" fill="#455A64"/>
<path d="M687.743 685.416L688.732 635.041L689.733 685.416H687.743Z" fill="#263238"/>
<path d="M194.677 669.998C193.546 673.872 189.124 673.716 187.199 673.716C185.274 673.716 180.852 673.859 179.721 669.998C178.589 666.124 182.218 635.041 187.199 635.041C192.18 635.041 195.809 666.124 194.677 669.998Z" fill="#455A64"/>
<path d="M186.197 685.416L187.199 635.041L188.187 685.416H186.197Z" fill="#263238"/>
<path d="M381.247 669.998C380.115 673.872 375.693 673.716 373.768 673.716C371.843 673.716 367.421 673.859 366.29 669.998C365.158 666.124 368.787 635.041 373.768 635.041C378.75 635.041 382.378 666.124 381.247 669.998Z" fill="#455A64"/>
<path d="M372.767 685.416L373.768 635.041L374.756 685.416H372.767Z" fill="#263238"/>
<path d="M509.38 652.747C504.256 652.747 500.055 656.946 500.055 662.068V664.031C500.055 669.153 504.243 673.352 509.38 673.352C514.505 673.352 518.706 669.166 518.706 664.031V662.068C518.706 656.946 514.518 652.747 509.38 652.747Z" fill="#455A64"/>
<path d="M508.535 685.416L509.381 652.747L510.239 685.416H508.535Z" fill="#263238"/>
<path d="M568.544 652.747C563.42 652.747 559.219 656.946 559.219 662.068V664.031C559.219 669.153 563.407 673.352 568.544 673.352C573.669 673.352 577.87 669.166 577.87 664.031V662.068C577.87 656.946 573.682 652.747 568.544 652.747Z" fill="#455A64"/>
<path d="M567.699 685.416L568.545 652.747L569.39 685.416H567.699Z" fill="#263238"/>
<path d="M59.6763 652.747C54.552 652.747 50.3511 656.946 50.3511 662.068V664.031C50.3511 669.153 54.539 673.352 59.6763 673.352C64.8006 673.352 69.0015 669.166 69.0015 664.031V662.068C69.0015 656.946 64.8136 652.747 59.6763 652.747Z" fill="#455A64"/>
<path d="M58.8311 685.416L59.6764 652.747L60.5218 685.416H58.8311Z" fill="#263238"/>
<path d="M731.677 652.747C726.553 652.747 722.352 656.946 722.352 662.068V664.031C722.352 669.153 726.54 673.352 731.677 673.352C736.802 673.352 741.002 669.166 741.002 664.031V662.068C741.002 656.946 736.815 652.747 731.677 652.747Z" fill="#455A64"/>
<path d="M730.832 685.416L731.677 652.747L732.523 685.416H730.832Z" fill="#263238"/>
<path d="M348.368 652.747C343.243 652.747 339.042 656.946 339.042 662.068V664.031C339.042 669.153 343.23 673.352 348.368 673.352C353.492 673.352 357.693 669.166 357.693 664.031V662.068C357.693 656.946 353.505 652.747 348.368 652.747Z" fill="#455A64"/>
<path d="M347.522 685.416L348.368 652.747L349.213 685.416H347.522Z" fill="#263238"/>
<path d="M169.29 652.747C164.166 652.747 159.965 656.946 159.965 662.068V664.031C159.965 669.153 164.153 673.352 169.29 673.352C174.414 673.352 178.615 669.166 178.615 664.031V662.068C178.615 656.946 174.427 652.747 169.29 652.747Z" fill="#455A64"/>
<path d="M168.445 685.416L169.29 652.747L170.136 685.416H168.445Z" fill="#263238"/>
<path d="M821.496 684.545H-5.49609V689.888H821.496V684.545Z" fill="#007EF5"/>
<path opacity="0.2" d="M821.496 684.545H-5.49609V689.888H821.496V684.545Z" fill="black"/>
<path d="M408 716.707C89.5899 716.707 -5.49609 689.888 -5.49609 689.888H821.496C821.496 689.888 683.217 716.707 408 716.707Z" fill="#007EF5"/>
<path opacity="0.5" d="M408 716.707C89.5899 716.707 -5.49609 689.888 -5.49609 689.888H821.496C821.496 689.888 683.217 716.707 408 716.707Z" fill="black"/>
<path d="M-5.49609 684.545C259.421 683.752 556.592 683.739 821.496 684.545C556.579 685.351 259.408 685.338 -5.49609 684.545Z" fill="#263238"/>
</svg>
