<svg width="72" height="72" viewBox="0 0 72 72" fill="none" xmlns="http://www.w3.org/2000/svg">
<rect width="72" height="72" rx="8" fill="#DFE0E2"/>
<path d="M48.5 21H23.5C22.837 21 22.2011 21.2634 21.7322 21.7322C21.2634 22.2011 21 22.837 21 23.5V48.5C21 49.163 21.2634 49.7989 21.7322 50.2678C22.2011 50.7366 22.837 51 23.5 51H48.5C49.163 51 49.7989 50.7366 50.2678 50.2678C50.7366 49.7989 51 49.163 51 48.5V23.5C51 22.837 50.7366 22.2011 50.2678 21.7322C49.7989 21.2634 49.163 21 48.5 21ZM23.5 23.5H48.5V35.5906L44.6422 31.7312C44.1734 31.2628 43.5378 30.9996 42.875 30.9996C42.2122 30.9996 41.5766 31.2628 41.1078 31.7312L24.3391 48.5H23.5V23.5ZM48.5 48.5H27.875L42.875 33.5L48.5 39.125V48.5ZM31 34.75C31.7417 34.75 32.4667 34.5301 33.0834 34.118C33.7001 33.706 34.1807 33.1203 34.4645 32.4351C34.7484 31.7498 34.8226 30.9958 34.6779 30.2684C34.5333 29.541 34.1761 28.8728 33.6517 28.3483C33.1272 27.8239 32.459 27.4667 31.7316 27.3221C31.0042 27.1774 30.2502 27.2516 29.5649 27.5355C28.8797 27.8193 28.294 28.2999 27.882 28.9166C27.4699 29.5333 27.25 30.2583 27.25 31C27.25 31.9946 27.6451 32.9484 28.3483 33.6517C29.0516 34.3549 30.0054 34.75 31 34.75ZM31 29.75C31.2472 29.75 31.4889 29.8233 31.6945 29.9607C31.9 30.098 32.0602 30.2932 32.1549 30.5216C32.2495 30.7501 32.2742 31.0014 32.226 31.2439C32.1778 31.4863 32.0587 31.7091 31.8839 31.8839C31.7091 32.0587 31.4863 32.1778 31.2439 32.226C31.0014 32.2742 30.7501 32.2495 30.5216 32.1549C30.2932 32.0602 30.098 31.9 29.9607 31.6945C29.8233 31.4889 29.75 31.2472 29.75 31C29.75 30.6685 29.8817 30.3505 30.1161 30.1161C30.3505 29.8817 30.6685 29.75 31 29.75Z" fill="#888E96"/>
</svg>
