<svg width="64" height="64" viewBox="0 0 64 64" fill="none" xmlns="http://www.w3.org/2000/svg">
<g clip-path="url(#clip0_24467_134572)">
<path d="M16.0474 33.9458H13.1772C12.4243 33.9458 11.7446 34.394 11.4468 35.0845L3.50146 53.585L22.3706 43.9478C20.1118 40.8223 17.877 37.375 16.0474 33.9458Z" fill="#7490AA" style="fill:#7490AA;fill:color(display-p3 0.4549 0.5647 0.6667);fill-opacity:1;"/>
<path d="M52.5527 35.0845C52.2554 34.394 51.5752 33.9458 50.8228 33.9458H47.9526C44.4976 40.4204 39.4639 47.1113 36.2617 50.7925C34.0098 53.3755 29.9873 53.3726 27.7388 50.7925C27.5088 50.5283 26.3081 49.1382 24.6543 47.0005L21.2524 48.7388L34.1206 61.582L58.5034 48.9414L52.5527 35.0845Z" fill="#7490AA" style="fill:#7490AA;fill:color(display-p3 0.4549 0.5647 0.6667);fill-opacity:1;"/>
<path d="M1.18017 58.9917L0.153802 61.3818C-0.377448 62.6187 0.532708 64 1.88378 64H29.5151C29.688 63.8716 29.6899 63.8794 30.6177 63.3984L17.7305 50.5381L1.18017 58.9917Z" fill="#7490AA" style="fill:#7490AA;fill:color(display-p3 0.4549 0.5647 0.6667);fill-opacity:1;"/>
<path d="M63.8462 61.3818L59.9907 52.4043L37.6235 64H62.1162C63.4644 64 64.3784 62.6211 63.8462 61.3818Z" fill="#7490AA" style="fill:#7490AA;fill:color(display-p3 0.4549 0.5647 0.6667);fill-opacity:1;"/>
<path d="M33.8823 16.9155C33.8823 15.8794 33.0376 15.0371 32 15.0371C30.9619 15.0371 30.1177 15.8794 30.1177 16.9155C30.1177 17.9512 30.9619 18.7939 32 18.7939C33.0376 18.7939 33.8823 17.9512 33.8823 16.9155Z" fill="#7490AA" style="fill:#7490AA;fill:color(display-p3 0.4549 0.5647 0.6667);fill-opacity:1;"/>
<path d="M33.4204 48.2022C34.0542 47.4747 48.9404 30.2549 48.9404 18.418C48.9404 -5.99019 15.0596 -6.28804 15.0596 18.418C15.0596 30.2549 29.9458 47.4747 30.5796 48.2022C31.3301 49.063 32.6714 49.0621 33.4204 48.2022ZM26.353 16.9156C26.353 13.8082 28.8862 11.2803 32 11.2803C35.1133 11.2803 37.6465 13.8082 37.6465 16.9156C37.6465 20.0225 35.1133 22.5503 32 22.5503C28.8862 22.5503 26.353 20.0225 26.353 16.9156Z" fill="#7490AA" style="fill:#7490AA;fill:color(display-p3 0.4549 0.5647 0.6667);fill-opacity:1;"/>
</g>
<defs>
<clipPath id="clip0_24467_134572">
<rect width="64" height="64" fill="white" style="fill:white;fill-opacity:1;"/>
</clipPath>
</defs>
</svg>
