<svg width="64" height="64" viewBox="0 0 64 64" fill="none" xmlns="http://www.w3.org/2000/svg">
<path d="M52 10H12C8.68629 10 6 12.6863 6 16V44C6 47.3137 8.68629 50 12 50H52C55.3137 50 58 47.3137 58 44V16C58 12.6863 55.3137 10 52 10Z" fill="#7490AA" style="fill:#7490AA;fill:color(display-p3 0.4549 0.5647 0.6667);fill-opacity:1;"/>
<path d="M40 54H24C23.4696 54 22.9609 54.2107 22.5858 54.5858C22.2107 54.9609 22 55.4696 22 56C22 56.5304 22.2107 57.0391 22.5858 57.4142C22.9609 57.7893 23.4696 58 24 58H40C40.5304 58 41.0391 57.7893 41.4142 57.4142C41.7893 57.0391 42 56.5304 42 56C42 55.4696 41.7893 54.9609 41.4142 54.5858C41.0391 54.2107 40.5304 54 40 54Z" fill="#7490AA" style="fill:#7490AA;fill:color(display-p3 0.4549 0.5647 0.6667);fill-opacity:1;"/>
</svg>
