<svg width="64" height="64" viewBox="0 0 64 64" fill="none" xmlns="http://www.w3.org/2000/svg">
<path fill-rule="evenodd" clip-rule="evenodd" d="M41.277 60.6666H10.6663C8.72234 60.6666 6.85567 59.8933 5.47967 58.5199C4.10634 57.1439 3.33301 55.2773 3.33301 53.3333V10.6666C3.33301 8.72259 4.10634 6.85592 5.47967 5.47992C6.85567 4.10659 8.72234 3.33325 10.6663 3.33325H33.5623C34.7997 3.33325 35.9863 3.82392 36.861 4.70125L48.6317 16.4719C49.509 17.3466 49.9997 18.5333 49.9997 19.7706V30.8399C48.1677 30.5706 46.3037 30.6159 44.485 30.9733C42.9517 31.2719 41.6717 32.3199 41.0717 33.7626L40.6183 34.8559C40.021 34.7786 39.4423 34.7039 39.4423 34.7039C37.893 34.5013 36.3463 35.0853 35.3197 36.2639C33.9303 37.8586 32.861 39.7066 32.1757 41.7093C31.669 43.1866 31.9357 44.8186 32.885 46.0586L33.6077 46.9999C33.2423 47.4773 32.885 47.9413 32.885 47.9413C31.9357 49.1813 31.669 50.8133 32.1757 52.2906C32.861 54.2933 33.9303 56.1413 35.3197 57.7359C36.3463 58.9146 37.893 59.4986 39.4423 59.2959L40.6183 59.1439C40.8477 59.6986 41.0717 60.2373 41.0717 60.2373C41.133 60.3839 41.2023 60.5279 41.277 60.6666ZM14.6663 39.3333H26.6663C27.7703 39.3333 28.6663 38.4373 28.6663 37.3333C28.6663 36.2293 27.7703 35.3333 26.6663 35.3333H14.6663C13.5623 35.3333 12.6663 36.2293 12.6663 37.3333C12.6663 38.4373 13.5623 39.3333 14.6663 39.3333ZM33.333 7.99992V17.3333C33.333 18.8053 34.5277 19.9999 35.9997 19.9999H45.333L33.333 7.99992ZM14.6663 29.9999H35.9997C37.1037 29.9999 37.9997 29.1039 37.9997 27.9999C37.9997 26.8959 37.1037 25.9999 35.9997 25.9999H14.6663C13.5623 25.9999 12.6663 26.8959 12.6663 27.9999C12.6663 29.1039 13.5623 29.9999 14.6663 29.9999ZM14.6663 48.6666H26.6663C27.7703 48.6666 28.6663 47.7706 28.6663 46.6666C28.6663 45.5626 27.7703 44.6666 26.6663 44.6666H14.6663C13.5623 44.6666 12.6663 45.5626 12.6663 46.6666C12.6663 47.7706 13.5623 48.6666 14.6663 48.6666Z" fill="#7490AA" style="fill:#7490AA;fill:color(display-p3 0.4549 0.5647 0.6667);fill-opacity:1;"/>
<path fill-rule="evenodd" clip-rule="evenodd" d="M51.7221 34.7839C51.7221 34.7839 52.6687 37.0639 52.6661 37.0639C53.0261 37.2453 53.3754 37.4479 53.7141 37.6666L56.1621 37.3466C56.8234 37.2613 57.4874 37.5119 57.9274 38.0159C59.0901 39.3493 59.9834 40.8986 60.5594 42.5733C60.7754 43.2053 60.6607 43.9066 60.2527 44.4373C60.2527 44.4373 58.7541 46.3973 58.7541 46.3946C58.7754 46.7973 58.7754 47.2026 58.7541 47.6026L60.2527 49.5626C60.6607 50.0933 60.7754 50.7946 60.5594 51.4266C59.9834 53.1013 59.0901 54.6506 57.9274 55.9839C57.4874 56.4879 56.8234 56.7386 56.1621 56.6533C56.1621 56.6533 53.7141 56.3333 53.7167 56.3306C53.3781 56.5519 53.0261 56.7546 52.6687 56.9359L51.7221 59.2159C51.4661 59.8346 50.9167 60.2826 50.2607 60.4106C48.5221 60.7519 46.7354 60.7519 44.9967 60.4106C44.3407 60.2826 43.7914 59.8346 43.5354 59.2159C43.5354 59.2159 42.5887 56.9359 42.5914 56.9359C42.2314 56.7546 41.8794 56.5519 41.5434 56.3333L39.0954 56.6533C38.4314 56.7386 37.7701 56.4879 37.3301 55.9839C36.1647 54.6506 35.2714 53.1013 34.6981 51.4266C34.4821 50.7946 34.5967 50.0933 35.0021 49.5626C35.0021 49.5626 36.5034 47.6026 36.5034 47.6053C36.4821 47.2026 36.4821 46.7973 36.5034 46.3973L35.0021 44.4373C34.5967 43.9066 34.4821 43.2053 34.6981 42.5733C35.2714 40.8986 36.1647 39.3493 37.3301 38.0159C37.7701 37.5119 38.4314 37.2613 39.0954 37.3466C39.0954 37.3466 41.5434 37.6666 41.5407 37.6693C41.8794 37.4479 42.2287 37.2453 42.5887 37.0639L43.5354 34.7839C43.7914 34.1653 44.3407 33.7173 44.9967 33.5893C46.7354 33.2479 48.5221 33.2479 50.2607 33.5893C50.9167 33.7173 51.4661 34.1653 51.7221 34.7839ZM47.6287 42.9999C45.4207 42.9999 43.6287 44.7919 43.6287 46.9999C43.6287 49.2079 45.4207 50.9999 47.6287 50.9999C49.8367 50.9999 51.6287 49.2079 51.6287 46.9999C51.6287 44.7919 49.8367 42.9999 47.6287 42.9999Z" fill="#7490AA" style="fill:#7490AA;fill:color(display-p3 0.4549 0.5647 0.6667);fill-opacity:1;"/>
</svg>
