<svg width="64" height="64" viewBox="0 0 64 64" fill="none" xmlns="http://www.w3.org/2000/svg">
<g clip-path="url(#clip0_24467_134591)">
<path fill-rule="evenodd" clip-rule="evenodd" d="M35.2613 15.0857C33.0604 12.8848 29.459 12.8848 27.2582 15.0857L1.65066 40.6932C-0.550219 42.8941 -0.550219 46.4954 1.65066 48.6964L15.3035 62.3493C17.5044 64.5502 21.1059 64.5502 23.3068 62.3493L48.9143 36.7418C51.1152 34.5409 51.1152 30.9394 48.9143 28.7386L35.2613 15.0857ZM41.6243 4.2253C40.4645 4.0458 39.6698 2.96018 39.8493 1.8003C40.0288 0.640552 41.1145 -0.154198 42.2743 0.025302C47.8608 0.898677 52.8523 3.53355 56.6593 7.34068C60.4663 11.1478 63.1012 16.1392 63.9745 21.7257C64.154 22.8854 63.3593 23.9712 62.1995 24.1507C61.0398 24.3302 59.954 23.5354 59.7745 22.3757C59.0473 17.7243 56.8384 13.5532 53.6425 10.3573C50.4467 7.16143 46.2757 4.95255 41.6243 4.2253ZM40.7379 13.0736C39.5828 12.8481 38.829 11.7287 39.0547 10.5736C39.2802 9.4183 40.3995 8.66468 41.5547 8.8903C44.9747 9.56243 48.0287 11.2426 50.3932 13.6069C52.7577 15.9714 54.4377 19.0254 55.1098 22.4454C55.3353 23.6006 54.5817 24.7199 53.4264 24.9454C52.2713 25.1709 51.1519 24.4173 50.9264 23.2621C50.4228 20.6994 49.1582 18.4053 47.3764 16.6236C45.5947 14.8419 43.3005 13.5773 40.7379 13.0736ZM36.1395 30.1218C37.2415 29.0197 39.0283 29.0197 40.1303 30.1218C41.2323 31.2238 41.2323 33.0104 40.1303 34.1126C39.0283 35.2146 37.2415 35.2146 36.1395 34.1126C35.0375 33.0106 35.0377 31.2239 36.1395 30.1218ZM29.8874 27.8604C28.7853 26.7583 28.7854 24.9717 29.8874 23.8697C30.9894 22.7677 32.7762 22.7677 33.8782 23.8697C34.9802 24.9717 34.9803 26.7584 33.8782 27.8604C32.7762 28.9624 30.9894 28.9624 29.8874 27.8604ZM27.6259 30.1218C28.7279 31.2238 28.728 33.0106 27.6259 34.1126C26.5239 35.2146 24.7372 35.2146 23.6352 34.1126C22.5332 33.0104 22.5332 31.2238 23.6352 30.1218C24.7372 29.0198 26.5238 29.0198 27.6259 30.1218ZM29.8874 36.3741C30.9894 35.2719 32.7762 35.2719 33.8782 36.3741C34.9802 37.4761 34.9802 39.2627 33.8782 40.3648C32.7762 41.4668 30.9894 41.4668 29.8874 40.3648C28.7853 39.2628 28.7853 37.4761 29.8874 36.3741ZM22.6579 41.3421C25.1558 43.8399 25.1558 47.8899 22.6579 50.3878C20.16 52.8857 16.11 52.8857 13.612 50.3878C11.1142 47.8899 11.1142 43.8399 13.612 41.3421C16.11 38.8442 20.1599 38.8442 22.6579 41.3421Z" fill="#7490AA" style="fill:#7490AA;fill:color(display-p3 0.4549 0.5647 0.6667);fill-opacity:1;"/>
</g>
<defs>
<clipPath id="clip0_24467_134591">
<rect width="64" height="64" fill="white" style="fill:white;fill-opacity:1;"/>
</clipPath>
</defs>
</svg>
