<svg width="16" height="16" viewBox="0 0 16 16" fill="none" xmlns="http://www.w3.org/2000/svg">
<path d="M14.5988 9.48752C14.7017 9.0243 14.7531 8.5511 14.7519 8.07658C14.7519 4.44158 11.7616 1.49221 8.07096 1.49221C7.68861 1.49193 7.30689 1.52329 6.92971 1.58596C6.31292 1.2009 5.59995 0.997801 4.87283 1.00002C2.73596 1.00002 1.00002 2.71002 1.00002 4.81721C0.997747 5.49784 1.18144 6.16616 1.53127 6.75002C1.4418 7.18549 1.39658 7.62889 1.39627 8.07346C1.39627 11.7122 4.38658 14.6578 8.07346 14.6578C8.48314 14.6589 8.89204 14.6223 9.29502 14.5485C9.85987 14.8459 10.4888 15.0009 11.1272 15C13.2678 15 15 13.29 15 11.1828C15.0036 10.5938 14.866 10.0125 14.5988 9.48752ZM11.5 11.2188C11.19 11.6488 10.7341 11.9916 10.1435 12.2322C9.55283 12.4728 8.85502 12.5938 8.05283 12.5938C7.09377 12.5938 6.29158 12.426 5.66065 12.0978C5.22326 11.8676 4.84605 11.538 4.5594 11.1353C4.27471 10.7344 4.13252 10.3335 4.13252 9.94783C4.13252 9.7072 4.22627 9.49939 4.40971 9.32439C4.59221 9.15658 4.82908 9.06908 5.10627 9.06908C5.33596 9.06908 5.53283 9.13471 5.69346 9.26971C5.84658 9.39721 5.97783 9.58689 6.08346 9.83471C6.18584 10.072 6.31512 10.2969 6.46877 10.5047C6.60044 10.676 6.78648 10.8181 7.0269 10.9313C7.27127 11.0444 7.59565 11.1025 7.99565 11.1025C8.54627 11.1025 8.99846 10.986 9.33752 10.7563C9.67315 10.5338 9.83377 10.2641 9.83377 9.93596C9.83377 9.67721 9.74971 9.47283 9.57471 9.31252C9.39252 9.14471 9.15533 9.01346 8.86002 8.92596C8.55721 8.83221 8.14533 8.73283 7.63471 8.62721C6.9419 8.48127 6.35346 8.30627 5.88471 8.10939C5.40721 7.90877 5.02065 7.62814 4.73596 7.28189C4.44783 6.92814 4.30565 6.48346 4.30565 5.96189C4.30075 5.47985 4.46024 5.01052 4.75783 4.63127C5.0569 4.24846 5.49096 3.94939 6.05627 3.74533C6.61065 3.54127 7.27065 3.43908 8.0144 3.43908C8.61252 3.43908 9.13408 3.50846 9.57158 3.63971C10.0091 3.77096 10.3813 3.95689 10.6766 4.18283C10.9719 4.40877 11.1872 4.64939 11.3256 4.90158C11.4641 5.15377 11.5338 5.40846 11.5338 5.65158C11.5338 5.88471 11.4425 6.10002 11.26 6.28596C11.1715 6.37806 11.0649 6.45086 10.9469 6.4998C10.8289 6.54874 10.7021 6.57275 10.5744 6.57033C10.3266 6.57033 10.1331 6.51189 9.99846 6.39533C9.87346 6.28596 9.74315 6.11814 9.60096 5.87377C9.43315 5.56408 9.23252 5.31596 9.00283 5.14096C8.77658 4.97346 8.40471 4.88596 7.8869 4.88596C7.40908 4.88596 7.01908 4.97971 6.73065 5.16721C6.45346 5.34596 6.31846 5.55377 6.31846 5.79783C6.31502 5.93767 6.36306 6.0739 6.45346 6.18064C6.56344 6.30719 6.69889 6.40909 6.85096 6.47971C7.0222 6.56578 7.20177 6.63416 7.3869 6.68377C7.5744 6.73502 7.88283 6.81158 8.30971 6.90627C8.85283 7.01939 9.34877 7.15064 9.78658 7.28533C10.2316 7.42752 10.6144 7.59783 10.9278 7.79939C11.2391 7.99593 11.4982 8.26496 11.6828 8.58346C11.8616 8.89596 11.9528 9.29064 11.9528 9.74283C11.9727 10.2718 11.8131 10.7919 11.5 11.2188Z" fill="#00B2FF" style="fill:#00B2FF;fill:color(display-p3 0.0000 0.6991 1.0000);fill-opacity:1;"/>
</svg>
