<svg width="13" height="13" viewBox="0 0 13 13" fill="none" xmlns="http://www.w3.org/2000/svg">
<path d="M6.25 0.5C4.59296 0.50182 3.0043 1.16088 1.83259 2.33259C0.660884 3.5043 0.00181975 5.09296 0 6.75V12.0206C0.000330758 12.2803 0.103621 12.5292 0.287218 12.7128C0.470814 12.8964 0.71973 12.9997 0.979375 13H6.25C7.9076 13 9.49732 12.3415 10.6694 11.1694C11.8415 9.99732 12.5 8.4076 12.5 6.75C12.5 5.0924 11.8415 3.50269 10.6694 2.33058C9.49732 1.15848 7.9076 0.5 6.25 0.5ZM3.5 7.75C3.35166 7.75 3.20666 7.70601 3.08332 7.6236C2.95999 7.54119 2.86386 7.42406 2.80709 7.28701C2.75032 7.14997 2.73547 6.99917 2.76441 6.85368C2.79335 6.7082 2.86478 6.57456 2.96967 6.46967C3.07456 6.36478 3.2082 6.29335 3.35368 6.26441C3.49917 6.23547 3.64997 6.25032 3.78701 6.30709C3.92406 6.36386 4.04119 6.45999 4.1236 6.58332C4.20601 6.70666 4.25 6.85166 4.25 7C4.25 7.19891 4.17098 7.38968 4.03033 7.53033C3.88968 7.67098 3.69891 7.75 3.5 7.75ZM6.25 7.75C6.10166 7.75 5.95666 7.70601 5.83332 7.6236C5.70999 7.54119 5.61386 7.42406 5.55709 7.28701C5.50032 7.14997 5.48547 6.99917 5.51441 6.85368C5.54335 6.7082 5.61478 6.57456 5.71967 6.46967C5.82456 6.36478 5.9582 6.29335 6.10368 6.26441C6.24917 6.23547 6.39997 6.25032 6.53701 6.30709C6.67406 6.36386 6.79119 6.45999 6.8736 6.58332C6.95601 6.70666 7 6.85166 7 7C7 7.19891 6.92098 7.38968 6.78033 7.53033C6.63968 7.67098 6.44891 7.75 6.25 7.75ZM9 7.75C8.85166 7.75 8.70666 7.70601 8.58332 7.6236C8.45999 7.54119 8.36386 7.42406 8.30709 7.28701C8.25033 7.14997 8.23547 6.99917 8.26441 6.85368C8.29335 6.7082 8.36478 6.57456 8.46967 6.46967C8.57456 6.36478 8.7082 6.29335 8.85368 6.26441C8.99917 6.23547 9.14997 6.25032 9.28701 6.30709C9.42406 6.36386 9.54119 6.45999 9.6236 6.58332C9.70601 6.70666 9.75 6.85166 9.75 7C9.75 7.19891 9.67098 7.38968 9.53033 7.53033C9.38968 7.67098 9.19891 7.75 9 7.75Z" fill="#1FAD68" style="fill:#1FAD68;fill:color(display-p3 0.1216 0.6784 0.4078);fill-opacity:1;"/>
</svg>
