<svg width="56" height="57" viewBox="0 0 56 57" fill="none" xmlns="http://www.w3.org/2000/svg">
<path fill-rule="evenodd" clip-rule="evenodd" d="M25.98 6.12593C25.98 4.74813 25.4327 3.42661 24.4584 2.4515C23.4833 1.47725 22.1618 0.929932 20.784 0.929932H5.196C3.81819 0.929932 2.49668 1.47725 1.52156 2.4515C0.547312 3.42661 0 4.74813 0 6.12593V21.7139C0 23.0917 0.547312 24.4132 1.52156 25.3884C2.49668 26.3626 3.81819 26.9099 5.196 26.9099H20.784C22.1618 26.9099 23.4833 26.3626 24.4584 25.3884C25.4327 24.4132 25.98 23.0917 25.98 21.7139V6.12593Z" fill="#7490AA" style="fill:#7490AA;fill:color(display-p3 0.4549 0.5647 0.6667);fill-opacity:1;"/>
<path fill-rule="evenodd" clip-rule="evenodd" d="M25.98 36.1259C25.98 34.7481 25.4327 33.4266 24.4584 32.4515C23.4833 31.4772 22.1618 30.9299 20.784 30.9299H5.196C3.81819 30.9299 2.49668 31.4772 1.52156 32.4515C0.547312 33.4266 0 34.7481 0 36.1259V51.7139C0 53.0917 0.547312 54.4132 1.52156 55.3884C2.49668 56.3626 3.81819 56.9099 5.196 56.9099H20.784C22.1618 56.9099 23.4833 56.3626 24.4584 55.3884C25.4327 54.4132 25.98 53.0917 25.98 51.7139V36.1259Z" fill="#7490AA" style="fill:#7490AA;fill:color(display-p3 0.4549 0.5647 0.6667);fill-opacity:1;"/>
<path fill-rule="evenodd" clip-rule="evenodd" d="M55.98 36.1259C55.98 34.7481 55.4327 33.4266 54.4584 32.4515C53.4833 31.4772 52.1618 30.9299 50.784 30.9299H35.196C33.8182 30.9299 32.4967 31.4772 31.5216 32.4515C30.5473 33.4266 30 34.7481 30 36.1259V51.7139C30 53.0917 30.5473 54.4132 31.5216 55.3884C32.4967 56.3626 33.8182 56.9099 35.196 56.9099H50.784C52.1618 56.9099 53.4833 56.3626 54.4584 55.3884C55.4327 54.4132 55.98 53.0917 55.98 51.7139V36.1259Z" fill="#7490AA" style="fill:#7490AA;fill:color(display-p3 0.4549 0.5647 0.6667);fill-opacity:1;"/>
<path fill-rule="evenodd" clip-rule="evenodd" d="M46.6262 2.4279C44.6135 0.416938 41.3508 0.416938 39.3381 2.4279C37.0878 4.67997 33.7481 8.01788 31.4978 10.27C29.4851 12.2826 29.4851 15.5453 31.4978 17.5563C33.7481 19.8083 37.0878 23.1463 39.3381 25.3983C41.3508 27.411 44.6135 27.411 46.6262 25.3983C48.8765 23.1463 52.2161 19.8083 54.4665 17.5563C56.4792 15.5453 56.4792 12.2826 54.4665 10.27C52.2161 8.01788 48.8765 4.67997 46.6262 2.4279Z" fill="#7490AA" style="fill:#7490AA;fill:color(display-p3 0.4549 0.5647 0.6667);fill-opacity:1;"/>
</svg>
