<svg width="16" height="16" viewBox="0 0 16 16" fill="none" xmlns="http://www.w3.org/2000/svg">
<path d="M4.05988 1.61998C2.98388 1.81998 2.11588 2.64398 1.81188 3.75998C1.74388 3.99998 1.73988 4.30798 1.73988 7.93998C1.73988 12.336 1.72388 12.06 2.03588 12.7C2.40388 13.444 3.07188 13.996 3.87988 14.228C4.12388 14.296 4.37188 14.3 7.97989 14.3C12.2839 14.3 12.0719 14.312 12.6679 14.008C13.3799 13.64 13.8959 13.04 14.1399 12.288C14.2119 12.06 14.2799 11.64 14.2439 11.64C14.2319 11.64 14.0839 11.732 13.9199 11.844C13.2239 12.312 12.1599 12.74 11.2359 12.928C10.8319 13.008 10.6679 13.02 9.81989 13.02C8.67189 13.016 8.41989 12.976 7.29988 12.592C6.76389 12.408 6.52388 12.344 6.35589 12.344C6.12788 12.34 6.13988 12.336 5.41588 12.712C5.05588 12.9 4.61188 13 4.13188 13.008C3.88788 13.008 3.67188 12.988 3.59988 12.96C3.36388 12.864 3.41588 12.664 3.73188 12.436C4.00388 12.24 4.25188 11.984 4.39588 11.744C4.67188 11.284 4.69588 11.016 4.47988 10.732C4.41588 10.648 4.24388 10.428 4.09988 10.24C3.78388 9.82798 3.39988 9.07198 3.25988 8.57998C2.70788 6.64398 3.19988 4.72798 4.63988 3.22398C5.23588 2.59998 5.73188 2.23198 6.53989 1.81198L7.01989 1.56398H5.67988C4.76388 1.56798 4.25188 1.58398 4.05988 1.61998Z" fill="#0053CC" style="fill:#0053CC;fill:color(display-p3 0.0000 0.3263 0.8000);fill-opacity:1;"/>
<path d="M10.456 5.20402C10.384 5.28402 10.38 5.37602 10.368 6.71602C10.36 7.50002 10.368 8.19602 10.38 8.26802C10.412 8.44802 10.5 8.52002 10.68 8.52002C10.844 8.52002 10.948 8.44802 10.98 8.30802C10.992 8.26002 11 7.56002 10.992 6.75602C10.98 5.37602 10.976 5.28402 10.904 5.20402C10.8 5.08802 10.56 5.08802 10.456 5.20402Z" fill="#0053CC" style="fill:#0053CC;fill:color(display-p3 0.0000 0.3263 0.8000);fill-opacity:1;"/>
<path d="M5.47582 5.40002C5.36382 5.46402 5.30382 5.65602 5.36382 5.76802C5.38782 5.81602 5.43182 5.87202 5.45582 5.88802C5.47982 5.90402 5.77182 5.92002 6.10782 5.92002C6.43982 5.92002 6.72382 5.93202 6.73182 5.94802C6.74382 5.96802 6.52382 6.30402 6.25182 6.70002C5.37582 7.95602 5.31982 8.04402 5.31982 8.16002C5.31982 8.49602 5.39582 8.52002 6.55982 8.52002H7.52382L7.61982 8.42002C7.73982 8.30402 7.74782 8.16402 7.64382 8.03602C7.56782 7.94402 7.54382 7.94002 6.86782 7.92002L6.16382 7.90002L6.87982 6.88002C7.51982 5.97202 7.59982 5.84402 7.59982 5.70002C7.59982 5.37602 7.55182 5.36002 6.45182 5.36002C5.95182 5.36002 5.51182 5.38002 5.47582 5.40002Z" fill="#0053CC" style="fill:#0053CC;fill:color(display-p3 0.0000 0.3263 0.8000);fill-opacity:1;"/>
<path d="M8.63984 6.152C8.17984 6.288 7.83984 6.788 7.83984 7.336C7.83984 8.028 8.19984 8.468 8.79984 8.512C9.06784 8.528 9.15184 8.508 9.38784 8.36C9.46784 8.308 9.48384 8.312 9.56384 8.412C9.63584 8.508 9.67584 8.524 9.81584 8.512C9.95984 8.5 9.98784 8.48 10.0518 8.36C10.1158 8.236 10.1198 8.116 10.1118 7.276C10.0998 6.408 10.0918 6.32 10.0238 6.244C9.90784 6.116 9.67184 6.128 9.55984 6.268L9.47984 6.372L9.36784 6.272C9.27184 6.18 9.01184 6.076 8.89984 6.084C8.87984 6.084 8.75984 6.116 8.63984 6.152ZM9.19984 6.78C9.37184 6.868 9.45584 7.056 9.45584 7.34C9.45584 7.732 9.27184 7.96 8.95984 7.96C8.66384 7.96 8.46384 7.712 8.46384 7.34C8.46384 6.86 8.82784 6.588 9.19984 6.78Z" fill="#0053CC" style="fill:#0053CC;fill:color(display-p3 0.0000 0.3263 0.8000);fill-opacity:1;"/>
<path d="M12.1121 6.14005C11.5681 6.28805 11.2841 6.63205 11.2161 7.21605C11.1841 7.47605 11.2801 7.87205 11.4321 8.09205C11.6841 8.46405 12.2881 8.62405 12.7721 8.44005C13.3481 8.22405 13.6041 7.62005 13.4041 6.96005C13.3281 6.71605 13.2801 6.63205 13.1041 6.46005C12.9321 6.28805 12.8401 6.23205 12.6201 6.16405C12.4721 6.11605 12.3401 6.08005 12.3241 6.08405C12.3121 6.08405 12.2161 6.11205 12.1121 6.14005ZM12.5921 6.78405C12.7361 6.88405 12.8001 7.05605 12.8001 7.34005C12.8001 7.62405 12.7361 7.79605 12.5921 7.89605C12.4841 7.97205 12.2601 7.97605 12.1201 7.90805C11.9881 7.84405 11.8401 7.54405 11.8401 7.34005C11.8401 7.13605 11.9881 6.83605 12.1201 6.77205C12.2601 6.70405 12.4841 6.70805 12.5921 6.78405Z" fill="#0053CC" style="fill:#0053CC;fill:color(display-p3 0.0000 0.3263 0.8000);fill-opacity:1;"/>
</svg>
