<svg width="40" height="40" viewBox="0 0 40 40" fill="none" xmlns="http://www.w3.org/2000/svg">
<g clip-path="url(#clip0_24330_1113)">
<circle cx="20" cy="20" r="20" fill="white" style="fill:white;fill-opacity:1;"/>
<path fill-rule="evenodd" clip-rule="evenodd" d="M36.6667 31.0593C38.7728 27.8916 40 24.0891 40 20C40 8.9543 31.0457 0 20 0C8.9543 0 0 8.9543 0 20C0 24.0891 1.22718 27.8916 3.33333 31.0593V29.5833H8.67187C9.22682 29.5833 9.67409 29.1197 9.64733 28.5589C9.6222 28.0339 9.16973 27.6302 8.64407 27.6302H3.33333V25.6771H8.67187C9.22682 25.6771 9.67409 25.2135 9.64733 24.6527C9.6222 24.1277 9.16973 23.724 8.64407 23.724H3.33333V21.1947C3.33333 20.6553 3.77057 20.2181 4.3099 20.2181H11.8854C12.4251 20.2181 12.862 20.6556 12.862 21.1947V38.6886C13.4981 38.9317 14.1497 39.1433 14.8151 39.3214V23.0443H24.3385C24.8776 23.0443 25.3151 23.4811 25.3151 24.0208V39.286C25.9807 39.103 26.6324 38.8865 27.2682 38.6383V24.0208C27.2682 22.4056 25.9538 21.0911 24.3385 21.0911H23.3854V17.7995C23.3854 17.5137 23.5104 17.2422 23.7279 17.0566C23.946 16.8711 24.2337 16.7897 24.5156 16.8353L35.8437 18.528C36.3177 18.6035 36.6667 19.0124 36.6667 19.4922V31.0593ZM24.7682 10.6217C23.4779 9.33073 21.7611 8.61979 19.9349 8.61979C18.1087 8.61979 16.3919 9.33073 15.1016 10.6217C14.7201 11.0033 14.1016 11.0039 13.7207 10.6224C13.3392 10.2409 13.3385 9.6224 13.7201 9.24154C15.3796 7.58073 17.5866 6.66667 19.9349 6.66667C22.2832 6.66667 24.4902 7.58073 26.1497 9.24154C26.5312 9.6224 26.5306 10.2409 26.1491 10.6224C25.959 10.8132 25.709 10.9082 25.459 10.9082C25.209 10.9082 24.959 10.8125 24.7682 10.6217ZM19.9349 16.4324C20.4742 16.4324 20.9115 15.9952 20.9115 15.4559C20.9115 14.9165 20.4742 14.4793 19.9349 14.4793C19.3956 14.4793 18.9583 14.9165 18.9583 15.4559C18.9583 15.9952 19.3956 16.4324 19.9349 16.4324ZM23.388 13.3841C23.1973 13.5742 22.9473 13.6699 22.6973 13.6699C22.4473 13.6699 22.1973 13.5749 22.0065 13.3841C21.4538 12.8307 20.7174 12.526 19.9349 12.526C19.1523 12.526 18.416 12.8307 17.8633 13.3841C17.4818 13.765 16.8633 13.765 16.4818 13.3841C16.1009 13.0026 16.1009 12.3841 16.4818 12.0026C17.4043 11.0807 18.6302 10.5729 19.9349 10.5729C21.2396 10.5729 22.4655 11.0807 23.388 12.0026C23.7689 12.3841 23.7689 13.0026 23.388 13.3841Z" fill="#007EF5" style="fill:#007EF5;fill:color(display-p3 0.0000 0.4941 0.9608);fill-opacity:1;"/>
<path d="M5.23395 33.4896C4.67012 32.8727 4.14443 32.2205 3.66061 31.5365H8.64407C9.16973 31.5365 9.6222 31.9402 9.64733 32.4652C9.67409 33.026 9.22682 33.4896 8.67187 33.4896H5.23395Z" fill="#007EF5" style="fill:#007EF5;fill:color(display-p3 0.0000 0.4941 0.9608);fill-opacity:1;"/>
<path d="M22.9948 39.7773V35.1172C22.9948 34.5781 22.5573 34.1406 22.0182 34.1406H18.112C17.5729 34.1406 17.1354 34.5781 17.1354 35.1172V39.7964C17.7771 39.8884 18.4287 39.95 19.0885 39.9796V36.0938H21.0417V39.9733C21.7017 39.9395 22.3532 39.8736 22.9948 39.7773Z" fill="#007EF5" style="fill:#007EF5;fill:color(display-p3 0.0000 0.4941 0.9608);fill-opacity:1;"/>
<path d="M30.2214 34.1406C30.7604 34.1406 31.1979 33.7031 31.1979 33.1641V22.487C31.1979 21.9479 30.7604 21.5104 30.2214 21.5104C29.6823 21.5104 29.2448 21.9479 29.2448 22.487V33.1641C29.2448 33.7031 29.6823 34.1406 30.2214 34.1406Z" fill="#007EF5" style="fill:#007EF5;fill:color(display-p3 0.0000 0.4941 0.9608);fill-opacity:1;"/>
<path d="M18.112 32.1875H22.0182C22.5573 32.1875 22.9948 31.75 22.9948 31.2109C22.9948 30.6719 22.5573 30.2344 22.0182 30.2344H18.112C17.5729 30.2344 17.1354 30.6719 17.1354 31.2109C17.1354 31.75 17.5729 32.1875 18.112 32.1875Z" fill="#007EF5" style="fill:#007EF5;fill:color(display-p3 0.0000 0.4941 0.9608);fill-opacity:1;"/>
<path d="M18.112 28.2812H22.0182C22.5573 28.2812 22.9948 27.8438 22.9948 27.3047C22.9948 26.7656 22.5573 26.3281 22.0182 26.3281H18.112C17.5729 26.3281 17.1354 26.7656 17.1354 27.3047C17.1354 27.8438 17.5729 28.2812 18.112 28.2812Z" fill="#007EF5" style="fill:#007EF5;fill:color(display-p3 0.0000 0.4941 0.9608);fill-opacity:1;"/>
</g>
<defs>
<clipPath id="clip0_24330_1113">
<rect width="40" height="40" fill="white" style="fill:white;fill-opacity:1;"/>
</clipPath>
</defs>
</svg>
